<svg
    xmlns="http://www.w3.org/2000/svg" width="600" height="642">
  <script xmlns:xlink="http://www.w3.org/1999/xlink" xlink:href="http://lod-cloud.net/versions/2017-08-22/both.js"/>
  <style>
    circle { 
        stroke: #333;
        stroke-width: 1.5px;
        fill-opacity: 0.8; 
    } 
    .bubble text {
        text-anchor: middle;
        font-size: .5em;
    }
    .circle-active circle { 
        stroke: #e80000;  
        stroke-width: 3px; 
    } 
    .link { 
        stroke: #e0270b;  
        stroke: #555;  
        stroke-opacity: 0.7;  
        stroke-width: 1px;  
        stroke-dasharray:none;
    } 
    .link-activeIncoming {  
        stroke-opacity: 1; 
        stroke-width: 10;  
        stroke: #be1b38; 
    } 
    .link-activeOutgoung {  
        stroke-opacity: 1;  
        stroke-width: 10; 
        stroke: #1AC21D;  
    } 
    .link-activeBoth {  
        stroke-opacity: 1;  
        stroke: #1AC21D;  
        stroke-width: 10;  
        stroke-dasharray:5,10,5;}
  </style>
  <g transform="scale(0.5)">
    <g id="legend">
      <text transform="translate(30,30)" style="font-family:Verdana, Arial;font-size:200%;text-decoration:underline;">Legend</text>
      <rect width="310" height="35" style="fill:#3182BD" transform="translate(30,45)"/>
      <text transform="translate(35,72)" style="font-family:Verdana, Arial;font-size:200%">Geography</text>
    </g>
  </g>
  <g class="links">
    <line class="link" targetId="0" sourceId="1" x1="326.93867637583355" y1="146.28059578818258" x2="290.1158902341717" y2="267.15253337939646"/>
    <line class="link" targetId="0" sourceId="2" x1="326.93867637583355" y1="146.28059578818258" x2="377.8561794857339" y2="170.8997801815489"/>
    <line class="link" targetId="0" sourceId="3" x1="326.93867637583355" y1="146.28059578818258" x2="252.4510341766316" y2="382.5957242642618"/>
    <line class="link" targetId="3" sourceId="1" x1="252.4510341766316" y1="382.5957242642618" x2="290.1158902341717" y2="267.15253337939646"/>
    <line class="link" targetId="5" sourceId="1" x1="433.86431054222794" y1="153.9818049745667" x2="290.1158902341717" y2="267.15253337939646"/>
    <line class="link" targetId="6" sourceId="1" x1="485.202761622293" y1="182.30370925705068" x2="290.1158902341717" y2="267.15253337939646"/>
    <line class="link" targetId="7" sourceId="1" x1="471.170367962137" y1="243.1581884058903" x2="290.1158902341717" y2="267.15253337939646"/>
    <line class="link" targetId="7" sourceId="3" x1="471.170367962137" y1="243.1581884058903" x2="252.4510341766316" y2="382.5957242642618"/>
    <line class="link" targetId="8" sourceId="1" x1="399.71955825891655" y1="235.15878146581298" x2="290.1158902341717" y2="267.15253337939646"/>
    <line class="link" targetId="8" sourceId="9" x1="399.71955825891655" y1="235.15878146581298" x2="171.89825010355284" y2="239.06638952213888"/>
    <line class="link" targetId="11" sourceId="10" x1="520.57182897851" y1="317.7999595280859" x2="299.7830191573516" y2="349.3595295161185"/>
    <line class="link" targetId="12" sourceId="1" x1="458.9706854110776" y1="323.8782919657157" x2="290.1158902341717" y2="267.15253337939646"/>
    <line class="link" targetId="12" sourceId="10" x1="458.9706854110776" y1="323.8782919657157" x2="299.7830191573516" y2="349.3595295161185"/>
    <line class="link" targetId="13" sourceId="10" x1="383.2625880886984" y1="375.0075438071807" x2="299.7830191573516" y2="349.3595295161185"/>
    <line class="link" targetId="14" sourceId="1" x1="400.64009151649526" y1="320.1917593047487" x2="290.1158902341717" y2="267.15253337939646"/>
    <line class="link" targetId="14" sourceId="10" x1="400.64009151649526" y1="320.1917593047487" x2="299.7830191573516" y2="349.3595295161185"/>
    <line class="link" targetId="15" sourceId="1" x1="347.2486941176126" y1="331.9413677369277" x2="290.1158902341717" y2="267.15253337939646"/>
    <line class="link" targetId="15" sourceId="10" x1="347.2486941176126" y1="331.9413677369277" x2="299.7830191573516" y2="349.3595295161185"/>
    <line class="link" targetId="15" sourceId="4" x1="347.2486941176126" y1="331.9413677369277" x2="440.21247465821716" y2="379.5411589262891"/>
    <line class="link" targetId="16" sourceId="1" x1="358.9590650240819" y1="274.26489770873417" x2="290.1158902341717" y2="267.15253337939646"/>
    <line class="link" targetId="17" sourceId="1" x1="360.4840178014405" y1="427.890461429713" x2="290.1158902341717" y2="267.15253337939646"/>
    <line class="link" targetId="18" sourceId="16" x1="443.5427299798199" y1="503.89307813661253" x2="358.9590650240819" y2="274.26489770873417"/>
    <line class="link" targetId="19" sourceId="10" x1="309.5884855697734" y1="405.02030757667166" x2="299.7830191573516" y2="349.3595295161185"/>
    <line class="link" targetId="1" sourceId="10" x1="290.1158902341717" y1="267.15253337939646" x2="299.7830191573516" y2="349.3595295161185"/>
    <line class="link" targetId="1" sourceId="3" x1="290.1158902341717" y1="267.15253337939646" x2="252.4510341766316" y2="382.5957242642618"/>
    <line class="link" targetId="20" sourceId="10" x1="319.63816608089263" y1="467.8809623713814" x2="299.7830191573516" y2="349.3595295161185"/>
    <line class="link" targetId="21" sourceId="17" x1="384.73626624649046" y1="479.90191720373537" x2="360.4840178014405" y2="427.890461429713"/>
    <line class="link" targetId="22" sourceId="17" x1="253.97978789143156" y1="317.9634907635788" x2="360.4840178014405" y2="427.890461429713"/>
    <line class="link" targetId="23" sourceId="10" x1="297.98321640071487" y1="531.1411751129908" x2="299.7830191573516" y2="349.3595295161185"/>
    <line class="link" targetId="24" sourceId="1" x1="206.679703867217" y1="347.26110889334785" x2="290.1158902341717" y2="267.15253337939646"/>
    <line class="link" targetId="24" sourceId="10" x1="206.679703867217" y1="347.26110889334785" x2="299.7830191573516" y2="349.3595295161185"/>
    <line class="link" targetId="25" sourceId="10" x1="360.24801953456335" y1="533.9038777994303" x2="299.7830191573516" y2="349.3595295161185"/>
    <line class="link" targetId="26" sourceId="10" x1="204.5225550636175" y1="494.33565973524514" x2="299.7830191573516" y2="349.3595295161185"/>
    <line class="link" targetId="27" sourceId="10" x1="267.13400221457346" y1="440.5470911127215" x2="299.7830191573516" y2="349.3595295161185"/>
    <line class="link" targetId="28" sourceId="1" x1="226.21926469550232" y1="270.3952820753657" x2="290.1158902341717" y2="267.15253337939646"/>
    <line class="link" targetId="29" sourceId="1" x1="114.62590064061743" y1="382.44473914605743" x2="290.1158902341717" y2="267.15253337939646"/>
    <line class="link" targetId="29" sourceId="10" x1="114.62590064061743" y1="382.44473914605743" x2="299.7830191573516" y2="349.3595295161185"/>
    <line class="link" targetId="30" sourceId="1" x1="86.76275647261215" y1="301.67505319112706" x2="290.1158902341717" y2="267.15253337939646"/>
    <line class="link" targetId="31" sourceId="10" x1="254.53532142875986" y1="492.0328033823063" x2="299.7830191573516" y2="349.3595295161185"/>
    <line class="link" targetId="32" sourceId="10" x1="212.22274557759832" y1="433.5533940554435" x2="299.7830191573516" y2="349.3595295161185"/>
    <line class="link" targetId="2" sourceId="0" x1="377.8561794857339" y1="170.8997801815489" x2="326.93867637583355" y2="146.28059578818258"/>
    <line class="link" targetId="33" sourceId="10" x1="106.45878409140181" y1="444.29300386425155" x2="299.7830191573516" y2="349.3595295161185"/>
    <line class="link" targetId="34" sourceId="1" x1="179.16826460930398" y1="299.80674522993115" x2="290.1158902341717" y2="267.15253337939646"/>
    <line class="link" targetId="34" sourceId="4" x1="179.16826460930398" y1="299.80674522993115" x2="440.21247465821716" y2="379.5411589262891"/>
    <line class="link" targetId="34" sourceId="12" x1="179.16826460930398" y1="299.80674522993115" x2="458.9706854110776" y2="323.8782919657157"/>
    <line class="link" targetId="9" sourceId="1" x1="171.89825010355284" y1="239.06638952213888" x2="290.1158902341717" y2="267.15253337939646"/>
    <line class="link" targetId="9" sourceId="8" x1="171.89825010355284" y1="239.06638952213888" x2="399.71955825891655" y2="235.15878146581298"/>
    <line class="link" targetId="35" sourceId="1" x1="232.48065768460793" y1="216.1501217744717" x2="290.1158902341717" y2="267.15253337939646"/>
    <line class="link" targetId="35" sourceId="10" x1="232.48065768460793" y1="216.1501217744717" x2="299.7830191573516" y2="349.3595295161185"/>
    <line class="link" targetId="36" sourceId="3" x1="402.0060247062578" y1="103.78796883591454" x2="252.4510341766316" y2="382.5957242642618"/>
    <line class="link" targetId="37" sourceId="10" x1="171.9159062448501" y1="393.3023645760589" x2="299.7830191573516" y2="349.3595295161185"/>
    <line class="link" targetId="38" sourceId="4" x1="481.27967899329497" y1="425.36267298454607" x2="440.21247465821716" y2="379.5411589262891"/>
    <line class="link" targetId="39" sourceId="1" x1="149.64800580062197" y1="160.8548159506702" x2="290.1158902341717" y2="267.15253337939646"/>
    <line class="link" targetId="40" sourceId="35" x1="422.4182136809636" y1="435.09358179993853" x2="232.48065768460793" y2="216.1501217744717"/>
    <line class="link" targetId="40" sourceId="11" x1="422.4182136809636" y1="435.09358179993853" x2="520.57182897851" y2="317.7999595280859"/>
    <line class="link" targetId="41" sourceId="1" x1="196.19579235793753" y1="118.04936958517294" x2="290.1158902341717" y2="267.15253337939646"/>
    <line class="link" targetId="42" sourceId="1" x1="247.1613813052715" y1="163.5472896940716" x2="290.1158902341717" y2="267.15253337939646"/>
    <line class="link" targetId="42" sourceId="10" x1="247.1613813052715" y1="163.5472896940716" x2="299.7830191573516" y2="349.3595295161185"/>
    <line class="link" targetId="43" sourceId="1" x1="276.3659134231932" y1="116.63170764923203" x2="290.1158902341717" y2="267.15253337939646"/>
    <line class="link" targetId="43" sourceId="30" x1="276.3659134231932" y1="116.63170764923203" x2="86.76275647261215" y2="301.67505319112706"/>
  </g>
  <g class="nodes">
    <g id="0"
        onmouseover="mo(this)" onmouseout="mleave(this)">
      <circle class="node" r="22.3" cx="326.93867637583355" cy="146.28059578818258" fill="#3182BD"/>
      <a class="bubble" href="https://lod-cloud.net/dataset/openmobilenetwork">
          <text x="326.93867637583355" y="146.28059578818258">OpenMo...</text>
      </a>
    </g>
    <g id="1"
        onmouseover="mo(this)" onmouseout="mleave(this)">
      <circle class="node" r="25.0" cx="290.1158902341717" cy="267.15253337939646" fill="#3182BD"/>
      <a class="bubble" href="https://lod-cloud.net/dataset/dbpedia">
          <text x="290.1158902341717" y="267.15253337939646">DBpedia</text>
      </a>
    </g>
    <g id="2"
        onmouseover="mo(this)" onmouseout="mleave(this)">
      <circle class="node" r="19.2" cx="377.8561794857339" cy="170.8997801815489" fill="#3182BD"/>
      <a class="bubble" href="https://lod-cloud.net/dataset/linkedcrowdsourceddata">
          <text x="377.8561794857339" y="170.8997801815489">Linked...</text>
      </a>
    </g>
    <g id="3"
        onmouseover="mo(this)" onmouseout="mleave(this)">
      <circle class="node" r="24.5" cx="252.4510341766316" cy="382.5957242642618" fill="#3182BD"/>
      <a class="bubble" href="https://lod-cloud.net/dataset/linkedgeodata">
          <text x="252.4510341766316" y="382.5957242642618">Linked...</text>
      </a>
    </g>
    <g id="4"
        onmouseover="mo(this)" onmouseout="mleave(this)">
      <circle class="node" r="21.4" cx="440.21247465821716" cy="379.5411589262891" fill="#3182BD"/>
      <a class="bubble" href="https://lod-cloud.net/dataset/ordnance-survey-linked-data">
          <text x="440.21247465821716" y="379.5411589262891">Ordnan...</text>
      </a>
    </g>
    <g id="5"
        onmouseover="mo(this)" onmouseout="mleave(this)">
      <circle class="node" r="21.4" cx="433.86431054222794" cy="153.9818049745667" fill="#3182BD"/>
      <a class="bubble" href="https://lod-cloud.net/dataset/pleiades">
          <text x="433.86431054222794" y="153.9818049745667">Pleiades</text>
      </a>
    </g>
    <g id="6"
        onmouseover="mo(this)" onmouseout="mleave(this)">
      <circle class="node" r="20.6" cx="485.202761622293" cy="182.30370925705068" fill="#3182BD"/>
      <a class="bubble" href="https://lod-cloud.net/dataset/grrt">
          <text x="485.202761622293" y="182.30370925705068">Accomm...</text>
      </a>
    </g>
    <g id="7"
        onmouseover="mo(this)" onmouseout="mleave(this)">
      <circle class="node" r="15.0" cx="471.170367962137" cy="243.1581884058903" fill="#3182BD"/>
      <a class="bubble" href="https://lod-cloud.net/dataset/linked-logainm">
          <text x="471.170367962137" y="243.1581884058903">Linked...</text>
      </a>
    </g>
    <g id="8"
        onmouseover="mo(this)" onmouseout="mleave(this)">
      <circle class="node" r="20.1" cx="399.71955825891655" cy="235.15878146581298" fill="#3182BD"/>
      <a class="bubble" href="https://lod-cloud.net/dataset/environmental-applications-reference-thesaurus">
          <text x="399.71955825891655" y="235.15878146581298">EARTh</text>
      </a>
    </g>
    <g id="9"
        onmouseover="mo(this)" onmouseout="mleave(this)">
      <circle class="node" r="20.6" cx="171.89825010355284" cy="239.06638952213888" fill="#3182BD"/>
      <a class="bubble" href="https://lod-cloud.net/dataset/thist">
          <text x="171.89825010355284" y="239.06638952213888">ThIST</text>
      </a>
    </g>
    <g id="10"
        onmouseover="mo(this)" onmouseout="mleave(this)">
      <circle class="node" r="23.0" cx="299.7830191573516" cy="349.3595295161185" fill="#3182BD"/>
      <a class="bubble" href="https://lod-cloud.net/dataset/geonames-semantic-web">
          <text x="299.7830191573516" y="349.3595295161185">GeoNam...</text>
      </a>
    </g>
    <g id="11"
        onmouseover="mo(this)" onmouseout="mleave(this)">
      <circle class="node" r="15.0" cx="520.57182897851" cy="317.7999595280859" fill="#3182BD"/>
      <a class="bubble" href="https://lod-cloud.net/dataset/taiwan-geographic-names">
          <text x="520.57182897851" y="317.7999595280859">Taiwan...</text>
      </a>
    </g>
    <g id="12"
        onmouseover="mo(this)" onmouseout="mleave(this)">
      <circle class="node" r="19.2" cx="458.9706854110776" cy="323.8782919657157" fill="#3182BD"/>
      <a class="bubble" href="https://lod-cloud.net/dataset/telegraphis">
          <text x="458.9706854110776" y="323.8782919657157">Telegr...</text>
      </a>
    </g>
    <g id="13"
        onmouseover="mo(this)" onmouseout="mleave(this)">
      <circle class="node" r="22.7" cx="383.2625880886984" cy="375.0075438071807" fill="#3182BD"/>
      <a class="bubble" href="https://lod-cloud.net/dataset/geowordnet">
          <text x="383.2625880886984" y="375.0075438071807">GeoWor...</text>
      </a>
    </g>
    <g id="14"
        onmouseover="mo(this)" onmouseout="mleave(this)">
      <circle class="node" r="19.9" cx="400.64009151649526" cy="320.1917593047487" fill="#3182BD"/>
      <a class="bubble" href="https://lod-cloud.net/dataset/los_metar">
          <text x="400.64009151649526" y="320.1917593047487">Weathe...</text>
      </a>
    </g>
    <g id="15"
        onmouseover="mo(this)" onmouseout="mleave(this)">
      <circle class="node" r="19.2" cx="347.2486941176126" cy="331.9413677369277" fill="#3182BD"/>
      <a class="bubble" href="https://lod-cloud.net/dataset/data-incubator-smcjournals">
          <text x="347.2486941176126" y="331.9413677369277">Scotti...</text>
      </a>
    </g>
    <g id="16"
        onmouseover="mo(this)" onmouseout="mleave(this)">
      <circle class="node" r="20.5" cx="358.9590650240819" cy="274.26489770873417" fill="#3182BD"/>
      <a class="bubble" href="https://lod-cloud.net/dataset/nuts-geovocab">
          <text x="358.9590650240819" y="274.26489770873417">NUTS (...</text>
      </a>
    </g>
    <g id="17"
        onmouseover="mo(this)" onmouseout="mleave(this)">
      <circle class="node" r="22.4" cx="360.4840178014405" cy="427.890461429713" fill="#3182BD"/>
      <a class="bubble" href="https://lod-cloud.net/dataset/oceandrilling-codices">
          <text x="360.4840178014405" y="427.890461429713">Ocean ...</text>
      </a>
    </g>
    <g id="18"
        onmouseover="mo(this)" onmouseout="mleave(this)">
      <circle class="node" r="20.1" cx="443.5427299798199" cy="503.89307813661253" fill="#3182BD"/>
      <a class="bubble" href="https://lod-cloud.net/dataset/eumida-linked-data">
          <text x="443.5427299798199" y="503.89307813661253">EUMIDA...</text>
      </a>
    </g>
    <g id="19"
        onmouseover="mo(this)" onmouseout="mleave(this)">
      <circle class="node" r="15.0" cx="309.5884855697734" cy="405.02030757667166" fill="#3182BD"/>
      <a class="bubble" href="https://lod-cloud.net/dataset/greek-administrative-geography">
          <text x="309.5884855697734" y="405.02030757667166">greek-...</text>
      </a>
    </g>
    <g id="20"
        onmouseover="mo(this)" onmouseout="mleave(this)">
      <circle class="node" r="21.7" cx="319.63816608089263" cy="467.8809623713814" fill="#3182BD"/>
      <a class="bubble" href="https://lod-cloud.net/dataset/riese">
          <text x="319.63816608089263" y="467.8809623713814">RDFizi...</text>
      </a>
    </g>
    <g id="21"
        onmouseover="mo(this)" onmouseout="mleave(this)">
      <circle class="node" r="22.4" cx="384.73626624649046" cy="479.90191720373537" fill="#3182BD"/>
      <a class="bubble" href="https://lod-cloud.net/dataset/oceandrilling-forams">
          <text x="384.73626624649046" y="479.90191720373537">Ocean ...</text>
      </a>
    </g>
    <g id="22"
        onmouseover="mo(this)" onmouseout="mleave(this)">
      <circle class="node" r="22.4" cx="253.97978789143156" cy="317.9634907635788" fill="#3182BD"/>
      <a class="bubble" href="https://lod-cloud.net/dataset/oceandrilling-janusamp">
          <text x="253.97978789143156" y="317.9634907635788">Ocean ...</text>
      </a>
    </g>
    <g id="23"
        onmouseover="mo(this)" onmouseout="mleave(this)">
      <circle class="node" r="20.2" cx="297.98321640071487" cy="531.1411751129908" fill="#3182BD"/>
      <a class="bubble" href="https://lod-cloud.net/dataset/grrp">
          <text x="297.98321640071487" y="531.1411751129908">Accomm...</text>
      </a>
    </g>
    <g id="24"
        onmouseover="mo(this)" onmouseout="mleave(this)">
      <circle class="node" r="22.3" cx="206.679703867217" cy="347.26110889334785" fill="#3182BD"/>
      <a class="bubble" href="https://lod-cloud.net/dataset/geolinkeddata">
          <text x="206.679703867217" y="347.26110889334785">GeoLin...</text>
      </a>
    </g>
    <g id="25"
        onmouseover="mo(this)" onmouseout="mleave(this)">
      <circle class="node" r="15.0" cx="360.24801953456335" cy="533.9038777994303" fill="#3182BD"/>
      <a class="bubble" href="https://lod-cloud.net/dataset/knoesis-linked-sensor-data">
          <text x="360.24801953456335" y="533.9038777994303">Linked...</text>
      </a>
    </g>
    <g id="26"
        onmouseover="mo(this)" onmouseout="mleave(this)">
      <circle class="node" r="15.0" cx="204.5225550636175" cy="494.33565973524514" fill="#3182BD"/>
      <a class="bubble" href="https://lod-cloud.net/dataset/eventseer">
          <text x="204.5225550636175" y="494.33565973524514">Eventseer</text>
      </a>
    </g>
    <g id="27"
        onmouseover="mo(this)" onmouseout="mleave(this)">
      <circle class="node" r="15.0" cx="267.13400221457346" cy="440.5470911127215" fill="#3182BD"/>
      <a class="bubble" href="https://lod-cloud.net/dataset/statusnet-coreyavis-com">
          <text x="267.13400221457346" y="440.5470911127215">status...</text>
      </a>
    </g>
    <g id="28"
        onmouseover="mo(this)" onmouseout="mleave(this)">
      <circle class="node" r="19.6" cx="226.21926469550232" cy="270.3952820753657" fill="#3182BD"/>
      <a class="bubble" href="https://lod-cloud.net/dataset/geological-survey-of-austria-thesaurus">
          <text x="226.21926469550232" y="270.3952820753657">Geolog...</text>
      </a>
    </g>
    <g id="29"
        onmouseover="mo(this)" onmouseout="mleave(this)">
      <circle class="node" r="23.5" cx="114.62590064061743" cy="382.44473914605743" fill="#3182BD"/>
      <a class="bubble" href="https://lod-cloud.net/dataset/near">
          <text x="114.62590064061743" y="382.44473914605743">Near</text>
      </a>
    </g>
    <g id="30"
        onmouseover="mo(this)" onmouseout="mleave(this)">
      <circle class="node" r="19.4" cx="86.76275647261215" cy="301.67505319112706" fill="#3182BD"/>
      <a class="bubble" href="https://lod-cloud.net/dataset/fao-geopolitical-ontology">
          <text x="86.76275647261215" y="301.67505319112706">FAO ge...</text>
      </a>
    </g>
    <g id="31"
        onmouseover="mo(this)" onmouseout="mleave(this)">
      <circle class="node" r="15.0" cx="254.53532142875986" cy="492.0328033823063" fill="#3182BD"/>
      <a class="bubble" href="https://lod-cloud.net/dataset/statusnet-hii-co-il">
          <text x="254.53532142875986" y="492.0328033823063">status...</text>
      </a>
    </g>
    <g id="32"
        onmouseover="mo(this)" onmouseout="mleave(this)">
      <circle class="node" r="15.0" cx="212.22274557759832" cy="433.5533940554435" fill="#3182BD"/>
      <a class="bubble" href="https://lod-cloud.net/dataset/statusnet-spraci-org">
          <text x="212.22274557759832" y="433.5533940554435">status...</text>
      </a>
    </g>
    <g id="33"
        onmouseover="mo(this)" onmouseout="mleave(this)">
      <circle class="node" r="15.0" cx="106.45878409140181" cy="444.29300386425155" fill="#3182BD"/>
      <a class="bubble" href="https://lod-cloud.net/dataset/statusnet-ldn-fai-net">
          <text x="106.45878409140181" y="444.29300386425155">status...</text>
      </a>
    </g>
    <g id="34"
        onmouseover="mo(this)" onmouseout="mleave(this)">
      <circle class="node" r="22.7" cx="179.16826460930398" cy="299.80674522993115" fill="#3182BD"/>
      <a class="bubble" href="https://lod-cloud.net/dataset/yahoo_geoplanet">
          <text x="179.16826460930398" y="299.80674522993115">Yahoo ...</text>
      </a>
    </g>
    <g id="35"
        onmouseover="mo(this)" onmouseout="mleave(this)">
      <circle class="node" r="22.4" cx="232.48065768460793" cy="216.1501217744717" fill="#3182BD"/>
      <a class="bubble" href="https://lod-cloud.net/dataset/linked-open-data-of-ecology">
          <text x="232.48065768460793" y="216.1501217744717">Linked...</text>
      </a>
    </g>
    <g id="36"
        onmouseover="mo(this)" onmouseout="mleave(this)">
      <circle class="node" r="20.1" cx="402.0060247062578" cy="103.78796883591454" fill="#3182BD"/>
      <a class="bubble" href="https://lod-cloud.net/dataset/osm-semantic-network">
          <text x="402.0060247062578" y="103.78796883591454">OSM Se...</text>
      </a>
    </g>
    <g id="37"
        onmouseover="mo(this)" onmouseout="mleave(this)">
      <circle class="node" r="18.9" cx="171.9159062448501" cy="393.3023645760589" fill="#3182BD"/>
      <a class="bubble" href="https://lod-cloud.net/dataset/norwegian-geo-divisions">
          <text x="171.9159062448501" y="393.3023645760589">Norweg...</text>
      </a>
    </g>
    <g id="38"
        onmouseover="mo(this)" onmouseout="mleave(this)">
      <circle class="node" r="22.4" cx="481.27967899329497" cy="425.36267298454607" fill="#3182BD"/>
      <a class="bubble" href="https://lod-cloud.net/dataset/uk-postcodes">
          <text x="481.27967899329497" y="425.36267298454607">UK Pos...</text>
      </a>
    </g>
    <g id="39"
        onmouseover="mo(this)" onmouseout="mleave(this)">
      <circle class="node" r="17.6" cx="149.64800580062197" cy="160.8548159506702" fill="#3182BD"/>
      <a class="bubble" href="https://lod-cloud.net/dataset/the-view-from">
          <text x="149.64800580062197" y="160.8548159506702">The Vi...</text>
      </a>
    </g>
    <g id="40"
        onmouseover="mo(this)" onmouseout="mleave(this)">
      <circle class="node" r="15.0" cx="422.4182136809636" cy="435.09358179993853" fill="#3182BD"/>
      <a class="bubble" href="https://lod-cloud.net/dataset/crowdsourcing-fb">
          <text x="422.4182136809636" y="435.09358179993853">crowds...</text>
      </a>
    </g>
    <g id="41"
        onmouseover="mo(this)" onmouseout="mleave(this)">
      <circle class="node" r="20.7" cx="196.19579235793753" cy="118.04936958517294" fill="#3182BD"/>
      <a class="bubble" href="https://lod-cloud.net/dataset/fishes-of-texas">
          <text x="196.19579235793753" y="118.04936958517294">Fishes...</text>
      </a>
    </g>
    <g id="42"
        onmouseover="mo(this)" onmouseout="mleave(this)">
      <circle class="node" r="20.9" cx="247.1613813052715" cy="163.5472896940716" fill="#3182BD"/>
      <a class="bubble" href="https://lod-cloud.net/dataset/lobid-organisations">
          <text x="247.1613813052715" y="163.5472896940716">lobid-...</text>
      </a>
    </g>
    <g id="43"
        onmouseover="mo(this)" onmouseout="mleave(this)">
      <circle class="node" r="15.0" cx="276.3659134231932" cy="116.63170764923203" fill="#3182BD"/>
      <a class="bubble" href="https://lod-cloud.net/dataset/eea-vocabularies">
          <text x="276.3659134231932" y="116.63170764923203">EEA Vo...</text>
      </a>
    </g>
    <g transform="translate(20,617) scale(0.9453781512605043)">
      <text style="font-family: Verdana, Arial;">The Geography Linked Open Data Cloud from lod-cloud.net</text>
    </g>
      <g transform="translate(480, 600)">
<svg
   xmlns:dc="http://purl.org/dc/elements/1.1/"
   xmlns:cc="http://web.resource.org/cc/"
   xmlns:rdf="http://www.w3.org/1999/02/22-rdf-syntax-ns#"
   xmlns:svg="http://www.w3.org/2000/svg"
   xmlns="http://www.w3.org/2000/svg"
   xmlns:sodipodi="http://sodipodi.sourceforge.net/DTD/sodipodi-0.dtd"
   xmlns:inkscape="http://www.inkscape.org/namespaces/inkscape"
   width="120"
   height="42"
   id="svg2759"
   sodipodi:version="0.32"
   inkscape:version="0.45+devel"
   version="1.0"
   sodipodi:docname="by.svg"
   inkscape:output_extension="org.inkscape.output.svg.inkscape">
  <defs
     id="defs2761" />
  <sodipodi:namedview
     id="base"
     pagecolor="#ffffff"
     bordercolor="#8b8b8b"
     borderopacity="1"
     gridtolerance="10000"
     guidetolerance="10"
     objecttolerance="10"
     inkscape:pageopacity="0.0"
     inkscape:pageshadow="2"
     inkscape:zoom="1"
     inkscape:cx="179"
     inkscape:cy="89.569904"
     inkscape:document-units="px"
     inkscape:current-layer="layer1"
     width="120px"
     height="42px"
     inkscape:showpageshadow="false"
     inkscape:window-width="1198"
     inkscape:window-height="624"
     inkscape:window-x="396"
     inkscape:window-y="242" />
  <metadata
     id="metadata2764">
    <rdf:RDF>
      <cc:Work
         rdf:about="">
        <dc:format>image/svg+xml</dc:format>
        <dc:type
           rdf:resource="http://purl.org/dc/dcmitype/StillImage" />
      </cc:Work>
    </rdf:RDF>
  </metadata>
  <g
     inkscape:label="Layer 1"
     inkscape:groupmode="layer"
     id="layer1">
    <g
       transform="matrix(0.9937728,0,0,0.9936696,-177.69267,6.25128e-7)"
       id="g260"
       inkscape:export-filename="/mnt/hgfs/Bov/Documents/Work/2007/cc/identity/srr buttons/big/by.png"
       inkscape:export-xdpi="300.23013"
       inkscape:export-ydpi="300.23013">
	<path
   id="path3817_1_"
   nodetypes="ccccccc"
   d="M 181.96579,0.51074 L 296.02975,0.71338 C 297.6235,0.71338 299.04733,0.47705 299.04733,3.89404 L 298.90768,41.46093 L 179.08737,41.46093 L 179.08737,3.75439 C 179.08737,2.06934 179.25046,0.51074 181.96579,0.51074 z"
   style="fill:#aab2ab" />

	<path
   d="M 297.29636,0 L 181.06736,0 C 179.82078,0 178.80613,1.01416 178.80613,2.26074 L 178.80613,41.75732 C 178.80613,42.03906 179.03513,42.26757 179.31687,42.26757 L 299.04734,42.26757 C 299.32908,42.26757 299.55808,42.03905 299.55808,41.75732 L 299.55808,2.26074 C 299.55807,1.01416 298.54343,0 297.29636,0 z M 181.06735,1.02148 L 297.29635,1.02148 C 297.98043,1.02148 298.53658,1.57714 298.53658,2.26074 C 298.53658,2.26074 298.53658,18.20898 298.53658,29.71045 L 215.19234,29.71045 C 212.14742,35.21631 206.28121,38.95459 199.54879,38.95459 C 192.81344,38.95459 186.94869,35.21973 183.90524,29.71045 L 179.8276,29.71045 C 179.8276,18.20899 179.8276,2.26074 179.8276,2.26074 C 179.82761,1.57715 180.38376,1.02148 181.06735,1.02148 z"
   id="path263" />

	<g
   enable-background="new    "
   id="g265">
		<path
   d="M 253.07761,32.95605 C 253.39499,32.95605 253.68503,32.98437 253.94773,33.04003 C 254.20945,33.09569 254.43308,33.18749 254.62058,33.31542 C 254.8071,33.44237 254.95261,33.6123 255.05515,33.82323 C 255.15769,34.03514 255.20945,34.29589 255.20945,34.60741 C 255.20945,34.94335 255.13328,35.22264 254.97996,35.44628 C 254.82762,35.67089 254.60105,35.85351 254.30223,35.99706 C 254.71434,36.11522 255.02196,36.32226 255.22508,36.61815 C 255.4282,36.91404 255.52977,37.27049 255.52977,37.68749 C 255.52977,38.02343 255.46434,38.31444 255.33348,38.56054 C 255.20262,38.80566 255.02586,39.00683 254.80516,39.1621 C 254.58348,39.31835 254.33055,39.43358 254.04735,39.5078 C 253.76317,39.583 253.47215,39.6201 253.17235,39.6201 L 249.936,39.6201 L 249.936,32.95604 L 253.07761,32.95604 L 253.07761,32.95605 z M 252.89011,35.65137 C 253.15183,35.65137 253.36667,35.58887 253.53562,35.46485 C 253.70359,35.34083 253.78757,35.13965 253.78757,34.86036 C 253.78757,34.70509 253.75925,34.57716 253.70359,34.47852 C 253.64695,34.37891 253.57273,34.30176 253.47898,34.24512 C 253.38523,34.18946 253.27781,34.15039 253.15671,34.12891 C 253.03561,34.10743 252.90866,34.09668 252.77878,34.09668 L 251.40476,34.09668 L 251.40476,35.65137 L 252.89011,35.65137 z M 252.97604,38.47949 C 253.11959,38.47949 253.25631,38.46582 253.38717,38.4375 C 253.51803,38.40918 253.63326,38.3623 253.73385,38.29785 C 253.83346,38.23242 253.91256,38.14355 253.97213,38.03125 C 254.0317,37.91992 254.061,37.77637 254.061,37.60254 C 254.061,37.26074 253.96432,37.0166 253.77096,36.87012 C 253.5776,36.72461 253.32174,36.65137 253.00436,36.65137 L 251.40475,36.65137 L 251.40475,38.47949 L 252.97604,38.47949 z"
   id="path267"
   style="fill:#ffffff" />

		<path
   d="M 255.78854,32.95605 L 257.43209,32.95605 L 258.99264,35.58789 L 260.54342,32.95605 L 262.17721,32.95605 L 259.70358,37.0625 L 259.70358,39.62012 L 258.23483,39.62012 L 258.23483,37.02539 L 255.78854,32.95605 z"
   id="path269"
   style="fill:#ffffff" />

	</g>

	<g
   id="g5908_1_"
   transform="matrix(0.872921,0,0,0.872921,50.12536,143.2144)">
		
			<path
   id="path5906_1_"
   cx="296.35416"
   ry="22.939548"
   cy="264.3577"
   type="arc"
   rx="22.939548"
   d="M 186.90065,-141.46002 C 186.90623,-132.77923 179.87279,-125.73852 171.19257,-125.73291 C 162.51235,-125.72736 155.47051,-132.76025 155.46547,-141.44098 C 155.46547,-141.44714 155.46547,-141.45331 155.46547,-141.46002 C 155.46043,-150.14081 162.49333,-157.18152 171.17355,-157.18658 C 179.8549,-157.19213 186.89561,-150.15924 186.90065,-141.47845 C 186.90065,-141.4729 186.90065,-141.46619 186.90065,-141.46002 z"
   style="fill:#ffffff" />

		<g
   id="g5706_1_"
   transform="translate(-289.6157,99.0653)">
			<path
   id="path5708_1_"
   d="M 473.57574,-253.32751 C 477.06115,-249.8421 478.80413,-245.5736 478.80413,-240.52532 C 478.80413,-235.47594 477.09136,-231.25329 473.66582,-227.85741 C 470.03051,-224.28081 465.734,-222.49309 460.77635,-222.49309 C 455.87858,-222.49309 451.65648,-224.26628 448.11122,-227.81261 C 444.56541,-231.35845 442.79277,-235.59563 442.79277,-240.52532 C 442.79277,-245.45391 444.56541,-249.7213 448.11122,-253.32751 C 451.56642,-256.81402 455.7885,-258.557 460.77635,-258.557 C 465.82465,-258.55701 470.09039,-256.81403 473.57574,-253.32751 z M 450.45776,-250.98267 C 447.51104,-248.00629 446.03823,-244.51978 446.03823,-240.52033 C 446.03823,-236.52198 447.49651,-233.06507 450.41247,-230.14966 C 453.32897,-227.23316 456.80096,-225.77545 460.82952,-225.77545 C 464.85808,-225.77545 468.35967,-227.24768 471.33605,-230.19385 C 474.16198,-232.9303 475.57549,-236.37091 475.57549,-240.52033 C 475.57549,-244.63837 474.13903,-248.13379 471.26781,-251.00501 C 468.39714,-253.87568 464.9179,-255.31159 460.82952,-255.31159 C 456.74112,-255.31158 453.28314,-253.86841 450.45776,-250.98267 z M 458.21225,-242.27948 C 457.76196,-243.26117 457.08795,-243.75232 456.18903,-243.75232 C 454.59986,-243.75232 453.80558,-242.68225 453.80558,-240.54321 C 453.80558,-238.40368 454.59986,-237.33471 456.18903,-237.33471 C 457.23841,-237.33471 457.98795,-237.85546 458.43769,-238.89922 L 460.64045,-237.72625 C 459.59052,-235.86077 458.01536,-234.92779 455.91496,-234.92779 C 454.29506,-234.92779 452.99733,-235.42449 452.0229,-236.4168 C 451.0468,-237.41021 450.56016,-238.77953 450.56016,-240.52532 C 450.56016,-242.24035 451.06245,-243.60186 452.06764,-244.61034 C 453.07283,-245.61888 454.32466,-246.12291 455.82545,-246.12291 C 458.04557,-246.12291 459.63526,-245.24803 460.59626,-243.50005 L 458.21225,-242.27948 z M 468.57562,-242.27948 C 468.12475,-243.26117 467.46417,-243.75232 466.5932,-243.75232 C 464.97217,-243.75232 464.16107,-242.68225 464.16107,-240.54321 C 464.16107,-238.40368 464.97217,-237.33471 466.5932,-237.33471 C 467.64429,-237.33471 468.38037,-237.85546 468.80048,-238.89922 L 471.05249,-237.72625 C 470.00421,-235.86077 468.43127,-234.92779 466.33478,-234.92779 C 464.7171,-234.92779 463.42218,-235.42449 462.44831,-236.4168 C 461.47614,-237.41021 460.98896,-238.77953 460.98896,-240.52532 C 460.98896,-242.24035 461.48341,-243.60186 462.47181,-244.61034 C 463.45966,-245.61888 464.71711,-246.12291 466.24531,-246.12291 C 468.4615,-246.12291 470.04896,-245.24803 471.0066,-243.50005 L 468.57562,-242.27948 z" />

		</g>

	</g>

	<g
   id="g275">
		<circle
   cx="255.55124"
   cy="15.31348"
   r="10.80664"
   id="circle277"
   sodipodi:cx="255.55124"
   sodipodi:cy="15.31348"
   sodipodi:rx="10.80664"
   sodipodi:ry="10.80664"
   style="fill:#ffffff" />

		<g
   id="g279">
			<path
   d="M 258.67819,12.18701 C 258.67819,11.77051 258.3403,11.4331 257.92526,11.4331 L 253.15182,11.4331 C 252.73678,11.4331 252.39889,11.7705 252.39889,12.18701 L 252.39889,16.95996 L 253.72994,16.95996 L 253.72994,22.61182 L 257.34713,22.61182 L 257.34713,16.95996 L 258.67818,16.95996 L 258.67818,12.18701 L 258.67819,12.18701 z"
   id="path281" />

			<circle
   cx="255.53854"
   cy="9.1723604"
   r="1.63281"
   id="circle283"
   sodipodi:cx="255.53854"
   sodipodi:cy="9.1723604"
   sodipodi:rx="1.63281"
   sodipodi:ry="1.63281" />

		</g>

		<path
   clip-rule="evenodd"
   d="M 255.5239,3.40723 C 252.29148,3.40723 249.55515,4.53516 247.31589,6.79102 C 245.01804,9.12452 243.8696,11.88672 243.8696,15.07569 C 243.8696,18.26466 245.01804,21.00733 247.31589,23.30225 C 249.61374,25.59668 252.35007,26.74414 255.5239,26.74414 C 258.73679,26.74414 261.52195,25.58789 263.87742,23.27295 C 266.09715,21.07568 267.2075,18.34326 267.2075,15.07568 C 267.2075,11.8081 266.07762,9.04687 263.8198,6.79101 C 261.56003,4.53516 258.79538,3.40723 255.5239,3.40723 z M 255.55319,5.50684 C 258.20163,5.50684 260.45065,6.44092 262.30026,8.30811 C 264.1694,10.15528 265.10397,12.41114 265.10397,15.07569 C 265.10397,17.75928 264.18893,19.98633 262.35885,21.75587 C 260.43014,23.66212 258.16256,24.61476 255.55319,24.61476 C 252.94284,24.61476 250.69381,23.67189 248.80612,21.78517 C 246.91647,19.89845 245.97311,17.66212 245.97311,15.0757 C 245.97311,12.48879 246.92721,10.23341 248.83541,8.30812 C 250.6655,6.44092 252.90475,5.50684 255.55319,5.50684 z"
   id="path285"
   style="fill-rule:evenodd" />

	</g>

</g>
  </g>
</svg>

      </g>
  </g>
</svg>
