<svg
    xmlns="http://www.w3.org/2000/svg" width="600" height="642">
  <script xmlns:xlink="http://www.w3.org/1999/xlink" xlink:href="http://lod-cloud.net/versions/2017-08-22/both.js"/>
  <style>
    circle { 
        stroke: #333;
        stroke-width: 1.5px;
        fill-opacity: 0.8; 
    } 
    .bubble text {
        text-anchor: middle;
        font-size: .5em;
    }
    .circle-active circle { 
        stroke: #e80000;  
        stroke-width: 3px; 
    } 
    .link { 
        stroke: #e0270b;  
        stroke: #555;  
        stroke-opacity: 0.7;  
        stroke-width: 1px;  
        stroke-dasharray:none;
    } 
    .link-activeIncoming {  
        stroke-opacity: 1; 
        stroke-width: 10;  
        stroke: #be1b38; 
    } 
    .link-activeOutgoung {  
        stroke-opacity: 1;  
        stroke-width: 10; 
        stroke: #1AC21D;  
    } 
    .link-activeBoth {  
        stroke-opacity: 1;  
        stroke: #1AC21D;  
        stroke-width: 10;  
        stroke-dasharray:5,10,5;}
  </style>
  <g transform="scale(0.5)">
    <g id="legend">
      <text transform="translate(30,30)" style="font-family:Verdana, Arial;font-size:200%;text-decoration:underline;">Legend</text>
      <rect width="310" height="35" style="fill:#63b3de" transform="translate(30,45)"/>
      <text transform="translate(35,72)" style="font-family:Verdana, Arial;font-size:200%">Music</text>
      <rect width="310" height="35" style="fill:#31A354" transform="translate(30,85)"/>
      <text transform="translate(35,112)" style="font-family:Verdana, Arial;font-size:200%">Other Media</text>
    </g>
  </g>
  <g class="links">
    <line class="link" targetId="0" sourceId="1" x1="129.4953755829448" y1="490.0390580149051" x2="300.0000021406978" y2="374.73252239969327"/>
    <line class="link" targetId="0" sourceId="2" x1="129.4953755829448" y1="490.0390580149051" x2="211.97822221571636" y2="474.88186984024037"/>
    <line class="link" targetId="3" sourceId="4" x1="390.48384401107296" y1="90.3246617357432" x2="378.737688410834" y2="457.58471285309577"/>
    <line class="link" targetId="3" sourceId="1" x1="390.48384401107296" y1="90.3246617357432" x2="300.0000021406978" y2="374.73252239969327"/>
    <line class="link" targetId="3" sourceId="5" x1="390.48384401107296" y1="90.3246617357432" x2="348.9619339314997" y2="266.2749182481816"/>
    <line class="link" targetId="6" sourceId="7" x1="460.50138285235647" y1="124.7868441964992" x2="314.96992626305416" y2="65.21801809314354"/>
    <line class="link" targetId="6" sourceId="1" x1="460.50138285235647" y1="124.7868441964992" x2="300.0000021406978" y2="374.73252239969327"/>
    <line class="link" targetId="8" sourceId="4" x1="483.91476474430675" y1="181.28262550133817" x2="378.737688410834" y2="457.58471285309577"/>
    <line class="link" targetId="8" sourceId="1" x1="483.91476474430675" y1="181.28262550133817" x2="300.0000021406978" y2="374.73252239969327"/>
    <line class="link" targetId="8" sourceId="2" x1="483.91476474430675" y1="181.28262550133817" x2="211.97822221571636" y2="474.88186984024037"/>
    <line class="link" targetId="9" sourceId="1" x1="110.71682425409912" y1="402.4979745113274" x2="300.0000021406978" y2="374.73252239969327"/>
    <line class="link" targetId="10" sourceId="4" x1="507.22120856072036" y1="249.88378300062683" x2="378.737688410834" y2="457.58471285309577"/>
    <line class="link" targetId="10" sourceId="1" x1="507.22120856072036" y1="249.88378300062683" x2="300.0000021406978" y2="374.73252239969327"/>
    <line class="link" targetId="11" sourceId="12" x1="256.97964587741694" y1="243.96117806697566" x2="302.3635100640527" y2="193.9286432183443"/>
    <line class="link" targetId="13" sourceId="4" x1="522.6387056577375" y1="318.1375168138495" x2="378.737688410834" y2="457.58471285309577"/>
    <line class="link" targetId="13" sourceId="1" x1="522.6387056577375" y1="318.1375168138495" x2="300.0000021406978" y2="374.73252239969327"/>
    <line class="link" targetId="14" sourceId="13" x1="540.0461964240322" y1="370.35227157063844" x2="522.6387056577375" y2="318.1375168138495"/>
    <line class="link" targetId="14" sourceId="1" x1="540.0461964240322" y1="370.35227157063844" x2="300.0000021406978" y2="374.73252239969327"/>
    <line class="link" targetId="15" sourceId="1" x1="492.14451712064886" y1="428.22811929782927" x2="300.0000021406978" y2="374.73252239969327"/>
    <line class="link" targetId="15" sourceId="9" x1="492.14451712064886" y1="428.22811929782927" x2="110.71682425409912" y2="402.4979745113274"/>
    <line class="link" targetId="16" sourceId="1" x1="462.2694836911618" y1="479.967518979808" x2="300.0000021406978" y2="374.73252239969327"/>
    <line class="link" targetId="5" sourceId="4" x1="348.9619339314997" y1="266.2749182481816" x2="378.737688410834" y2="457.58471285309577"/>
    <line class="link" targetId="5" sourceId="2" x1="348.9619339314997" y1="266.2749182481816" x2="211.97822221571636" y2="474.88186984024037"/>
    <line class="link" targetId="2" sourceId="1" x1="211.97822221571636" y1="474.88186984024037" x2="300.0000021406978" y2="374.73252239969327"/>
    <line class="link" targetId="4" sourceId="1" x1="378.737688410834" y1="457.58471285309577" x2="300.0000021406978" y2="374.73252239969327"/>
    <line class="link" targetId="17" sourceId="4" x1="339.7368495491483" y1="531.817552315885" x2="378.737688410834" y2="457.58471285309577"/>
    <line class="link" targetId="17" sourceId="1" x1="339.7368495491483" y1="531.817552315885" x2="300.0000021406978" y2="374.73252239969327"/>
    <line class="link" targetId="18" sourceId="1" x1="282.25286518550166" y1="539.7667362654645" x2="300.0000021406978" y2="374.73252239969327"/>
    <line class="link" targetId="19" sourceId="1" x1="225.28106850075835" y1="537.0772667400598" x2="300.0000021406978" y2="374.73252239969327"/>
    <line class="link" targetId="19" sourceId="2" x1="225.28106850075835" y1="537.0772667400598" x2="211.97822221571636" y2="474.88186984024037"/>
    <line class="link" targetId="19" sourceId="9" x1="225.28106850075835" y1="537.0772667400598" x2="110.71682425409912" y2="402.4979745113274"/>
    <line class="link" targetId="1" sourceId="2" x1="300.0000021406978" y1="374.73252239969327" x2="211.97822221571636" y2="474.88186984024037"/>
    <line class="link" targetId="1" sourceId="0" x1="300.0000021406978" y1="374.73252239969327" x2="129.4953755829448" y2="490.0390580149051"/>
    <line class="link" targetId="1" sourceId="9" x1="300.0000021406978" y1="374.73252239969327" x2="110.71682425409912" y2="402.4979745113274"/>
    <line class="link" targetId="20" sourceId="12" x1="247.772273169774" y1="361.6430733961978" x2="302.3635100640527" y2="193.9286432183443"/>
    <line class="link" targetId="21" sourceId="1" x1="62.2288536541279" y1="372.4476879715056" x2="300.0000021406978" y2="374.73252239969327"/>
    <line class="link" targetId="21" sourceId="0" x1="62.2288536541279" y1="372.4476879715056" x2="129.4953755829448" y2="490.0390580149051"/>
    <line class="link" targetId="22" sourceId="1" x1="54.97850448293809" y1="309.95778036243894" x2="300.0000021406978" y2="374.73252239969327"/>
    <line class="link" targetId="23" sourceId="4" x1="86.0735288064503" y1="263.92102524099516" x2="378.737688410834" y2="457.58471285309577"/>
    <line class="link" targetId="23" sourceId="10" x1="86.0735288064503" y1="263.92102524099516" x2="507.22120856072036" y2="249.88378300062683"/>
    <line class="link" targetId="23" sourceId="1" x1="86.0735288064503" y1="263.92102524099516" x2="300.0000021406978" y2="374.73252239969327"/>
    <line class="link" targetId="24" sourceId="1" x1="75.10796863686616" y1="206.17788773346737" x2="300.0000021406978" y2="374.73252239969327"/>
    <line class="link" targetId="25" sourceId="13" x1="115.52271466655014" y1="164.47315563539735" x2="522.6387056577375" y2="318.1375168138495"/>
    <line class="link" targetId="25" sourceId="1" x1="115.52271466655014" y1="164.47315563539735" x2="300.0000021406978" y2="374.73252239969327"/>
    <line class="link" targetId="26" sourceId="1" x1="146.8813143541738" y1="111.53974853642274" x2="300.0000021406978" y2="374.73252239969327"/>
    <line class="link" targetId="27" sourceId="1" x1="199.82873247185861" y1="81.43059263420818" x2="300.0000021406978" y2="374.73252239969327"/>
    <line class="link" targetId="28" sourceId="4" x1="259.49850579881564" y1="84.49918167387972" x2="378.737688410834" y2="457.58471285309577"/>
    <line class="link" targetId="28" sourceId="10" x1="259.49850579881564" y1="84.49918167387972" x2="507.22120856072036" y2="249.88378300062683"/>
    <line class="link" targetId="28" sourceId="1" x1="259.49850579881564" y1="84.49918167387972" x2="300.0000021406978" y2="374.73252239969327"/>
    <line class="link" targetId="7" sourceId="1" x1="314.96992626305416" y1="65.21801809314354" x2="300.0000021406978" y2="374.73252239969327"/>
  </g>
  <g class="nodes">
    <g id="0"
        onmouseover="mo(this)" onmouseout="mleave(this)">
      <circle class="node" r="21.8" cx="129.4953755829448" cy="490.0390580149051" fill="#31A354"/>
      <a class="bubble" href="https://lod-cloud.net/dataset/linkedmdb">
          <text x="129.4953755829448" y="490.0390580149051">Linked...</text>
      </a>
    </g>
    <g id="1"
        onmouseover="mo(this)" onmouseout="mleave(this)">
      <circle class="node" r="25.0" cx="300.0000021406978" cy="374.73252239969327" fill="#31A354"/>
      <a class="bubble" href="https://lod-cloud.net/dataset/dbpedia">
          <text x="300.0000021406978" y="374.73252239969327">DBpedia</text>
      </a>
    </g>
    <g id="2"
        onmouseover="mo(this)" onmouseout="mleave(this)">
      <circle class="node" r="22.6" cx="211.97822221571636" cy="474.88186984024037" fill="#63b3de"/>
      <a class="bubble" href="https://lod-cloud.net/dataset/dbtune-musicbrainz">
          <text x="211.97822221571636" y="474.88186984024037">DBTune...</text>
      </a>
    </g>
    <g id="3"
        onmouseover="mo(this)" onmouseout="mleave(this)">
      <circle class="node" r="23.6" cx="390.48384401107296" cy="90.3246617357432" fill="#63b3de"/>
      <a class="bubble" href="https://lod-cloud.net/dataset/rdfize-lastfm">
          <text x="390.48384401107296" y="90.3246617357432">Last.F...</text>
      </a>
    </g>
    <g id="4"
        onmouseover="mo(this)" onmouseout="mleave(this)">
      <circle class="node" r="22.3" cx="378.737688410834" cy="457.58471285309577" fill="#63b3de"/>
      <a class="bubble" href="https://lod-cloud.net/dataset/bbc-music">
          <text x="378.737688410834" y="457.58471285309577">BBC Music</text>
      </a>
    </g>
    <g id="5"
        onmouseover="mo(this)" onmouseout="mleave(this)">
      <circle class="node" r="23.4" cx="348.9619339314997" cy="266.2749182481816" fill="#63b3de"/>
      <a class="bubble" href="https://lod-cloud.net/dataset/dbtune-artists-last-fm">
          <text x="348.9619339314997" y="266.2749182481816">DBTune...</text>
      </a>
    </g>
    <g id="6"
        onmouseover="mo(this)" onmouseout="mleave(this)">
      <circle class="node" r="20.1" cx="460.50138285235647" cy="124.7868441964992" fill="#31A354"/>
      <a class="bubble" href="https://lod-cloud.net/dataset/pokepedia-fr">
          <text x="460.50138285235647" y="124.7868441964992">Poképé...</text>
      </a>
    </g>
    <g id="7"
        onmouseover="mo(this)" onmouseout="mleave(this)">
      <circle class="node" r="19.4" cx="314.96992626305416" cy="65.21801809314354" fill="#31A354"/>
      <a class="bubble" href="https://lod-cloud.net/dataset/data-incubator-pokedex">
          <text x="314.96992626305416" y="65.21801809314354">Pokede...</text>
      </a>
    </g>
    <g id="8"
        onmouseover="mo(this)" onmouseout="mleave(this)">
      <circle class="node" r="20.6" cx="483.91476474430675" cy="181.28262550133817" fill="#63b3de"/>
      <a class="bubble" href="https://lod-cloud.net/dataset/dbtune-classical">
          <text x="483.91476474430675" y="181.28262550133817">DBTune...</text>
      </a>
    </g>
    <g id="9"
        onmouseover="mo(this)" onmouseout="mleave(this)">
      <circle class="node" r="20.5" cx="110.71682425409912" cy="402.4979745113274" fill="#31A354"/>
      <a class="bubble" href="https://lod-cloud.net/dataset/nytimes-linked-open-data">
          <text x="110.71682425409912" y="402.4979745113274">New Yo...</text>
      </a>
    </g>
    <g id="10"
        onmouseover="mo(this)" onmouseout="mleave(this)">
      <circle class="node" r="23.3" cx="507.22120856072036" cy="249.88378300062683" fill="#63b3de"/>
      <a class="bubble" href="https://lod-cloud.net/dataset/data-incubator-discogs">
          <text x="507.22120856072036" y="249.88378300062683">Discog...</text>
      </a>
    </g>
    <g id="11"
        onmouseover="mo(this)" onmouseout="mleave(this)">
      <circle class="node" r="23.8" cx="256.97964587741694" cy="243.96117806697566" fill="#63b3de"/>
      <a class="bubble" href="https://lod-cloud.net/dataset/dbtune-audioscrobbler">
          <text x="256.97964587741694" y="243.96117806697566">DBTune...</text>
      </a>
    </g>
    <g id="12"
        onmouseover="mo(this)" onmouseout="mleave(this)">
      <circle class="node" r="22.8" cx="302.3635100640527" cy="193.9286432183443" fill="#63b3de"/>
      <a class="bubble" href="https://lod-cloud.net/dataset/zitgist-musicbrainz">
          <text x="302.3635100640527" y="193.9286432183443">MusicB...</text>
      </a>
    </g>
    <g id="13"
        onmouseover="mo(this)" onmouseout="mleave(this)">
      <circle class="node" r="22.8" cx="522.6387056577375" cy="318.1375168138495" fill="#31A354"/>
      <a class="bubble" href="https://lod-cloud.net/dataset/bbc-programmes">
          <text x="522.6387056577375" y="318.1375168138495">BBC Pr...</text>
      </a>
    </g>
    <g id="14"
        onmouseover="mo(this)" onmouseout="mleave(this)">
      <circle class="node" r="19.5" cx="540.0461964240322" cy="370.35227157063844" fill="#31A354"/>
      <a class="bubble" href="https://lod-cloud.net/dataset/eutc-productions">
          <text x="540.0461964240322" y="370.35227157063844">Edinbu...</text>
      </a>
    </g>
    <g id="15"
        onmouseover="mo(this)" onmouseout="mleave(this)">
      <circle class="node" r="20.5" cx="492.14451712064886" cy="428.22811929782927" fill="#31A354"/>
      <a class="bubble" href="https://lod-cloud.net/dataset/edublogs">
          <text x="492.14451712064886" y="428.22811929782927">Edublogs</text>
      </a>
    </g>
    <g id="16"
        onmouseover="mo(this)" onmouseout="mleave(this)">
      <circle class="node" r="20.4" cx="462.2694836911618" cy="479.967518979808" fill="#31A354"/>
      <a class="bubble" href="https://lod-cloud.net/dataset/dbtune-john-peel-sessions">
          <text x="462.2694836911618" y="479.967518979808">DBTune...</text>
      </a>
    </g>
    <g id="17"
        onmouseover="mo(this)" onmouseout="mleave(this)">
      <circle class="node" r="20.3" cx="339.7368495491483" cy="531.817552315885" fill="#63b3de"/>
      <a class="bubble" href="https://lod-cloud.net/dataset/surge-radio">
          <text x="339.7368495491483" y="531.817552315885">Surge ...</text>
      </a>
    </g>
    <g id="18"
        onmouseover="mo(this)" onmouseout="mleave(this)">
      <circle class="node" r="22.3" cx="282.25286518550166" cy="539.7667362654645" fill="#31A354"/>
      <a class="bubble" href="https://lod-cloud.net/dataset/chronicling-america">
          <text x="282.25286518550166" y="539.7667362654645">Chroni...</text>
      </a>
    </g>
    <g id="19"
        onmouseover="mo(this)" onmouseout="mleave(this)">
      <circle class="node" r="22.6" cx="225.28106850075835" cy="537.0772667400598" fill="#31A354"/>
      <a class="bubble" href="https://lod-cloud.net/dataset/event-media">
          <text x="225.28106850075835" y="537.0772667400598">EventM...</text>
      </a>
    </g>
    <g id="20"
        onmouseover="mo(this)" onmouseout="mleave(this)">
      <circle class="node" r="21.0" cx="247.772273169774" cy="361.6430733961978" fill="#63b3de"/>
      <a class="bubble" href="https://lod-cloud.net/dataset/jamendo-dbtune">
          <text x="247.772273169774" y="361.6430733961978">DBTune...</text>
      </a>
    </g>
    <g id="21"
        onmouseover="mo(this)" onmouseout="mleave(this)">
      <circle class="node" r="21.9" cx="62.2288536541279" cy="372.4476879715056" fill="#31A354"/>
      <a class="bubble" href="https://lod-cloud.net/dataset/dbtropes">
          <text x="62.2288536541279" y="372.4476879715056">DBTropes</text>
      </a>
    </g>
    <g id="22"
        onmouseover="mo(this)" onmouseout="mleave(this)">
      <circle class="node" r="21.0" cx="54.97850448293809" cy="309.95778036243894" fill="#31A354"/>
      <a class="bubble" href="https://lod-cloud.net/dataset/gemeenschappelijke-thesaurus-audiovisuele-archieven">
          <text x="54.97850448293809" y="309.95778036243894">Gemeen...</text>
      </a>
    </g>
    <g id="23"
        onmouseover="mo(this)" onmouseout="mleave(this)">
      <circle class="node" r="18.1" cx="86.0735288064503" cy="263.92102524099516" fill="#63b3de"/>
      <a class="bubble" href="https://lod-cloud.net/dataset/data-incubator-moseley">
          <text x="86.0735288064503" y="263.92102524099516">Mosele...</text>
      </a>
    </g>
    <g id="24"
        onmouseover="mo(this)" onmouseout="mleave(this)">
      <circle class="node" r="21.5" cx="75.10796863686616" cy="206.17788773346737" fill="#31A354"/>
      <a class="bubble" href="https://lod-cloud.net/dataset/bricklink">
          <text x="75.10796863686616" y="206.17788773346737">Bricklink</text>
      </a>
    </g>
    <g id="25"
        onmouseover="mo(this)" onmouseout="mleave(this)">
      <circle class="node" r="19.4" cx="115.52271466655014" cy="164.47315563539735" fill="#31A354"/>
      <a class="bubble" href="https://lod-cloud.net/dataset/bbc-wildlife-finder">
          <text x="115.52271466655014" y="164.47315563539735">BBC Wi...</text>
      </a>
    </g>
    <g id="26"
        onmouseover="mo(this)" onmouseout="mleave(this)">
      <circle class="node" r="21.4" cx="146.8813143541738" cy="111.53974853642274" fill="#31A354"/>
      <a class="bubble" href="https://lod-cloud.net/dataset/ontos-news-portal">
          <text x="146.8813143541738" y="111.53974853642274">Ontos ...</text>
      </a>
    </g>
    <g id="27"
        onmouseover="mo(this)" onmouseout="mleave(this)">
      <circle class="node" r="20.5" cx="199.82873247185861" cy="81.43059263420818" fill="#63b3de"/>
      <a class="bubble" href="https://lod-cloud.net/dataset/dbtune-magnatune">
          <text x="199.82873247185861" y="81.43059263420818">DBTune...</text>
      </a>
    </g>
    <g id="28"
        onmouseover="mo(this)" onmouseout="mleave(this)">
      <circle class="node" r="23.3" cx="259.49850579881564" cy="84.49918167387972" fill="#63b3de"/>
      <a class="bubble" href="https://lod-cloud.net/dataset/data-incubator-musicbrainz">
          <text x="259.49850579881564" y="84.49918167387972">Data I...</text>
      </a>
    </g>
    <g transform="translate(20,617) scale(1)">
      <text style="font-family: Verdana, Arial;">The Media Linked Open Data Cloud from lod-cloud.net</text>
    </g>
      <g transform="translate(480, 600)">
<svg
   xmlns:dc="http://purl.org/dc/elements/1.1/"
   xmlns:cc="http://web.resource.org/cc/"
   xmlns:rdf="http://www.w3.org/1999/02/22-rdf-syntax-ns#"
   xmlns:svg="http://www.w3.org/2000/svg"
   xmlns="http://www.w3.org/2000/svg"
   xmlns:sodipodi="http://sodipodi.sourceforge.net/DTD/sodipodi-0.dtd"
   xmlns:inkscape="http://www.inkscape.org/namespaces/inkscape"
   width="120"
   height="42"
   id="svg2759"
   sodipodi:version="0.32"
   inkscape:version="0.45+devel"
   version="1.0"
   sodipodi:docname="by.svg"
   inkscape:output_extension="org.inkscape.output.svg.inkscape">
  <defs
     id="defs2761" />
  <sodipodi:namedview
     id="base"
     pagecolor="#ffffff"
     bordercolor="#8b8b8b"
     borderopacity="1"
     gridtolerance="10000"
     guidetolerance="10"
     objecttolerance="10"
     inkscape:pageopacity="0.0"
     inkscape:pageshadow="2"
     inkscape:zoom="1"
     inkscape:cx="179"
     inkscape:cy="89.569904"
     inkscape:document-units="px"
     inkscape:current-layer="layer1"
     width="120px"
     height="42px"
     inkscape:showpageshadow="false"
     inkscape:window-width="1198"
     inkscape:window-height="624"
     inkscape:window-x="396"
     inkscape:window-y="242" />
  <metadata
     id="metadata2764">
    <rdf:RDF>
      <cc:Work
         rdf:about="">
        <dc:format>image/svg+xml</dc:format>
        <dc:type
           rdf:resource="http://purl.org/dc/dcmitype/StillImage" />
      </cc:Work>
    </rdf:RDF>
  </metadata>
  <g
     inkscape:label="Layer 1"
     inkscape:groupmode="layer"
     id="layer1">
    <g
       transform="matrix(0.9937728,0,0,0.9936696,-177.69267,6.25128e-7)"
       id="g260"
       inkscape:export-filename="/mnt/hgfs/Bov/Documents/Work/2007/cc/identity/srr buttons/big/by.png"
       inkscape:export-xdpi="300.23013"
       inkscape:export-ydpi="300.23013">
	<path
   id="path3817_1_"
   nodetypes="ccccccc"
   d="M 181.96579,0.51074 L 296.02975,0.71338 C 297.6235,0.71338 299.04733,0.47705 299.04733,3.89404 L 298.90768,41.46093 L 179.08737,41.46093 L 179.08737,3.75439 C 179.08737,2.06934 179.25046,0.51074 181.96579,0.51074 z"
   style="fill:#aab2ab" />

	<path
   d="M 297.29636,0 L 181.06736,0 C 179.82078,0 178.80613,1.01416 178.80613,2.26074 L 178.80613,41.75732 C 178.80613,42.03906 179.03513,42.26757 179.31687,42.26757 L 299.04734,42.26757 C 299.32908,42.26757 299.55808,42.03905 299.55808,41.75732 L 299.55808,2.26074 C 299.55807,1.01416 298.54343,0 297.29636,0 z M 181.06735,1.02148 L 297.29635,1.02148 C 297.98043,1.02148 298.53658,1.57714 298.53658,2.26074 C 298.53658,2.26074 298.53658,18.20898 298.53658,29.71045 L 215.19234,29.71045 C 212.14742,35.21631 206.28121,38.95459 199.54879,38.95459 C 192.81344,38.95459 186.94869,35.21973 183.90524,29.71045 L 179.8276,29.71045 C 179.8276,18.20899 179.8276,2.26074 179.8276,2.26074 C 179.82761,1.57715 180.38376,1.02148 181.06735,1.02148 z"
   id="path263" />

	<g
   enable-background="new    "
   id="g265">
		<path
   d="M 253.07761,32.95605 C 253.39499,32.95605 253.68503,32.98437 253.94773,33.04003 C 254.20945,33.09569 254.43308,33.18749 254.62058,33.31542 C 254.8071,33.44237 254.95261,33.6123 255.05515,33.82323 C 255.15769,34.03514 255.20945,34.29589 255.20945,34.60741 C 255.20945,34.94335 255.13328,35.22264 254.97996,35.44628 C 254.82762,35.67089 254.60105,35.85351 254.30223,35.99706 C 254.71434,36.11522 255.02196,36.32226 255.22508,36.61815 C 255.4282,36.91404 255.52977,37.27049 255.52977,37.68749 C 255.52977,38.02343 255.46434,38.31444 255.33348,38.56054 C 255.20262,38.80566 255.02586,39.00683 254.80516,39.1621 C 254.58348,39.31835 254.33055,39.43358 254.04735,39.5078 C 253.76317,39.583 253.47215,39.6201 253.17235,39.6201 L 249.936,39.6201 L 249.936,32.95604 L 253.07761,32.95604 L 253.07761,32.95605 z M 252.89011,35.65137 C 253.15183,35.65137 253.36667,35.58887 253.53562,35.46485 C 253.70359,35.34083 253.78757,35.13965 253.78757,34.86036 C 253.78757,34.70509 253.75925,34.57716 253.70359,34.47852 C 253.64695,34.37891 253.57273,34.30176 253.47898,34.24512 C 253.38523,34.18946 253.27781,34.15039 253.15671,34.12891 C 253.03561,34.10743 252.90866,34.09668 252.77878,34.09668 L 251.40476,34.09668 L 251.40476,35.65137 L 252.89011,35.65137 z M 252.97604,38.47949 C 253.11959,38.47949 253.25631,38.46582 253.38717,38.4375 C 253.51803,38.40918 253.63326,38.3623 253.73385,38.29785 C 253.83346,38.23242 253.91256,38.14355 253.97213,38.03125 C 254.0317,37.91992 254.061,37.77637 254.061,37.60254 C 254.061,37.26074 253.96432,37.0166 253.77096,36.87012 C 253.5776,36.72461 253.32174,36.65137 253.00436,36.65137 L 251.40475,36.65137 L 251.40475,38.47949 L 252.97604,38.47949 z"
   id="path267"
   style="fill:#ffffff" />

		<path
   d="M 255.78854,32.95605 L 257.43209,32.95605 L 258.99264,35.58789 L 260.54342,32.95605 L 262.17721,32.95605 L 259.70358,37.0625 L 259.70358,39.62012 L 258.23483,39.62012 L 258.23483,37.02539 L 255.78854,32.95605 z"
   id="path269"
   style="fill:#ffffff" />

	</g>

	<g
   id="g5908_1_"
   transform="matrix(0.872921,0,0,0.872921,50.12536,143.2144)">
		
			<path
   id="path5906_1_"
   cx="296.35416"
   ry="22.939548"
   cy="264.3577"
   type="arc"
   rx="22.939548"
   d="M 186.90065,-141.46002 C 186.90623,-132.77923 179.87279,-125.73852 171.19257,-125.73291 C 162.51235,-125.72736 155.47051,-132.76025 155.46547,-141.44098 C 155.46547,-141.44714 155.46547,-141.45331 155.46547,-141.46002 C 155.46043,-150.14081 162.49333,-157.18152 171.17355,-157.18658 C 179.8549,-157.19213 186.89561,-150.15924 186.90065,-141.47845 C 186.90065,-141.4729 186.90065,-141.46619 186.90065,-141.46002 z"
   style="fill:#ffffff" />

		<g
   id="g5706_1_"
   transform="translate(-289.6157,99.0653)">
			<path
   id="path5708_1_"
   d="M 473.57574,-253.32751 C 477.06115,-249.8421 478.80413,-245.5736 478.80413,-240.52532 C 478.80413,-235.47594 477.09136,-231.25329 473.66582,-227.85741 C 470.03051,-224.28081 465.734,-222.49309 460.77635,-222.49309 C 455.87858,-222.49309 451.65648,-224.26628 448.11122,-227.81261 C 444.56541,-231.35845 442.79277,-235.59563 442.79277,-240.52532 C 442.79277,-245.45391 444.56541,-249.7213 448.11122,-253.32751 C 451.56642,-256.81402 455.7885,-258.557 460.77635,-258.557 C 465.82465,-258.55701 470.09039,-256.81403 473.57574,-253.32751 z M 450.45776,-250.98267 C 447.51104,-248.00629 446.03823,-244.51978 446.03823,-240.52033 C 446.03823,-236.52198 447.49651,-233.06507 450.41247,-230.14966 C 453.32897,-227.23316 456.80096,-225.77545 460.82952,-225.77545 C 464.85808,-225.77545 468.35967,-227.24768 471.33605,-230.19385 C 474.16198,-232.9303 475.57549,-236.37091 475.57549,-240.52033 C 475.57549,-244.63837 474.13903,-248.13379 471.26781,-251.00501 C 468.39714,-253.87568 464.9179,-255.31159 460.82952,-255.31159 C 456.74112,-255.31158 453.28314,-253.86841 450.45776,-250.98267 z M 458.21225,-242.27948 C 457.76196,-243.26117 457.08795,-243.75232 456.18903,-243.75232 C 454.59986,-243.75232 453.80558,-242.68225 453.80558,-240.54321 C 453.80558,-238.40368 454.59986,-237.33471 456.18903,-237.33471 C 457.23841,-237.33471 457.98795,-237.85546 458.43769,-238.89922 L 460.64045,-237.72625 C 459.59052,-235.86077 458.01536,-234.92779 455.91496,-234.92779 C 454.29506,-234.92779 452.99733,-235.42449 452.0229,-236.4168 C 451.0468,-237.41021 450.56016,-238.77953 450.56016,-240.52532 C 450.56016,-242.24035 451.06245,-243.60186 452.06764,-244.61034 C 453.07283,-245.61888 454.32466,-246.12291 455.82545,-246.12291 C 458.04557,-246.12291 459.63526,-245.24803 460.59626,-243.50005 L 458.21225,-242.27948 z M 468.57562,-242.27948 C 468.12475,-243.26117 467.46417,-243.75232 466.5932,-243.75232 C 464.97217,-243.75232 464.16107,-242.68225 464.16107,-240.54321 C 464.16107,-238.40368 464.97217,-237.33471 466.5932,-237.33471 C 467.64429,-237.33471 468.38037,-237.85546 468.80048,-238.89922 L 471.05249,-237.72625 C 470.00421,-235.86077 468.43127,-234.92779 466.33478,-234.92779 C 464.7171,-234.92779 463.42218,-235.42449 462.44831,-236.4168 C 461.47614,-237.41021 460.98896,-238.77953 460.98896,-240.52532 C 460.98896,-242.24035 461.48341,-243.60186 462.47181,-244.61034 C 463.45966,-245.61888 464.71711,-246.12291 466.24531,-246.12291 C 468.4615,-246.12291 470.04896,-245.24803 471.0066,-243.50005 L 468.57562,-242.27948 z" />

		</g>

	</g>

	<g
   id="g275">
		<circle
   cx="255.55124"
   cy="15.31348"
   r="10.80664"
   id="circle277"
   sodipodi:cx="255.55124"
   sodipodi:cy="15.31348"
   sodipodi:rx="10.80664"
   sodipodi:ry="10.80664"
   style="fill:#ffffff" />

		<g
   id="g279">
			<path
   d="M 258.67819,12.18701 C 258.67819,11.77051 258.3403,11.4331 257.92526,11.4331 L 253.15182,11.4331 C 252.73678,11.4331 252.39889,11.7705 252.39889,12.18701 L 252.39889,16.95996 L 253.72994,16.95996 L 253.72994,22.61182 L 257.34713,22.61182 L 257.34713,16.95996 L 258.67818,16.95996 L 258.67818,12.18701 L 258.67819,12.18701 z"
   id="path281" />

			<circle
   cx="255.53854"
   cy="9.1723604"
   r="1.63281"
   id="circle283"
   sodipodi:cx="255.53854"
   sodipodi:cy="9.1723604"
   sodipodi:rx="1.63281"
   sodipodi:ry="1.63281" />

		</g>

		<path
   clip-rule="evenodd"
   d="M 255.5239,3.40723 C 252.29148,3.40723 249.55515,4.53516 247.31589,6.79102 C 245.01804,9.12452 243.8696,11.88672 243.8696,15.07569 C 243.8696,18.26466 245.01804,21.00733 247.31589,23.30225 C 249.61374,25.59668 252.35007,26.74414 255.5239,26.74414 C 258.73679,26.74414 261.52195,25.58789 263.87742,23.27295 C 266.09715,21.07568 267.2075,18.34326 267.2075,15.07568 C 267.2075,11.8081 266.07762,9.04687 263.8198,6.79101 C 261.56003,4.53516 258.79538,3.40723 255.5239,3.40723 z M 255.55319,5.50684 C 258.20163,5.50684 260.45065,6.44092 262.30026,8.30811 C 264.1694,10.15528 265.10397,12.41114 265.10397,15.07569 C 265.10397,17.75928 264.18893,19.98633 262.35885,21.75587 C 260.43014,23.66212 258.16256,24.61476 255.55319,24.61476 C 252.94284,24.61476 250.69381,23.67189 248.80612,21.78517 C 246.91647,19.89845 245.97311,17.66212 245.97311,15.0757 C 245.97311,12.48879 246.92721,10.23341 248.83541,8.30812 C 250.6655,6.44092 252.90475,5.50684 255.55319,5.50684 z"
   id="path285"
   style="fill-rule:evenodd" />

	</g>

</g>
  </g>
</svg>

      </g>
  </g>
</svg>
