<svg
    xmlns="http://www.w3.org/2000/svg" width="600" height="642">
  <script xmlns:xlink="http://www.w3.org/1999/xlink" xlink:href="http://lod-cloud.net/versions/2017-08-22/both.js"/>
  <style>
    circle { 
        stroke: #333;
        stroke-width: 1.5px;
        fill-opacity: 0.8; 
    } 
    .bubble text {
        text-anchor: middle;
        font-size: .5em;
    }
    .circle-active circle { 
        stroke: #e80000;  
        stroke-width: 3px; 
    } 
    .link { 
        stroke: #e0270b;  
        stroke: #555;  
        stroke-opacity: 0.7;  
        stroke-width: 1px;  
        stroke-dasharray:none;
    } 
    .link-activeIncoming {  
        stroke-opacity: 1; 
        stroke-width: 10;  
        stroke: #be1b38; 
    } 
    .link-activeOutgoung {  
        stroke-opacity: 1;  
        stroke-width: 10; 
        stroke: #1AC21D;  
    } 
    .link-activeBoth {  
        stroke-opacity: 1;  
        stroke: #1AC21D;  
        stroke-width: 10;  
        stroke-dasharray:5,10,5;}
  </style>
  <g transform="scale(0.5)">
    <g id="legend">
      <text transform="translate(30,30)" style="font-family:Verdana, Arial;font-size:200%;text-decoration:underline;">Legend</text>
      <rect width="310" height="35" style="fill:#3182BD" transform="translate(30,45)"/>
      <text transform="translate(35,72)" style="font-family:Verdana, Arial;font-size:200%">Geography</text>
    </g>
  </g>
  <g class="links">
    <line class="link" targetId="0" sourceId="1" x1="297.1584045433485" y1="101.92551535643472" x2="263.8599254075676" y2="294.0301663477903"/>
    <line class="link" targetId="2" sourceId="3" x1="396.58023959537474" y1="113.0915433602905" x2="378.06508181480683" y2="289.2991749398615"/>
    <line class="link" targetId="4" sourceId="1" x1="290.90237893896824" y1="243.6823431966606" x2="263.8599254075676" y2="294.0301663477903"/>
    <line class="link" targetId="4" sourceId="3" x1="290.90237893896824" y1="243.6823431966606" x2="378.06508181480683" y2="289.2991749398615"/>
    <line class="link" targetId="5" sourceId="1" x1="374.3232566792875" y1="189.73710274193252" x2="263.8599254075676" y2="294.0301663477903"/>
    <line class="link" targetId="7" sourceId="3" x1="342.86497043542846" y1="142.0159536144017" x2="378.06508181480683" y2="289.2991749398615"/>
    <line class="link" targetId="8" sourceId="3" x1="444.6321824342515" y1="147.06261855127443" x2="378.06508181480683" y2="289.2991749398615"/>
    <line class="link" targetId="9" sourceId="3" x1="450.3089896839015" y1="204.78004261305833" x2="378.06508181480683" y2="289.2991749398615"/>
    <line class="link" targetId="10" sourceId="1" x1="404.11999890810927" y1="238.78114252266826" x2="263.8599254075676" y2="294.0301663477903"/>
    <line class="link" targetId="10" sourceId="11" x1="404.11999890810927" y1="238.78114252266826" x2="347.4437530491382" y2="240.03172838119931"/>
    <line class="link" targetId="10" sourceId="12" x1="404.11999890810927" y1="238.78114252266826" x2="408.95703883345743" y2="338.0264732190518"/>
    <line class="link" targetId="12" sourceId="1" x1="408.95703883345743" y1="338.0264732190518" x2="263.8599254075676" y2="294.0301663477903"/>
    <line class="link" targetId="13" sourceId="12" x1="508.9094730560564" y1="201.25077340091423" x2="408.95703883345743" y2="338.0264732190518"/>
    <line class="link" targetId="14" sourceId="3" x1="483.6318086282196" y1="254.09251650301613" x2="378.06508181480683" y2="289.2991749398615"/>
    <line class="link" targetId="15" sourceId="3" x1="435.5746536935143" y1="285.73738998870806" x2="378.06508181480683" y2="289.2991749398615"/>
    <line class="link" targetId="1" sourceId="3" x1="263.8599254075676" y1="294.0301663477903" x2="378.06508181480683" y2="289.2991749398615"/>
    <line class="link" targetId="1" sourceId="12" x1="263.8599254075676" y1="294.0301663477903" x2="408.95703883345743" y2="338.0264732190518"/>
    <line class="link" targetId="1" sourceId="6" x1="263.8599254075676" y1="294.0301663477903" x2="382.49067302732533" y2="392.44281491562936"/>
    <line class="link" targetId="16" sourceId="1" x1="321.0775735655319" y1="291.653025537953" x2="263.8599254075676" y2="294.0301663477903"/>
    <line class="link" targetId="16" sourceId="3" x1="321.0775735655319" y1="291.653025537953" x2="378.06508181480683" y2="289.2991749398615"/>
    <line class="link" targetId="17" sourceId="1" x1="325.30656861782956" y1="390.1364571739117" x2="263.8599254075676" y2="294.0301663477903"/>
    <line class="link" targetId="17" sourceId="18" x1="325.30656861782956" y1="390.1364571739117" x2="220.2943859306678" y2="247.56879989909714"/>
    <line class="link" targetId="19" sourceId="20" x1="292.5894524556947" y1="342.4993139107223" x2="207.73242037914997" y2="300.00032252932647"/>
    <line class="link" targetId="19" sourceId="1" x1="292.5894524556947" y1="342.4993139107223" x2="263.8599254075676" y2="294.0301663477903"/>
    <line class="link" targetId="19" sourceId="3" x1="292.5894524556947" y1="342.4993139107223" x2="378.06508181480683" y2="289.2991749398615"/>
    <line class="link" targetId="19" sourceId="21" x1="292.5894524556947" y1="342.4993139107223" x2="310.23729043094494" y2="444.65494620330935"/>
    <line class="link" targetId="22" sourceId="1" x1="266.98426972747257" y1="400.11962357727487" x2="263.8599254075676" y2="294.0301663477903"/>
    <line class="link" targetId="23" sourceId="1" x1="242.6000164937454" y1="505.4081054653442" x2="263.8599254075676" y2="294.0301663477903"/>
    <line class="link" targetId="24" sourceId="3" x1="535.8369937172636" y1="280.4345681989685" x2="378.06508181480683" y2="289.2991749398615"/>
    <line class="link" targetId="25" sourceId="1" x1="236.01626713231482" y1="349.23952088418787" x2="263.8599254075676" y2="294.0301663477903"/>
    <line class="link" targetId="25" sourceId="12" x1="236.01626713231482" y1="349.23952088418787" x2="408.95703883345743" y2="338.0264732190518"/>
    <line class="link" targetId="26" sourceId="1" x1="227.50231610755503" y1="449.12596592724776" x2="263.8599254075676" y2="294.0301663477903"/>
    <line class="link" targetId="27" sourceId="1" x1="201.8044815814236" y1="398.35421507599557" x2="263.8599254075676" y2="294.0301663477903"/>
    <line class="link" targetId="27" sourceId="3" x1="201.8044815814236" y1="398.35421507599557" x2="378.06508181480683" y2="289.2991749398615"/>
    <line class="link" targetId="28" sourceId="3" x1="468.5474233397367" y1="332.5612262816528" x2="378.06508181480683" y2="289.2991749398615"/>
    <line class="link" targetId="29" sourceId="21" x1="327.7525687024925" y1="498.18966862950333" x2="310.23729043094494" y2="444.65494620330935"/>
    <line class="link" targetId="30" sourceId="1" x1="175.88395334177937" y1="347.48260170355167" x2="263.8599254075676" y2="294.0301663477903"/>
    <line class="link" targetId="30" sourceId="3" x1="175.88395334177937" y1="347.48260170355167" x2="378.06508181480683" y2="289.2991749398615"/>
    <line class="link" targetId="31" sourceId="1" x1="126.96312535803642" y1="306.5563537187799" x2="263.8599254075676" y2="294.0301663477903"/>
    <line class="link" targetId="32" sourceId="1" x1="158.2729067686802" y1="254.87700453607556" x2="263.8599254075676" y2="294.0301663477903"/>
    <line class="link" targetId="32" sourceId="33" x1="158.2729067686802" y1="254.87700453607556" x2="172.2355723057131" y2="200.06248813975793"/>
    <line class="link" targetId="20" sourceId="19" x1="207.73242037914997" y1="300.00032252932647" x2="292.5894524556947" y2="342.4993139107223"/>
    <line class="link" targetId="20" sourceId="1" x1="207.73242037914997" y1="300.00032252932647" x2="263.8599254075676" y2="294.0301663477903"/>
    <line class="link" targetId="34" sourceId="23" x1="262.41594193384293" y1="558.8516234102578" x2="242.6000164937454" y2="505.4081054653442"/>
    <line class="link" targetId="35" sourceId="3" x1="509.8134966170999" y1="371.2891899888922" x2="378.06508181480683" y2="289.2991749398615"/>
    <line class="link" targetId="36" sourceId="3" x1="450.96521822185105" y1="387.53386642342514" x2="378.06508181480683" y2="289.2991749398615"/>
    <line class="link" targetId="37" sourceId="1" x1="112.85526468679066" y1="203.106975452915" x2="263.8599254075676" y2="294.0301663477903"/>
    <line class="link" targetId="18" sourceId="1" x1="220.2943859306678" y1="247.56879989909714" x2="263.8599254075676" y2="294.0301663477903"/>
    <line class="link" targetId="33" sourceId="1" x1="172.2355723057131" y1="200.06248813975793" x2="263.8599254075676" y2="294.0301663477903"/>
    <line class="link" targetId="33" sourceId="32" x1="172.2355723057131" y1="200.06248813975793" x2="158.2729067686802" y2="254.87700453607556"/>
    <line class="link" targetId="38" sourceId="1" x1="254.5011859037528" y1="198.21740885949464" x2="263.8599254075676" y2="294.0301663477903"/>
    <line class="link" targetId="38" sourceId="21" x1="254.5011859037528" y1="198.21740885949464" x2="310.23729043094494" y2="444.65494620330935"/>
    <line class="link" targetId="38" sourceId="4" x1="254.5011859037528" y1="198.21740885949464" x2="290.90237893896824" y2="243.6823431966606"/>
    <line class="link" targetId="39" sourceId="1" x1="314.00394047886056" y1="191.9664088320803" x2="263.8599254075676" y2="294.0301663477903"/>
    <line class="link" targetId="39" sourceId="3" x1="314.00394047886056" y1="191.9664088320803" x2="378.06508181480683" y2="289.2991749398615"/>
    <line class="link" targetId="40" sourceId="3" x1="420.00643365899566" y1="440.5556288687633" x2="378.06508181480683" y2="289.2991749398615"/>
    <line class="link" targetId="11" sourceId="10" x1="347.4437530491382" y1="240.03172838119931" x2="404.11999890810927" y2="238.78114252266826"/>
    <line class="link" targetId="41" sourceId="23" x1="204.20455703499437" y1="548.3839889782103" x2="242.6000164937454" y2="505.4081054653442"/>
    <line class="link" targetId="42" sourceId="3" x1="352.54909839403234" y1="340.19210321028885" x2="378.06508181480683" y2="289.2991749398615"/>
  </g>
  <g class="nodes">
    <g id="0"
        onmouseover="mo(this)" onmouseout="mleave(this)">
      <circle class="node" r="21.4" cx="297.1584045433485" cy="101.92551535643472" fill="#3182BD"><title>pleiades</title></circle>
      <a class="bubble" href="https://lod-cloud.net/dataset/pleiades">
          <text x="297.1584045433485" y="101.92551535643472">Pleiades</text>
      </a>
    </g>
    <g id="1"
        onmouseover="mo(this)" onmouseout="mleave(this)">
      <circle class="node" r="25.0" cx="263.8599254075676" cy="294.0301663477903" fill="#3182BD"><title>dbpedia</title></circle>
      <a class="bubble" href="https://lod-cloud.net/dataset/dbpedia">
          <text x="263.8599254075676" y="294.0301663477903">DBpedia</text>
      </a>
    </g>
    <g id="2"
        onmouseover="mo(this)" onmouseout="mleave(this)">
      <circle class="node" r="21.7" cx="396.58023959537474" cy="113.0915433602905" fill="#3182BD"><title>riese</title></circle>
      <a class="bubble" href="https://lod-cloud.net/dataset/riese">
          <text x="396.58023959537474" y="113.0915433602905">RDFizi...</text>
      </a>
    </g>
    <g id="3"
        onmouseover="mo(this)" onmouseout="mleave(this)">
      <circle class="node" r="23.0" cx="378.06508181480683" cy="289.2991749398615" fill="#3182BD"><title>geonames-semantic-web</title></circle>
      <a class="bubble" href="https://lod-cloud.net/dataset/geonames-semantic-web">
          <text x="378.06508181480683" y="289.2991749398615">GeoNam...</text>
      </a>
    </g>
    <g id="4"
        onmouseover="mo(this)" onmouseout="mleave(this)">
      <circle class="node" r="19.2" cx="290.90237893896824" cy="243.6823431966606" fill="#3182BD"><title>telegraphis</title></circle>
      <a class="bubble" href="https://lod-cloud.net/dataset/telegraphis">
          <text x="290.90237893896824" y="243.6823431966606">Telegr...</text>
      </a>
    </g>
    <g id="5"
        onmouseover="mo(this)" onmouseout="mleave(this)">
      <circle class="node" r="20.6" cx="374.3232566792875" cy="189.73710274193252" fill="#3182BD"><title>grrt</title></circle>
      <a class="bubble" href="https://lod-cloud.net/dataset/grrt">
          <text x="374.3232566792875" y="189.73710274193252">Accomm...</text>
      </a>
    </g>
    <g id="6"
        onmouseover="mo(this)" onmouseout="mleave(this)">
      <circle class="node" r="22.8" cx="382.49067302732533" cy="392.44281491562936" fill="#3182BD"><title> data.odw.tw</title></circle>
      <a class="bubble" href="https://lod-cloud.net/dataset/ data.odw.tw">
          <text x="382.49067302732533" y="392.44281491562936">Open D...</text>
      </a>
    </g>
    <g id="7"
        onmouseover="mo(this)" onmouseout="mleave(this)">
      <circle class="node" r="15.0" cx="342.86497043542846" cy="142.0159536144017" fill="#3182BD"><title>taiwan-geographic-names</title></circle>
      <a class="bubble" href="https://lod-cloud.net/dataset/taiwan-geographic-names">
          <text x="342.86497043542846" y="142.0159536144017">Taiwan...</text>
      </a>
    </g>
    <g id="8"
        onmouseover="mo(this)" onmouseout="mleave(this)">
      <circle class="node" r="15.0" cx="444.6321824342515" cy="147.06261855127443" fill="#3182BD"><title>eventseer</title></circle>
      <a class="bubble" href="https://lod-cloud.net/dataset/eventseer">
          <text x="444.6321824342515" y="147.06261855127443">Eventseer</text>
      </a>
    </g>
    <g id="9"
        onmouseover="mo(this)" onmouseout="mleave(this)">
      <circle class="node" r="18.9" cx="450.3089896839015" cy="204.78004261305833" fill="#3182BD"><title>norwegian-geo-divisions</title></circle>
      <a class="bubble" href="https://lod-cloud.net/dataset/norwegian-geo-divisions">
          <text x="450.3089896839015" y="204.78004261305833">Norweg...</text>
      </a>
    </g>
    <g id="10"
        onmouseover="mo(this)" onmouseout="mleave(this)">
      <circle class="node" r="22.3" cx="404.11999890810927" cy="238.78114252266826" fill="#3182BD"><title>openmobilenetwork</title></circle>
      <a class="bubble" href="https://lod-cloud.net/dataset/openmobilenetwork">
          <text x="404.11999890810927" y="238.78114252266826">OpenMo...</text>
      </a>
    </g>
    <g id="11"
        onmouseover="mo(this)" onmouseout="mleave(this)">
      <circle class="node" r="19.2" cx="347.4437530491382" cy="240.03172838119931" fill="#3182BD"><title>linkedcrowdsourceddata</title></circle>
      <a class="bubble" href="https://lod-cloud.net/dataset/linkedcrowdsourceddata">
          <text x="347.4437530491382" y="240.03172838119931">Linked...</text>
      </a>
    </g>
    <g id="12"
        onmouseover="mo(this)" onmouseout="mleave(this)">
      <circle class="node" r="24.5" cx="408.95703883345743" cy="338.0264732190518" fill="#3182BD"><title>linkedgeodata</title></circle>
      <a class="bubble" href="https://lod-cloud.net/dataset/linkedgeodata">
          <text x="408.95703883345743" y="338.0264732190518">Linked...</text>
      </a>
    </g>
    <g id="13"
        onmouseover="mo(this)" onmouseout="mleave(this)">
      <circle class="node" r="20.1" cx="508.9094730560564" cy="201.25077340091423" fill="#3182BD"><title>osm-semantic-network</title></circle>
      <a class="bubble" href="https://lod-cloud.net/dataset/osm-semantic-network">
          <text x="508.9094730560564" y="201.25077340091423">OSM Se...</text>
      </a>
    </g>
    <g id="14"
        onmouseover="mo(this)" onmouseout="mleave(this)">
      <circle class="node" r="15.0" cx="483.6318086282196" cy="254.09251650301613" fill="#3182BD"><title>statusnet-progval-net</title></circle>
      <a class="bubble" href="https://lod-cloud.net/dataset/statusnet-progval-net">
          <text x="483.6318086282196" y="254.09251650301613">status...</text>
      </a>
    </g>
    <g id="15"
        onmouseover="mo(this)" onmouseout="mleave(this)">
      <circle class="node" r="22.7" cx="435.5746536935143" cy="285.73738998870806" fill="#3182BD"><title>geowordnet</title></circle>
      <a class="bubble" href="https://lod-cloud.net/dataset/geowordnet">
          <text x="435.5746536935143" y="285.73738998870806">GeoWor...</text>
      </a>
    </g>
    <g id="16"
        onmouseover="mo(this)" onmouseout="mleave(this)">
      <circle class="node" r="20.9" cx="321.0775735655319" cy="291.653025537953" fill="#3182BD"><title>lobid-organisations</title></circle>
      <a class="bubble" href="https://lod-cloud.net/dataset/lobid-organisations">
          <text x="321.0775735655319" y="291.653025537953">lobid-...</text>
      </a>
    </g>
    <g id="17"
        onmouseover="mo(this)" onmouseout="mleave(this)">
      <circle class="node" r="15.0" cx="325.30656861782956" cy="390.1364571739117" fill="#3182BD"><title>eea-vocabularies</title></circle>
      <a class="bubble" href="https://lod-cloud.net/dataset/eea-vocabularies">
          <text x="325.30656861782956" y="390.1364571739117">EEA Vo...</text>
      </a>
    </g>
    <g id="18"
        onmouseover="mo(this)" onmouseout="mleave(this)">
      <circle class="node" r="19.4" cx="220.2943859306678" cy="247.56879989909714" fill="#3182BD"><title>fao-geopolitical-ontology</title></circle>
      <a class="bubble" href="https://lod-cloud.net/dataset/fao-geopolitical-ontology">
          <text x="220.2943859306678" y="247.56879989909714">FAO ge...</text>
      </a>
    </g>
    <g id="19"
        onmouseover="mo(this)" onmouseout="mleave(this)">
      <circle class="node" r="19.2" cx="292.5894524556947" cy="342.4993139107223" fill="#3182BD"><title>data-incubator-smcjournals</title></circle>
      <a class="bubble" href="https://lod-cloud.net/dataset/data-incubator-smcjournals">
          <text x="292.5894524556947" y="342.4993139107223">Scotti...</text>
      </a>
    </g>
    <g id="20"
        onmouseover="mo(this)" onmouseout="mleave(this)">
      <circle class="node" r="20.2" cx="207.73242037914997" cy="300.00032252932647" fill="#3182BD"><title>data-incubator-climb</title></circle>
      <a class="bubble" href="https://lod-cloud.net/dataset/data-incubator-climb">
          <text x="207.73242037914997" y="300.00032252932647">Climb ...</text>
      </a>
    </g>
    <g id="21"
        onmouseover="mo(this)" onmouseout="mleave(this)">
      <circle class="node" r="21.4" cx="310.23729043094494" cy="444.65494620330935" fill="#3182BD"><title>ordnance-survey-linked-data</title></circle>
      <a class="bubble" href="https://lod-cloud.net/dataset/ordnance-survey-linked-data">
          <text x="310.23729043094494" y="444.65494620330935">Ordnan...</text>
      </a>
    </g>
    <g id="22"
        onmouseover="mo(this)" onmouseout="mleave(this)">
      <circle class="node" r="20.7" cx="266.98426972747257" cy="400.11962357727487" fill="#3182BD"><title>fishes-of-texas</title></circle>
      <a class="bubble" href="https://lod-cloud.net/dataset/fishes-of-texas">
          <text x="266.98426972747257" y="400.11962357727487">Fishes...</text>
      </a>
    </g>
    <g id="23"
        onmouseover="mo(this)" onmouseout="mleave(this)">
      <circle class="node" r="22.4" cx="242.6000164937454" cy="505.4081054653442" fill="#3182BD"><title>oceandrilling-codices</title></circle>
      <a class="bubble" href="https://lod-cloud.net/dataset/oceandrilling-codices">
          <text x="242.6000164937454" y="505.4081054653442">Ocean ...</text>
      </a>
    </g>
    <g id="24"
        onmouseover="mo(this)" onmouseout="mleave(this)">
      <circle class="node" r="15.0" cx="535.8369937172636" cy="280.4345681989685" fill="#3182BD"><title>greek-administrative-geography</title></circle>
      <a class="bubble" href="https://lod-cloud.net/dataset/greek-administrative-geography">
          <text x="535.8369937172636" y="280.4345681989685">greek-...</text>
      </a>
    </g>
    <g id="25"
        onmouseover="mo(this)" onmouseout="mleave(this)">
      <circle class="node" r="15.0" cx="236.01626713231482" cy="349.23952088418787" fill="#3182BD"><title>linked-logainm</title></circle>
      <a class="bubble" href="https://lod-cloud.net/dataset/linked-logainm">
          <text x="236.01626713231482" y="349.23952088418787">Linked...</text>
      </a>
    </g>
    <g id="26"
        onmouseover="mo(this)" onmouseout="mleave(this)">
      <circle class="node" r="19.6" cx="227.50231610755503" cy="449.12596592724776" fill="#3182BD"><title>geological-survey-of-austria-thesaurus</title></circle>
      <a class="bubble" href="https://lod-cloud.net/dataset/geological-survey-of-austria-thesaurus">
          <text x="227.50231610755503" y="449.12596592724776">Geolog...</text>
      </a>
    </g>
    <g id="27"
        onmouseover="mo(this)" onmouseout="mleave(this)">
      <circle class="node" r="19.9" cx="201.8044815814236" cy="398.35421507599557" fill="#3182BD"><title>los_metar</title></circle>
      <a class="bubble" href="https://lod-cloud.net/dataset/los_metar">
          <text x="201.8044815814236" y="398.35421507599557">Weathe...</text>
      </a>
    </g>
    <g id="28"
        onmouseover="mo(this)" onmouseout="mleave(this)">
      <circle class="node" r="15.0" cx="468.5474233397367" cy="332.5612262816528" fill="#3182BD"><title>statusnet-coreyavis-com</title></circle>
      <a class="bubble" href="https://lod-cloud.net/dataset/statusnet-coreyavis-com">
          <text x="468.5474233397367" y="332.5612262816528">status...</text>
      </a>
    </g>
    <g id="29"
        onmouseover="mo(this)" onmouseout="mleave(this)">
      <circle class="node" r="22.4" cx="327.7525687024925" cy="498.18966862950333" fill="#3182BD"><title>uk-postcodes</title></circle>
      <a class="bubble" href="https://lod-cloud.net/dataset/uk-postcodes">
          <text x="327.7525687024925" y="498.18966862950333">UK Pos...</text>
      </a>
    </g>
    <g id="30"
        onmouseover="mo(this)" onmouseout="mleave(this)">
      <circle class="node" r="23.5" cx="175.88395334177937" cy="347.48260170355167" fill="#3182BD"><title>near</title></circle>
      <a class="bubble" href="https://lod-cloud.net/dataset/near">
          <text x="175.88395334177937" y="347.48260170355167">Near</text>
      </a>
    </g>
    <g id="31"
        onmouseover="mo(this)" onmouseout="mleave(this)">
      <circle class="node" r="20.5" cx="126.96312535803642" cy="306.5563537187799" fill="#3182BD"><title>nuts-geovocab</title></circle>
      <a class="bubble" href="https://lod-cloud.net/dataset/nuts-geovocab">
          <text x="126.96312535803642" y="306.5563537187799">NUTS (...</text>
      </a>
    </g>
    <g id="32"
        onmouseover="mo(this)" onmouseout="mleave(this)">
      <circle class="node" r="20.1" cx="158.2729067686802" cy="254.87700453607556" fill="#3182BD"><title>environmental-applications-reference-thesaurus</title></circle>
      <a class="bubble" href="https://lod-cloud.net/dataset/environmental-applications-reference-thesaurus">
          <text x="158.2729067686802" y="254.87700453607556">EARTh</text>
      </a>
    </g>
    <g id="33"
        onmouseover="mo(this)" onmouseout="mleave(this)">
      <circle class="node" r="20.6" cx="172.2355723057131" cy="200.06248813975793" fill="#3182BD"><title>thist</title></circle>
      <a class="bubble" href="https://lod-cloud.net/dataset/thist">
          <text x="172.2355723057131" y="200.06248813975793">ThIST</text>
      </a>
    </g>
    <g id="34"
        onmouseover="mo(this)" onmouseout="mleave(this)">
      <circle class="node" r="22.4" cx="262.41594193384293" cy="558.8516234102578" fill="#3182BD"><title>oceandrilling-forams</title></circle>
      <a class="bubble" href="https://lod-cloud.net/dataset/oceandrilling-forams">
          <text x="262.41594193384293" y="558.8516234102578">Ocean ...</text>
      </a>
    </g>
    <g id="35"
        onmouseover="mo(this)" onmouseout="mleave(this)">
      <circle class="node" r="15.0" cx="509.8134966170999" cy="371.2891899888922" fill="#3182BD"><title>statusnet-ldn-fai-net</title></circle>
      <a class="bubble" href="https://lod-cloud.net/dataset/statusnet-ldn-fai-net">
          <text x="509.8134966170999" y="371.2891899888922">status...</text>
      </a>
    </g>
    <g id="36"
        onmouseover="mo(this)" onmouseout="mleave(this)">
      <circle class="node" r="15.0" cx="450.96521822185105" cy="387.53386642342514" fill="#3182BD"><title>knoesis-linked-sensor-data</title></circle>
      <a class="bubble" href="https://lod-cloud.net/dataset/knoesis-linked-sensor-data">
          <text x="450.96521822185105" y="387.53386642342514">Linked...</text>
      </a>
    </g>
    <g id="37"
        onmouseover="mo(this)" onmouseout="mleave(this)">
      <circle class="node" r="17.6" cx="112.85526468679066" cy="203.106975452915" fill="#3182BD"><title>the-view-from</title></circle>
      <a class="bubble" href="https://lod-cloud.net/dataset/the-view-from">
          <text x="112.85526468679066" y="203.106975452915">The Vi...</text>
      </a>
    </g>
    <g id="38"
        onmouseover="mo(this)" onmouseout="mleave(this)">
      <circle class="node" r="22.7" cx="254.5011859037528" cy="198.21740885949464" fill="#3182BD"><title>yahoo_geoplanet</title></circle>
      <a class="bubble" href="https://lod-cloud.net/dataset/yahoo_geoplanet">
          <text x="254.5011859037528" y="198.21740885949464">Yahoo ...</text>
      </a>
    </g>
    <g id="39"
        onmouseover="mo(this)" onmouseout="mleave(this)">
      <circle class="node" r="22.3" cx="314.00394047886056" cy="191.9664088320803" fill="#3182BD"><title>geolinkeddata</title></circle>
      <a class="bubble" href="https://lod-cloud.net/dataset/geolinkeddata">
          <text x="314.00394047886056" y="191.9664088320803">GeoLin...</text>
      </a>
    </g>
    <g id="40"
        onmouseover="mo(this)" onmouseout="mleave(this)">
      <circle class="node" r="15.0" cx="420.00643365899566" cy="440.5556288687633" fill="#3182BD"><title>statusnet-hii-co-il</title></circle>
      <a class="bubble" href="https://lod-cloud.net/dataset/statusnet-hii-co-il">
          <text x="420.00643365899566" y="440.5556288687633">status...</text>
      </a>
    </g>
    <g id="41"
        onmouseover="mo(this)" onmouseout="mleave(this)">
      <circle class="node" r="22.4" cx="204.20455703499437" cy="548.3839889782103" fill="#3182BD"><title>oceandrilling-janusamp</title></circle>
      <a class="bubble" href="https://lod-cloud.net/dataset/oceandrilling-janusamp">
          <text x="204.20455703499437" y="548.3839889782103">Ocean ...</text>
      </a>
    </g>
    <g id="42"
        onmouseover="mo(this)" onmouseout="mleave(this)">
      <circle class="node" r="20.2" cx="352.54909839403234" cy="340.19210321028885" fill="#3182BD"><title>grrp</title></circle>
      <a class="bubble" href="https://lod-cloud.net/dataset/grrp">
          <text x="352.54909839403234" y="340.19210321028885">Accomm...</text>
      </a>
    </g>
    <g transform="translate(20,617) scale(0.9453781512605043)">
      <text style="font-family: Verdana, Arial;">The Geography Linked Open Data Cloud from lod-cloud.net</text>
    </g>
      <g transform="translate(480, 600)">
<svg
   xmlns:dc="http://purl.org/dc/elements/1.1/"
   xmlns:cc="http://web.resource.org/cc/"
   xmlns:rdf="http://www.w3.org/1999/02/22-rdf-syntax-ns#"
   xmlns:svg="http://www.w3.org/2000/svg"
   xmlns="http://www.w3.org/2000/svg"
   xmlns:sodipodi="http://sodipodi.sourceforge.net/DTD/sodipodi-0.dtd"
   xmlns:inkscape="http://www.inkscape.org/namespaces/inkscape"
   width="120"
   height="42"
   id="svg2759"
   sodipodi:version="0.32"
   inkscape:version="0.45+devel"
   version="1.0"
   sodipodi:docname="by.svg"
   inkscape:output_extension="org.inkscape.output.svg.inkscape">
  <defs
     id="defs2761" />
  <sodipodi:namedview
     id="base"
     pagecolor="#ffffff"
     bordercolor="#8b8b8b"
     borderopacity="1"
     gridtolerance="10000"
     guidetolerance="10"
     objecttolerance="10"
     inkscape:pageopacity="0.0"
     inkscape:pageshadow="2"
     inkscape:zoom="1"
     inkscape:cx="179"
     inkscape:cy="89.569904"
     inkscape:document-units="px"
     inkscape:current-layer="layer1"
     width="120px"
     height="42px"
     inkscape:showpageshadow="false"
     inkscape:window-width="1198"
     inkscape:window-height="624"
     inkscape:window-x="396"
     inkscape:window-y="242" />
  <metadata
     id="metadata2764">
    <rdf:RDF>
      <cc:Work
         rdf:about="">
        <dc:format>image/svg+xml</dc:format>
        <dc:type
           rdf:resource="http://purl.org/dc/dcmitype/StillImage" />
      </cc:Work>
    </rdf:RDF>
  </metadata>
  <g
     inkscape:label="Layer 1"
     inkscape:groupmode="layer"
     id="layer1">
    <g
       transform="matrix(0.9937728,0,0,0.9936696,-177.69267,6.25128e-7)"
       id="g260"
       inkscape:export-filename="/mnt/hgfs/Bov/Documents/Work/2007/cc/identity/srr buttons/big/by.png"
       inkscape:export-xdpi="300.23013"
       inkscape:export-ydpi="300.23013">
	<path
   id="path3817_1_"
   nodetypes="ccccccc"
   d="M 181.96579,0.51074 L 296.02975,0.71338 C 297.6235,0.71338 299.04733,0.47705 299.04733,3.89404 L 298.90768,41.46093 L 179.08737,41.46093 L 179.08737,3.75439 C 179.08737,2.06934 179.25046,0.51074 181.96579,0.51074 z"
   style="fill:#aab2ab" />

	<path
   d="M 297.29636,0 L 181.06736,0 C 179.82078,0 178.80613,1.01416 178.80613,2.26074 L 178.80613,41.75732 C 178.80613,42.03906 179.03513,42.26757 179.31687,42.26757 L 299.04734,42.26757 C 299.32908,42.26757 299.55808,42.03905 299.55808,41.75732 L 299.55808,2.26074 C 299.55807,1.01416 298.54343,0 297.29636,0 z M 181.06735,1.02148 L 297.29635,1.02148 C 297.98043,1.02148 298.53658,1.57714 298.53658,2.26074 C 298.53658,2.26074 298.53658,18.20898 298.53658,29.71045 L 215.19234,29.71045 C 212.14742,35.21631 206.28121,38.95459 199.54879,38.95459 C 192.81344,38.95459 186.94869,35.21973 183.90524,29.71045 L 179.8276,29.71045 C 179.8276,18.20899 179.8276,2.26074 179.8276,2.26074 C 179.82761,1.57715 180.38376,1.02148 181.06735,1.02148 z"
   id="path263" />

	<g
   enable-background="new    "
   id="g265">
		<path
   d="M 253.07761,32.95605 C 253.39499,32.95605 253.68503,32.98437 253.94773,33.04003 C 254.20945,33.09569 254.43308,33.18749 254.62058,33.31542 C 254.8071,33.44237 254.95261,33.6123 255.05515,33.82323 C 255.15769,34.03514 255.20945,34.29589 255.20945,34.60741 C 255.20945,34.94335 255.13328,35.22264 254.97996,35.44628 C 254.82762,35.67089 254.60105,35.85351 254.30223,35.99706 C 254.71434,36.11522 255.02196,36.32226 255.22508,36.61815 C 255.4282,36.91404 255.52977,37.27049 255.52977,37.68749 C 255.52977,38.02343 255.46434,38.31444 255.33348,38.56054 C 255.20262,38.80566 255.02586,39.00683 254.80516,39.1621 C 254.58348,39.31835 254.33055,39.43358 254.04735,39.5078 C 253.76317,39.583 253.47215,39.6201 253.17235,39.6201 L 249.936,39.6201 L 249.936,32.95604 L 253.07761,32.95604 L 253.07761,32.95605 z M 252.89011,35.65137 C 253.15183,35.65137 253.36667,35.58887 253.53562,35.46485 C 253.70359,35.34083 253.78757,35.13965 253.78757,34.86036 C 253.78757,34.70509 253.75925,34.57716 253.70359,34.47852 C 253.64695,34.37891 253.57273,34.30176 253.47898,34.24512 C 253.38523,34.18946 253.27781,34.15039 253.15671,34.12891 C 253.03561,34.10743 252.90866,34.09668 252.77878,34.09668 L 251.40476,34.09668 L 251.40476,35.65137 L 252.89011,35.65137 z M 252.97604,38.47949 C 253.11959,38.47949 253.25631,38.46582 253.38717,38.4375 C 253.51803,38.40918 253.63326,38.3623 253.73385,38.29785 C 253.83346,38.23242 253.91256,38.14355 253.97213,38.03125 C 254.0317,37.91992 254.061,37.77637 254.061,37.60254 C 254.061,37.26074 253.96432,37.0166 253.77096,36.87012 C 253.5776,36.72461 253.32174,36.65137 253.00436,36.65137 L 251.40475,36.65137 L 251.40475,38.47949 L 252.97604,38.47949 z"
   id="path267"
   style="fill:#ffffff" />

		<path
   d="M 255.78854,32.95605 L 257.43209,32.95605 L 258.99264,35.58789 L 260.54342,32.95605 L 262.17721,32.95605 L 259.70358,37.0625 L 259.70358,39.62012 L 258.23483,39.62012 L 258.23483,37.02539 L 255.78854,32.95605 z"
   id="path269"
   style="fill:#ffffff" />

	</g>

	<g
   id="g5908_1_"
   transform="matrix(0.872921,0,0,0.872921,50.12536,143.2144)">
		
			<path
   id="path5906_1_"
   cx="296.35416"
   ry="22.939548"
   cy="264.3577"
   type="arc"
   rx="22.939548"
   d="M 186.90065,-141.46002 C 186.90623,-132.77923 179.87279,-125.73852 171.19257,-125.73291 C 162.51235,-125.72736 155.47051,-132.76025 155.46547,-141.44098 C 155.46547,-141.44714 155.46547,-141.45331 155.46547,-141.46002 C 155.46043,-150.14081 162.49333,-157.18152 171.17355,-157.18658 C 179.8549,-157.19213 186.89561,-150.15924 186.90065,-141.47845 C 186.90065,-141.4729 186.90065,-141.46619 186.90065,-141.46002 z"
   style="fill:#ffffff" />

		<g
   id="g5706_1_"
   transform="translate(-289.6157,99.0653)">
			<path
   id="path5708_1_"
   d="M 473.57574,-253.32751 C 477.06115,-249.8421 478.80413,-245.5736 478.80413,-240.52532 C 478.80413,-235.47594 477.09136,-231.25329 473.66582,-227.85741 C 470.03051,-224.28081 465.734,-222.49309 460.77635,-222.49309 C 455.87858,-222.49309 451.65648,-224.26628 448.11122,-227.81261 C 444.56541,-231.35845 442.79277,-235.59563 442.79277,-240.52532 C 442.79277,-245.45391 444.56541,-249.7213 448.11122,-253.32751 C 451.56642,-256.81402 455.7885,-258.557 460.77635,-258.557 C 465.82465,-258.55701 470.09039,-256.81403 473.57574,-253.32751 z M 450.45776,-250.98267 C 447.51104,-248.00629 446.03823,-244.51978 446.03823,-240.52033 C 446.03823,-236.52198 447.49651,-233.06507 450.41247,-230.14966 C 453.32897,-227.23316 456.80096,-225.77545 460.82952,-225.77545 C 464.85808,-225.77545 468.35967,-227.24768 471.33605,-230.19385 C 474.16198,-232.9303 475.57549,-236.37091 475.57549,-240.52033 C 475.57549,-244.63837 474.13903,-248.13379 471.26781,-251.00501 C 468.39714,-253.87568 464.9179,-255.31159 460.82952,-255.31159 C 456.74112,-255.31158 453.28314,-253.86841 450.45776,-250.98267 z M 458.21225,-242.27948 C 457.76196,-243.26117 457.08795,-243.75232 456.18903,-243.75232 C 454.59986,-243.75232 453.80558,-242.68225 453.80558,-240.54321 C 453.80558,-238.40368 454.59986,-237.33471 456.18903,-237.33471 C 457.23841,-237.33471 457.98795,-237.85546 458.43769,-238.89922 L 460.64045,-237.72625 C 459.59052,-235.86077 458.01536,-234.92779 455.91496,-234.92779 C 454.29506,-234.92779 452.99733,-235.42449 452.0229,-236.4168 C 451.0468,-237.41021 450.56016,-238.77953 450.56016,-240.52532 C 450.56016,-242.24035 451.06245,-243.60186 452.06764,-244.61034 C 453.07283,-245.61888 454.32466,-246.12291 455.82545,-246.12291 C 458.04557,-246.12291 459.63526,-245.24803 460.59626,-243.50005 L 458.21225,-242.27948 z M 468.57562,-242.27948 C 468.12475,-243.26117 467.46417,-243.75232 466.5932,-243.75232 C 464.97217,-243.75232 464.16107,-242.68225 464.16107,-240.54321 C 464.16107,-238.40368 464.97217,-237.33471 466.5932,-237.33471 C 467.64429,-237.33471 468.38037,-237.85546 468.80048,-238.89922 L 471.05249,-237.72625 C 470.00421,-235.86077 468.43127,-234.92779 466.33478,-234.92779 C 464.7171,-234.92779 463.42218,-235.42449 462.44831,-236.4168 C 461.47614,-237.41021 460.98896,-238.77953 460.98896,-240.52532 C 460.98896,-242.24035 461.48341,-243.60186 462.47181,-244.61034 C 463.45966,-245.61888 464.71711,-246.12291 466.24531,-246.12291 C 468.4615,-246.12291 470.04896,-245.24803 471.0066,-243.50005 L 468.57562,-242.27948 z" />

		</g>

	</g>

	<g
   id="g275">
		<circle
   cx="255.55124"
   cy="15.31348"
   r="10.80664"
   id="circle277"
   sodipodi:cx="255.55124"
   sodipodi:cy="15.31348"
   sodipodi:rx="10.80664"
   sodipodi:ry="10.80664"
   style="fill:#ffffff" />

		<g
   id="g279">
			<path
   d="M 258.67819,12.18701 C 258.67819,11.77051 258.3403,11.4331 257.92526,11.4331 L 253.15182,11.4331 C 252.73678,11.4331 252.39889,11.7705 252.39889,12.18701 L 252.39889,16.95996 L 253.72994,16.95996 L 253.72994,22.61182 L 257.34713,22.61182 L 257.34713,16.95996 L 258.67818,16.95996 L 258.67818,12.18701 L 258.67819,12.18701 z"
   id="path281" />

			<circle
   cx="255.53854"
   cy="9.1723604"
   r="1.63281"
   id="circle283"
   sodipodi:cx="255.53854"
   sodipodi:cy="9.1723604"
   sodipodi:rx="1.63281"
   sodipodi:ry="1.63281" />

		</g>

		<path
   clip-rule="evenodd"
   d="M 255.5239,3.40723 C 252.29148,3.40723 249.55515,4.53516 247.31589,6.79102 C 245.01804,9.12452 243.8696,11.88672 243.8696,15.07569 C 243.8696,18.26466 245.01804,21.00733 247.31589,23.30225 C 249.61374,25.59668 252.35007,26.74414 255.5239,26.74414 C 258.73679,26.74414 261.52195,25.58789 263.87742,23.27295 C 266.09715,21.07568 267.2075,18.34326 267.2075,15.07568 C 267.2075,11.8081 266.07762,9.04687 263.8198,6.79101 C 261.56003,4.53516 258.79538,3.40723 255.5239,3.40723 z M 255.55319,5.50684 C 258.20163,5.50684 260.45065,6.44092 262.30026,8.30811 C 264.1694,10.15528 265.10397,12.41114 265.10397,15.07569 C 265.10397,17.75928 264.18893,19.98633 262.35885,21.75587 C 260.43014,23.66212 258.16256,24.61476 255.55319,24.61476 C 252.94284,24.61476 250.69381,23.67189 248.80612,21.78517 C 246.91647,19.89845 245.97311,17.66212 245.97311,15.0757 C 245.97311,12.48879 246.92721,10.23341 248.83541,8.30812 C 250.6655,6.44092 252.90475,5.50684 255.55319,5.50684 z"
   id="path285"
   style="fill-rule:evenodd" />

	</g>

</g>
  </g>
</svg>

      </g>
  </g>
</svg>
