<svg
    xmlns="http://www.w3.org/2000/svg" width="600" height="642">
  <script xmlns:xlink="http://www.w3.org/1999/xlink" xlink:href="http://lod-cloud.net/versions/2017-08-22/both.js"/>
  <style>
    circle { 
        stroke: #333;
        stroke-width: 1.5px;
        fill-opacity: 0.8; 
    } 
    .bubble text {
        text-anchor: middle;
        font-size: .5em;
    }
    .circle-active circle { 
        stroke: #e80000;  
        stroke-width: 3px; 
    } 
    .link { 
        stroke: #e0270b;  
        stroke: #555;  
        stroke-opacity: 0.7;  
        stroke-width: 1px;  
        stroke-dasharray:none;
    } 
    .link-activeIncoming {  
        stroke-opacity: 1; 
        stroke-width: 10;  
        stroke: #be1b38; 
    } 
    .link-activeOutgoung {  
        stroke-opacity: 1;  
        stroke-width: 10; 
        stroke: #1AC21D;  
    } 
    .link-activeBoth {  
        stroke-opacity: 1;  
        stroke: #1AC21D;  
        stroke-width: 10;  
        stroke-dasharray:5,10,5;}
  </style>
  <g transform="scale(0.5)">
    <g id="legend">
      <text transform="translate(30,30)" style="font-family:Verdana, Arial;font-size:200%;text-decoration:underline;">Legend</text>
      <rect width="310" height="35" style="fill:#8b2453" transform="translate(30,45)"/>
      <text transform="translate(35,72)" style="font-family:Verdana, Arial;font-size:200%">SIOC</text>
      <rect width="310" height="35" style="fill:#d84d7c" transform="translate(30,85)"/>
      <text transform="translate(35,112)" style="font-family:Verdana, Arial;font-size:200%">Other</text>
    </g>
  </g>
  <g class="links">
    <line class="link" targetId="0" sourceId="1" x1="239.65807554340043" y1="218.45630410779103" x2="217.36480361999898" y2="270.06374044976246"/>
    <line class="link" targetId="0" sourceId="2" x1="239.65807554340043" y1="218.45630410779103" x2="194.41480233366838" y2="320.8072176339672"/>
    <line class="link" targetId="0" sourceId="3" x1="239.65807554340043" y1="218.45630410779103" x2="141.52387537998106" y2="320.62153477969736"/>
    <line class="link" targetId="4" sourceId="5" x1="299.7584126884038" y1="136.00680031136042" x2="329.0575627434086" y2="88.44243114146394"/>
    <line class="link" targetId="4" sourceId="1" x1="299.7584126884038" y1="136.00680031136042" x2="217.36480361999898" y2="270.06374044976246"/>
    <line class="link" targetId="4" sourceId="6" x1="299.7584126884038" y1="136.00680031136042" x2="253.65819989587604" y2="317.28377468071363"/>
    <line class="link" targetId="4" sourceId="7" x1="299.7584126884038" y1="136.00680031136042" x2="336.21889662550075" y2="178.71582392264105"/>
    <line class="link" targetId="5" sourceId="1" x1="329.0575627434086" y1="88.44243114146394" x2="217.36480361999898" y2="270.06374044976246"/>
    <line class="link" targetId="7" sourceId="1" x1="336.21889662550075" y1="178.71582392264105" x2="217.36480361999898" y2="270.06374044976246"/>
    <line class="link" targetId="8" sourceId="1" x1="374.3916577215314" y1="136.20230394477494" x2="217.36480361999898" y2="270.06374044976246"/>
    <line class="link" targetId="9" sourceId="1" x1="319.0875964819657" y1="232.1448655427809" x2="217.36480361999898" y2="270.06374044976246"/>
    <line class="link" targetId="1" sourceId="10" x1="217.36480361999898" y1="270.06374044976246" x2="160.9004952114292" y2="267.541026015628"/>
    <line class="link" targetId="1" sourceId="11" x1="217.36480361999898" y1="270.06374044976246" x2="183.70087152715536" y2="215.89545311650824"/>
    <line class="link" targetId="12" sourceId="1" x1="436.29423254711776" y1="149.60273108754066" x2="217.36480361999898" y2="270.06374044976246"/>
    <line class="link" targetId="13" sourceId="1" x1="368.321110681517" y1="260.5626444980088" x2="217.36480361999898" y2="270.06374044976246"/>
    <line class="link" targetId="13" sourceId="14" x1="368.321110681517" y1="260.5626444980088" x2="176.20110452541934" y2="373.6634580649466"/>
    <line class="link" targetId="13" sourceId="15" x1="368.321110681517" y1="260.5626444980088" x2="423.25830879424984" y2="271.4611403326982"/>
    <line class="link" targetId="16" sourceId="1" x1="272.54712215381903" y1="263.5487303821325" x2="217.36480361999898" y2="270.06374044976246"/>
    <line class="link" targetId="17" sourceId="1" x1="436.8220416610867" y1="326.498665679305" x2="217.36480361999898" y2="270.06374044976246"/>
    <line class="link" targetId="19" sourceId="11" x1="425.6007845632207" y1="213.90688056861495" x2="183.70087152715536" y2="215.89545311650824"/>
    <line class="link" targetId="20" sourceId="1" x1="321.0754014983138" y1="290.56042178840426" x2="217.36480361999898" y2="270.06374044976246"/>
    <line class="link" targetId="21" sourceId="22" x1="481.3735101011447" y1="362.9126079310381" x2="517.3793239978066" y2="277.8421716503328"/>
    <line class="link" targetId="21" sourceId="1" x1="481.3735101011447" y1="362.9126079310381" x2="217.36480361999898" y2="270.06374044976246"/>
    <line class="link" targetId="21" sourceId="14" x1="481.3735101011447" y1="362.9126079310381" x2="176.20110452541934" y2="373.6634580649466"/>
    <line class="link" targetId="21" sourceId="23" x1="481.3735101011447" y1="362.9126079310381" x2="458.86322971644455" y2="424.6890664545251"/>
    <line class="link" targetId="21" sourceId="19" x1="481.3735101011447" y1="362.9126079310381" x2="425.6007845632207" y2="213.90688056861495"/>
    <line class="link" targetId="21" sourceId="24" x1="481.3735101011447" y1="362.9126079310381" x2="459.5718094235225" y2="515.2508497264521"/>
    <line class="link" targetId="21" sourceId="15" x1="481.3735101011447" y1="362.9126079310381" x2="423.25830879424984" y2="271.4611403326982"/>
    <line class="link" targetId="25" sourceId="1" x1="345.260189953764" y1="341.5196647632135" x2="217.36480361999898" y2="270.06374044976246"/>
    <line class="link" targetId="25" sourceId="18" x1="345.260189953764" y1="341.5196647632135" x2="391.10107722646586" y2="422.13666235113095"/>
    <line class="link" targetId="25" sourceId="26" x1="345.260189953764" y1="341.5196647632135" x2="251.2391493103094" y2="163.61367695442533"/>
    <line class="link" targetId="25" sourceId="15" x1="345.260189953764" y1="341.5196647632135" x2="423.25830879424984" y2="271.4611403326982"/>
    <line class="link" targetId="6" sourceId="1" x1="253.65819989587604" y1="317.28377468071363" x2="217.36480361999898" y2="270.06374044976246"/>
    <line class="link" targetId="27" sourceId="1" x1="337.63134284001114" y1="398.7980330034289" x2="217.36480361999898" y2="270.06374044976246"/>
    <line class="link" targetId="28" sourceId="1" x1="361.6317307522719" y1="494.3067475412215" x2="217.36480361999898" y2="270.06374044976246"/>
    <line class="link" targetId="29" sourceId="1" x1="334.6214604721607" y1="550.31064050143" x2="217.36480361999898" y2="270.06374044976246"/>
    <line class="link" targetId="30" sourceId="1" x1="268.4420996243769" y1="557.1005123699331" x2="217.36480361999898" y2="270.06374044976246"/>
    <line class="link" targetId="31" sourceId="1" x1="283.12103022570585" y1="416.63515043821184" x2="217.36480361999898" y2="270.06374044976246"/>
    <line class="link" targetId="31" sourceId="2" x1="283.12103022570585" y1="416.63515043821184" x2="194.41480233366838" y2="320.8072176339672"/>
    <line class="link" targetId="32" sourceId="1" x1="230.40546730889253" y1="493.98268600423546" x2="217.36480361999898" y2="270.06374044976246"/>
    <line class="link" targetId="33" sourceId="5" x1="224.93122058161293" y1="426.5892018915705" x2="329.0575627434086" y2="88.44243114146394"/>
    <line class="link" targetId="33" sourceId="1" x1="224.93122058161293" y1="426.5892018915705" x2="217.36480361999898" y2="270.06374044976246"/>
    <line class="link" targetId="34" sourceId="1" x1="197.9677172987314" y1="555.4976544457686" x2="217.36480361999898" y2="270.06374044976246"/>
    <line class="link" targetId="35" sourceId="1" x1="163.67048949268218" y1="493.6851766014287" x2="217.36480361999898" y2="270.06374044976246"/>
    <line class="link" targetId="36" sourceId="1" x1="167.29541248232286" y1="429.4844929575702" x2="217.36480361999898" y2="270.06374044976246"/>
    <line class="link" targetId="37" sourceId="1" x1="115.38928094800008" y1="458.41728993958145" x2="217.36480361999898" y2="270.06374044976246"/>
    <line class="link" targetId="2" sourceId="1" x1="194.41480233366838" y1="320.8072176339672" x2="217.36480361999898" y2="270.06374044976246"/>
    <line class="link" targetId="2" sourceId="3" x1="194.41480233366838" y1="320.8072176339672" x2="141.52387537998106" y2="320.62153477969736"/>
    <line class="link" targetId="2" sourceId="38" x1="194.41480233366838" y1="320.8072176339672" x2="102.97948985015194" y2="274.9905427160929"/>
    <line class="link" targetId="14" sourceId="1" x1="176.20110452541934" y1="373.6634580649466" x2="217.36480361999898" y2="270.06374044976246"/>
    <line class="link" targetId="39" sourceId="1" x1="60.0989785366624" y1="370.38099381441555" x2="217.36480361999898" y2="270.06374044976246"/>
    <line class="link" targetId="3" sourceId="1" x1="141.52387537998106" y1="320.62153477969736" x2="217.36480361999898" y2="270.06374044976246"/>
    <line class="link" targetId="3" sourceId="2" x1="141.52387537998106" y1="320.62153477969736" x2="194.41480233366838" y2="320.8072176339672"/>
    <line class="link" targetId="3" sourceId="0" x1="141.52387537998106" y1="320.62153477969736" x2="239.65807554340043" y2="218.45630410779103"/>
    <line class="link" targetId="40" sourceId="1" x1="38.965679209837674" y1="293.6477152714159" x2="217.36480361999898" y2="270.06374044976246"/>
    <line class="link" targetId="10" sourceId="1" x1="160.9004952114292" y1="267.541026015628" x2="217.36480361999898" y2="270.06374044976246"/>
    <line class="link" targetId="38" sourceId="1" x1="102.97948985015194" y1="274.9905427160929" x2="217.36480361999898" y2="270.06374044976246"/>
    <line class="link" targetId="38" sourceId="2" x1="102.97948985015194" y1="274.9905427160929" x2="194.41480233366838" y2="320.8072176339672"/>
    <line class="link" targetId="41" sourceId="5" x1="96.57101714055602" y1="186.83110959244496" x2="329.0575627434086" y2="88.44243114146394"/>
    <line class="link" targetId="41" sourceId="1" x1="96.57101714055602" y1="186.83110959244496" x2="217.36480361999898" y2="270.06374044976246"/>
    <line class="link" targetId="11" sourceId="1" x1="183.70087152715536" y1="215.89545311650824" x2="217.36480361999898" y2="270.06374044976246"/>
    <line class="link" targetId="42" sourceId="1" x1="100.96931530730899" y1="128.99142407598055" x2="217.36480361999898" y2="270.06374044976246"/>
    <line class="link" targetId="43" sourceId="5" x1="195.00843273866084" y1="159.27709340741836" x2="329.0575627434086" y2="88.44243114146394"/>
    <line class="link" targetId="43" sourceId="1" x1="195.00843273866084" y1="159.27709340741836" x2="217.36480361999898" y2="270.06374044976246"/>
    <line class="link" targetId="44" sourceId="1" x1="148.945080834088" y1="95.94724368957887" x2="217.36480361999898" y2="270.06374044976246"/>
    <line class="link" targetId="26" sourceId="1" x1="251.2391493103094" y1="163.61367695442533" x2="217.36480361999898" y2="270.06374044976246"/>
    <line class="link" targetId="45" sourceId="1" x1="207.3398519444296" y1="101.7302612577254" x2="217.36480361999898" y2="270.06374044976246"/>
    <line class="link" targetId="46" sourceId="5" x1="263.40262963894577" y1="82.56212577625672" x2="329.0575627434086" y2="88.44243114146394"/>
    <line class="link" targetId="46" sourceId="1" x1="263.40262963894577" y1="82.56212577625672" x2="217.36480361999898" y2="270.06374044976246"/>
    <line class="link" targetId="47" sourceId="5" x1="301.3498735594071" y1="38.650500780060554" x2="329.0575627434086" y2="88.44243114146394"/>
    <line class="link" targetId="47" sourceId="1" x1="301.3498735594071" y1="38.650500780060554" x2="217.36480361999898" y2="270.06374044976246"/>
  </g>
  <g class="nodes">
    <g id="0"
        onmouseover="mo(this)" onmouseout="mleave(this)">
      <circle class="node" r="19.2" cx="239.65807554340043" cy="218.45630410779103" fill="#8b2453"><title>ineverycrea-argentina</title></circle>
      <a class="bubble" href="https://lod-cloud.net/dataset/ineverycrea-argentina">
          <text x="239.65807554340043" y="218.45630410779103">Inever...</text>
      </a>
    </g>
    <g id="1"
        onmouseover="mo(this)" onmouseout="mleave(this)">
      <circle class="node" r="25.0" cx="217.36480361999898" cy="270.06374044976246" fill="#d84d7c"><title>dbpedia</title></circle>
      <a class="bubble" href="https://lod-cloud.net/dataset/dbpedia">
          <text x="217.36480361999898" y="270.06374044976246">DBpedia</text>
      </a>
    </g>
    <g id="2"
        onmouseover="mo(this)" onmouseout="mleave(this)">
      <circle class="node" r="21.5" cx="194.41480233366838" cy="320.8072176339672" fill="#8b2453"><title>didactalia</title></circle>
      <a class="bubble" href="https://lod-cloud.net/dataset/didactalia">
          <text x="194.41480233366838" y="320.8072176339672">Didact...</text>
      </a>
    </g>
    <g id="3"
        onmouseover="mo(this)" onmouseout="mleave(this)">
      <circle class="node" r="21.5" cx="141.52387537998106" cy="320.62153477969736" fill="#8b2453"><title>ineverycrea</title></circle>
      <a class="bubble" href="https://lod-cloud.net/dataset/ineverycrea">
          <text x="141.52387537998106" y="320.62153477969736">Inever...</text>
      </a>
    </g>
    <g id="4"
        onmouseover="mo(this)" onmouseout="mleave(this)">
      <circle class="node" r="21.7" cx="299.7584126884038" cy="136.00680031136042" fill="#8b2453"><title>gnoss-com-a-social-and-semantic-platform</title></circle>
      <a class="bubble" href="https://lod-cloud.net/dataset/gnoss-com-a-social-and-semantic-platform">
          <text x="299.7584126884038" y="136.00680031136042">GNOSS....</text>
      </a>
    </g>
    <g id="5"
        onmouseover="mo(this)" onmouseout="mleave(this)">
      <circle class="node" r="23.3" cx="329.0575627434086" cy="88.44243114146394" fill="#8b2453"><title>dblp-deusto-gnoss</title></circle>
      <a class="bubble" href="https://lod-cloud.net/dataset/dblp-deusto-gnoss">
          <text x="329.0575627434086" y="88.44243114146394">DBLP R...</text>
      </a>
    </g>
    <g id="6"
        onmouseover="mo(this)" onmouseout="mleave(this)">
      <circle class="node" r="20.6" cx="253.65819989587604" cy="317.28377468071363" fill="#8b2453"><title>miguiadeviajes-gnoss</title></circle>
      <a class="bubble" href="https://lod-cloud.net/dataset/miguiadeviajes-gnoss">
          <text x="253.65819989587604" y="317.28377468071363">Mi Guí...</text>
      </a>
    </g>
    <g id="7"
        onmouseover="mo(this)" onmouseout="mleave(this)">
      <circle class="node" r="19.9" cx="336.21889662550075" cy="178.71582392264105" fill="#8b2453"><title>museosespania-gnoss</title></circle>
      <a class="bubble" href="https://lod-cloud.net/dataset/museosespania-gnoss">
          <text x="336.21889662550075" y="178.71582392264105">Museos...</text>
      </a>
    </g>
    <g id="8"
        onmouseover="mo(this)" onmouseout="mleave(this)">
      <circle class="node" r="22.0" cx="374.3916577215314" cy="136.20230394477494" fill="#d84d7c"><title>elviajero</title></circle>
      <a class="bubble" href="https://lod-cloud.net/dataset/elviajero">
          <text x="374.3916577215314" y="136.20230394477494">El Via...</text>
      </a>
    </g>
    <g id="9"
        onmouseover="mo(this)" onmouseout="mleave(this)">
      <circle class="node" r="18.0" cx="319.0875964819657" cy="232.1448655427809" fill="#d84d7c"><title>klappstuhlclub</title></circle>
      <a class="bubble" href="https://lod-cloud.net/dataset/klappstuhlclub">
          <text x="319.0875964819657" y="232.1448655427809">Klapps...</text>
      </a>
    </g>
    <g id="10"
        onmouseover="mo(this)" onmouseout="mleave(this)">
      <circle class="node" r="22.7" cx="160.9004952114292" cy="267.541026015628" fill="#d84d7c"><title>flickr-wrappr</title></circle>
      <a class="bubble" href="https://lod-cloud.net/dataset/flickr-wrappr">
          <text x="160.9004952114292" y="267.541026015628">flickr...</text>
      </a>
    </g>
    <g id="11"
        onmouseover="mo(this)" onmouseout="mleave(this)">
      <circle class="node" r="19.3" cx="183.70087152715536" cy="215.89545311650824" fill="#d84d7c"><title>revyu</title></circle>
      <a class="bubble" href="https://lod-cloud.net/dataset/revyu">
          <text x="183.70087152715536" y="215.89545311650824">Revyu....</text>
      </a>
    </g>
    <g id="12"
        onmouseover="mo(this)" onmouseout="mleave(this)">
      <circle class="node" r="19.9" cx="436.29423254711776" cy="149.60273108754066" fill="#8b2453"><title>proyectoapadrina</title></circle>
      <a class="bubble" href="https://lod-cloud.net/dataset/proyectoapadrina">
          <text x="436.29423254711776" y="149.60273108754066">Proyec...</text>
      </a>
    </g>
    <g id="13"
        onmouseover="mo(this)" onmouseout="mleave(this)">
      <circle class="node" r="15.0" cx="368.321110681517" cy="260.5626444980088" fill="#d84d7c"><title>myopenlink-dataspaces</title></circle>
      <a class="bubble" href="https://lod-cloud.net/dataset/myopenlink-dataspaces">
          <text x="368.321110681517" y="260.5626444980088">myopen...</text>
      </a>
    </g>
    <g id="14"
        onmouseover="mo(this)" onmouseout="mleave(this)">
      <circle class="node" r="15.0" cx="176.20110452541934" cy="373.6634580649466" fill="#d84d7c"><title>openlinksw-dataspaces</title></circle>
      <a class="bubble" href="https://lod-cloud.net/dataset/openlinksw-dataspaces">
          <text x="176.20110452541934" y="373.6634580649466">openli...</text>
      </a>
    </g>
    <g id="15"
        onmouseover="mo(this)" onmouseout="mleave(this)">
      <circle class="node" r="15.0" cx="423.25830879424984" cy="271.4611403326982" fill="#d84d7c"><title>wordpress</title></circle>
      <a class="bubble" href="https://lod-cloud.net/dataset/wordpress">
          <text x="423.25830879424984" y="271.4611403326982">wordpress</text>
      </a>
    </g>
    <g id="16"
        onmouseover="mo(this)" onmouseout="mleave(this)">
      <circle class="node" r="21.6" cx="272.54712215381903" cy="263.5487303821325" fill="#d84d7c"><title>lotico</title></circle>
      <a class="bubble" href="https://lod-cloud.net/dataset/lotico">
          <text x="272.54712215381903" y="263.5487303821325">Lotico</text>
      </a>
    </g>
    <g id="17"
        onmouseover="mo(this)" onmouseout="mleave(this)">
      <circle class="node" r="19.3" cx="436.8220416610867" cy="326.498665679305" fill="#d84d7c"><title>utpl-lod</title></circle>
      <a class="bubble" href="https://lod-cloud.net/dataset/utpl-lod">
          <text x="436.8220416610867" y="326.498665679305">Univer...</text>
      </a>
    </g>
    <g id="18"
        onmouseover="mo(this)" onmouseout="mleave(this)">
      <circle class="node" r="23.6" cx="391.10107722646586" cy="422.13666235113095" fill="#d84d7c"><title>linkedmarkmail</title></circle>
      <a class="bubble" href="https://lod-cloud.net/dataset/linkedmarkmail">
          <text x="391.10107722646586" y="422.13666235113095">Linked...</text>
      </a>
    </g>
    <g id="19"
        onmouseover="mo(this)" onmouseout="mleave(this)">
      <circle class="node" r="19.7" cx="425.6007845632207" cy="213.90688056861495" fill="#d84d7c"><title>semanticweb-org</title></circle>
      <a class="bubble" href="https://lod-cloud.net/dataset/semanticweb-org">
          <text x="425.6007845632207" y="213.90688056861495">semant...</text>
      </a>
    </g>
    <g id="20"
        onmouseover="mo(this)" onmouseout="mleave(this)">
      <circle class="node" r="21.7" cx="321.0754014983138" cy="290.56042178840426" fill="#d84d7c"><title>twarql</title></circle>
      <a class="bubble" href="https://lod-cloud.net/dataset/twarql">
          <text x="321.0754014983138" y="290.56042178840426">Twarql</text>
      </a>
    </g>
    <g id="21"
        onmouseover="mo(this)" onmouseout="mleave(this)">
      <circle class="node" r="15.0" cx="481.3735101011447" cy="362.9126079310381" fill="#d84d7c"><title>semanlink</title></circle>
      <a class="bubble" href="https://lod-cloud.net/dataset/semanlink">
          <text x="481.3735101011447" y="362.9126079310381">semanlink</text>
      </a>
    </g>
    <g id="22"
        onmouseover="mo(this)" onmouseout="mleave(this)">
      <circle class="node" r="15.0" cx="517.3793239978066" cy="277.8421716503328" fill="#d84d7c"><title>apache</title></circle>
      <a class="bubble" href="https://lod-cloud.net/dataset/apache">
          <text x="517.3793239978066" y="277.8421716503328">apache</text>
      </a>
    </g>
    <g id="23"
        onmouseover="mo(this)" onmouseout="mleave(this)">
      <circle class="node" r="18.9" cx="458.86322971644455" cy="424.6890664545251" fill="#d84d7c"><title>prefix-cc</title></circle>
      <a class="bubble" href="https://lod-cloud.net/dataset/prefix-cc">
          <text x="458.86322971644455" y="424.6890664545251">prefix.cc</text>
      </a>
    </g>
    <g id="24"
        onmouseover="mo(this)" onmouseout="mleave(this)">
      <circle class="node" r="15.0" cx="459.5718094235225" cy="515.2508497264521" fill="#d84d7c"><title>typepad</title></circle>
      <a class="bubble" href="https://lod-cloud.net/dataset/typepad">
          <text x="459.5718094235225" y="515.2508497264521">typepad</text>
      </a>
    </g>
    <g id="25"
        onmouseover="mo(this)" onmouseout="mleave(this)">
      <circle class="node" r="15.0" cx="345.260189953764" cy="341.5196647632135" fill="#d84d7c"><title>berlios</title></circle>
      <a class="bubble" href="https://lod-cloud.net/dataset/berlios">
          <text x="345.260189953764" y="341.5196647632135">berlios</text>
      </a>
    </g>
    <g id="26"
        onmouseover="mo(this)" onmouseout="mleave(this)">
      <circle class="node" r="20.8" cx="251.2391493103094" cy="163.61367695442533" fill="#d84d7c"><title>rdfohloh</title></circle>
      <a class="bubble" href="https://lod-cloud.net/dataset/rdfohloh">
          <text x="251.2391493103094" y="163.61367695442533">RDFohloh</text>
      </a>
    </g>
    <g id="27"
        onmouseover="mo(this)" onmouseout="mleave(this)">
      <circle class="node" r="18.7" cx="337.63134284001114" cy="398.7980330034289" fill="#8b2453"><title>ce4r</title></circle>
      <a class="bubble" href="https://lod-cloud.net/dataset/ce4r">
          <text x="337.63134284001114" y="398.7980330034289">CE4R K...</text>
      </a>
    </g>
    <g id="28"
        onmouseover="mo(this)" onmouseout="mleave(this)">
      <circle class="node" r="18.6" cx="361.6317307522719" cy="494.3067475412215" fill="#d84d7c"><title>the-living-lod-cloud</title></circle>
      <a class="bubble" href="https://lod-cloud.net/dataset/the-living-lod-cloud">
          <text x="361.6317307522719" y="494.3067475412215">The Li...</text>
      </a>
    </g>
    <g id="29"
        onmouseover="mo(this)" onmouseout="mleave(this)">
      <circle class="node" r="19.9" cx="334.6214604721607" cy="550.31064050143" fill="#8b2453"><title>aegp-spanish-textile-and-clothing-association</title></circle>
      <a class="bubble" href="https://lod-cloud.net/dataset/aegp-spanish-textile-and-clothing-association">
          <text x="334.6214604721607" y="550.31064050143">AEGP, ...</text>
      </a>
    </g>
    <g id="30"
        onmouseover="mo(this)" onmouseout="mleave(this)">
      <circle class="node" r="17.6" cx="268.4420996243769" cy="557.1005123699331" fill="#d84d7c"><title>universidad-de-cuenca-linkeddata</title></circle>
      <a class="bubble" href="https://lod-cloud.net/dataset/universidad-de-cuenca-linkeddata">
          <text x="268.4420996243769" y="557.1005123699331">Univer...</text>
      </a>
    </g>
    <g id="31"
        onmouseover="mo(this)" onmouseout="mleave(this)">
      <circle class="node" r="21.0" cx="283.12103022570585" cy="416.63515043821184" fill="#8b2453"><title>biblioteca-escolar-digital-cita</title></circle>
      <a class="bubble" href="https://lod-cloud.net/dataset/biblioteca-escolar-digital-cita">
          <text x="283.12103022570585" y="416.63515043821184">Biblio...</text>
      </a>
    </g>
    <g id="32"
        onmouseover="mo(this)" onmouseout="mleave(this)">
      <circle class="node" r="18.8" cx="230.40546730889253" cy="493.98268600423546" fill="#8b2453"><title>red-uno-internacional-santillana</title></circle>
      <a class="bubble" href="https://lod-cloud.net/dataset/red-uno-internacional-santillana">
          <text x="230.40546730889253" y="493.98268600423546">Red Un...</text>
      </a>
    </g>
    <g id="33"
        onmouseover="mo(this)" onmouseout="mleave(this)">
      <circle class="node" r="19.6" cx="224.93122058161293" cy="426.5892018915705" fill="#8b2453"><title>prospects-and-trends-gnoss</title></circle>
      <a class="bubble" href="https://lod-cloud.net/dataset/prospects-and-trends-gnoss">
          <text x="224.93122058161293" y="426.5892018915705">Prospe...</text>
      </a>
    </g>
    <g id="34"
        onmouseover="mo(this)" onmouseout="mleave(this)">
      <circle class="node" r="20.0" cx="197.9677172987314" cy="555.4976544457686" fill="#d84d7c"><title>ichoose</title></circle>
      <a class="bubble" href="https://lod-cloud.net/dataset/ichoose">
          <text x="197.9677172987314" y="555.4976544457686">ichoose</text>
      </a>
    </g>
    <g id="35"
        onmouseover="mo(this)" onmouseout="mleave(this)">
      <circle class="node" r="20.3" cx="163.67048949268218" cy="493.6851766014287" fill="#d84d7c"><title>john-goodwins-family-tree</title></circle>
      <a class="bubble" href="https://lod-cloud.net/dataset/john-goodwins-family-tree">
          <text x="163.67048949268218" y="493.6851766014287">John G...</text>
      </a>
    </g>
    <g id="36"
        onmouseover="mo(this)" onmouseout="mleave(this)">
      <circle class="node" r="21.5" cx="167.29541248232286" cy="429.4844929575702" fill="#d84d7c"><title>my-family-lineage</title></circle>
      <a class="bubble" href="https://lod-cloud.net/dataset/my-family-lineage">
          <text x="167.29541248232286" y="429.4844929575702">My Fam...</text>
      </a>
    </g>
    <g id="37"
        onmouseover="mo(this)" onmouseout="mleave(this)">
      <circle class="node" r="19.2" cx="115.38928094800008" cy="458.41728993958145" fill="#8b2453"><title>green-competitiveness-gnoss</title></circle>
      <a class="bubble" href="https://lod-cloud.net/dataset/green-competitiveness-gnoss">
          <text x="115.38928094800008" y="458.41728993958145">Green ...</text>
      </a>
    </g>
    <g id="38"
        onmouseover="mo(this)" onmouseout="mleave(this)">
      <circle class="node" r="20.0" cx="102.97948985015194" cy="274.9905427160929" fill="#8b2453"><title>interactivemaps-gnoss</title></circle>
      <a class="bubble" href="https://lod-cloud.net/dataset/interactivemaps-gnoss">
          <text x="102.97948985015194" y="274.9905427160929">Intera...</text>
      </a>
    </g>
    <g id="39"
        onmouseover="mo(this)" onmouseout="mleave(this)">
      <circle class="node" r="18.8" cx="60.0989785366624" cy="370.38099381441555" fill="#8b2453"><title>garnicaplywood</title></circle>
      <a class="bubble" href="https://lod-cloud.net/dataset/garnicaplywood">
          <text x="60.0989785366624" y="370.38099381441555">Garnic...</text>
      </a>
    </g>
    <g id="40"
        onmouseover="mo(this)" onmouseout="mleave(this)">
      <circle class="node" r="18.9" cx="38.965679209837674" cy="293.6477152714159" fill="#8b2453"><title>artenuevosmedios-gnoss</title></circle>
      <a class="bubble" href="https://lod-cloud.net/dataset/artenuevosmedios-gnoss">
          <text x="38.965679209837674" y="293.6477152714159">Entorn...</text>
      </a>
    </g>
    <g id="41"
        onmouseover="mo(this)" onmouseout="mleave(this)">
      <circle class="node" r="20.4" cx="96.57101714055602" cy="186.83110959244496" fill="#8b2453"><title>athelia-rfid</title></circle>
      <a class="bubble" href="https://lod-cloud.net/dataset/athelia-rfid">
          <text x="96.57101714055602" y="186.83110959244496">Atheli...</text>
      </a>
    </g>
    <g id="42"
        onmouseover="mo(this)" onmouseout="mleave(this)">
      <circle class="node" r="19.3" cx="100.96931530730899" cy="128.99142407598055" fill="#8b2453"><title>deustoentrepreneurship</title></circle>
      <a class="bubble" href="https://lod-cloud.net/dataset/deustoentrepreneurship">
          <text x="100.96931530730899" y="128.99142407598055">Deusto...</text>
      </a>
    </g>
    <g id="43"
        onmouseover="mo(this)" onmouseout="mleave(this)">
      <circle class="node" r="19.7" cx="195.00843273866084" cy="159.27709340741836" fill="#8b2453"><title>deustotech</title></circle>
      <a class="bubble" href="https://lod-cloud.net/dataset/deustotech">
          <text x="195.00843273866084" y="159.27709340741836">Deusto...</text>
      </a>
    </g>
    <g id="44"
        onmouseover="mo(this)" onmouseout="mleave(this)">
      <circle class="node" r="20.8" cx="148.945080834088" cy="95.94724368957887" fill="#d84d7c"><title>my-experiment</title></circle>
      <a class="bubble" href="https://lod-cloud.net/dataset/my-experiment">
          <text x="148.945080834088" y="95.94724368957887">myExpe...</text>
      </a>
    </g>
    <g id="45"
        onmouseover="mo(this)" onmouseout="mleave(this)">
      <circle class="node" r="21.7" cx="207.3398519444296" cy="101.7302612577254" fill="#d84d7c"><title>yovisto</title></circle>
      <a class="bubble" href="https://lod-cloud.net/dataset/yovisto">
          <text x="207.3398519444296" y="101.7302612577254">Yovist...</text>
      </a>
    </g>
    <g id="46"
        onmouseover="mo(this)" onmouseout="mleave(this)">
      <circle class="node" r="20.2" cx="263.40262963894577" cy="82.56212577625672" fill="#8b2453"><title>open-data-risp</title></circle>
      <a class="bubble" href="https://lod-cloud.net/dataset/open-data-risp">
          <text x="263.40262963894577" y="82.56212577625672">Open D...</text>
      </a>
    </g>
    <g id="47"
        onmouseover="mo(this)" onmouseout="mleave(this)">
      <circle class="node" r="19.8" cx="301.3498735594071" cy="38.650500780060554" fill="#8b2453"><title>arthroscopy</title></circle>
      <a class="bubble" href="https://lod-cloud.net/dataset/arthroscopy">
          <text x="301.3498735594071" y="38.650500780060554">Arthro...</text>
      </a>
    </g>
    <g transform="translate(20,617) scale(0.8678881388621021)">
      <text style="font-family: Verdana, Arial;">The User Generated Linked Open Data Cloud from lod-cloud.net</text>
    </g>
      <g transform="translate(480, 600)">
<svg
   xmlns:dc="http://purl.org/dc/elements/1.1/"
   xmlns:cc="http://web.resource.org/cc/"
   xmlns:rdf="http://www.w3.org/1999/02/22-rdf-syntax-ns#"
   xmlns:svg="http://www.w3.org/2000/svg"
   xmlns="http://www.w3.org/2000/svg"
   xmlns:sodipodi="http://sodipodi.sourceforge.net/DTD/sodipodi-0.dtd"
   xmlns:inkscape="http://www.inkscape.org/namespaces/inkscape"
   width="120"
   height="42"
   id="svg2759"
   sodipodi:version="0.32"
   inkscape:version="0.45+devel"
   version="1.0"
   sodipodi:docname="by.svg"
   inkscape:output_extension="org.inkscape.output.svg.inkscape">
  <defs
     id="defs2761" />
  <sodipodi:namedview
     id="base"
     pagecolor="#ffffff"
     bordercolor="#8b8b8b"
     borderopacity="1"
     gridtolerance="10000"
     guidetolerance="10"
     objecttolerance="10"
     inkscape:pageopacity="0.0"
     inkscape:pageshadow="2"
     inkscape:zoom="1"
     inkscape:cx="179"
     inkscape:cy="89.569904"
     inkscape:document-units="px"
     inkscape:current-layer="layer1"
     width="120px"
     height="42px"
     inkscape:showpageshadow="false"
     inkscape:window-width="1198"
     inkscape:window-height="624"
     inkscape:window-x="396"
     inkscape:window-y="242" />
  <metadata
     id="metadata2764">
    <rdf:RDF>
      <cc:Work
         rdf:about="">
        <dc:format>image/svg+xml</dc:format>
        <dc:type
           rdf:resource="http://purl.org/dc/dcmitype/StillImage" />
      </cc:Work>
    </rdf:RDF>
  </metadata>
  <g
     inkscape:label="Layer 1"
     inkscape:groupmode="layer"
     id="layer1">
    <g
       transform="matrix(0.9937728,0,0,0.9936696,-177.69267,6.25128e-7)"
       id="g260"
       inkscape:export-filename="/mnt/hgfs/Bov/Documents/Work/2007/cc/identity/srr buttons/big/by.png"
       inkscape:export-xdpi="300.23013"
       inkscape:export-ydpi="300.23013">
	<path
   id="path3817_1_"
   nodetypes="ccccccc"
   d="M 181.96579,0.51074 L 296.02975,0.71338 C 297.6235,0.71338 299.04733,0.47705 299.04733,3.89404 L 298.90768,41.46093 L 179.08737,41.46093 L 179.08737,3.75439 C 179.08737,2.06934 179.25046,0.51074 181.96579,0.51074 z"
   style="fill:#aab2ab" />

	<path
   d="M 297.29636,0 L 181.06736,0 C 179.82078,0 178.80613,1.01416 178.80613,2.26074 L 178.80613,41.75732 C 178.80613,42.03906 179.03513,42.26757 179.31687,42.26757 L 299.04734,42.26757 C 299.32908,42.26757 299.55808,42.03905 299.55808,41.75732 L 299.55808,2.26074 C 299.55807,1.01416 298.54343,0 297.29636,0 z M 181.06735,1.02148 L 297.29635,1.02148 C 297.98043,1.02148 298.53658,1.57714 298.53658,2.26074 C 298.53658,2.26074 298.53658,18.20898 298.53658,29.71045 L 215.19234,29.71045 C 212.14742,35.21631 206.28121,38.95459 199.54879,38.95459 C 192.81344,38.95459 186.94869,35.21973 183.90524,29.71045 L 179.8276,29.71045 C 179.8276,18.20899 179.8276,2.26074 179.8276,2.26074 C 179.82761,1.57715 180.38376,1.02148 181.06735,1.02148 z"
   id="path263" />

	<g
   enable-background="new    "
   id="g265">
		<path
   d="M 253.07761,32.95605 C 253.39499,32.95605 253.68503,32.98437 253.94773,33.04003 C 254.20945,33.09569 254.43308,33.18749 254.62058,33.31542 C 254.8071,33.44237 254.95261,33.6123 255.05515,33.82323 C 255.15769,34.03514 255.20945,34.29589 255.20945,34.60741 C 255.20945,34.94335 255.13328,35.22264 254.97996,35.44628 C 254.82762,35.67089 254.60105,35.85351 254.30223,35.99706 C 254.71434,36.11522 255.02196,36.32226 255.22508,36.61815 C 255.4282,36.91404 255.52977,37.27049 255.52977,37.68749 C 255.52977,38.02343 255.46434,38.31444 255.33348,38.56054 C 255.20262,38.80566 255.02586,39.00683 254.80516,39.1621 C 254.58348,39.31835 254.33055,39.43358 254.04735,39.5078 C 253.76317,39.583 253.47215,39.6201 253.17235,39.6201 L 249.936,39.6201 L 249.936,32.95604 L 253.07761,32.95604 L 253.07761,32.95605 z M 252.89011,35.65137 C 253.15183,35.65137 253.36667,35.58887 253.53562,35.46485 C 253.70359,35.34083 253.78757,35.13965 253.78757,34.86036 C 253.78757,34.70509 253.75925,34.57716 253.70359,34.47852 C 253.64695,34.37891 253.57273,34.30176 253.47898,34.24512 C 253.38523,34.18946 253.27781,34.15039 253.15671,34.12891 C 253.03561,34.10743 252.90866,34.09668 252.77878,34.09668 L 251.40476,34.09668 L 251.40476,35.65137 L 252.89011,35.65137 z M 252.97604,38.47949 C 253.11959,38.47949 253.25631,38.46582 253.38717,38.4375 C 253.51803,38.40918 253.63326,38.3623 253.73385,38.29785 C 253.83346,38.23242 253.91256,38.14355 253.97213,38.03125 C 254.0317,37.91992 254.061,37.77637 254.061,37.60254 C 254.061,37.26074 253.96432,37.0166 253.77096,36.87012 C 253.5776,36.72461 253.32174,36.65137 253.00436,36.65137 L 251.40475,36.65137 L 251.40475,38.47949 L 252.97604,38.47949 z"
   id="path267"
   style="fill:#ffffff" />

		<path
   d="M 255.78854,32.95605 L 257.43209,32.95605 L 258.99264,35.58789 L 260.54342,32.95605 L 262.17721,32.95605 L 259.70358,37.0625 L 259.70358,39.62012 L 258.23483,39.62012 L 258.23483,37.02539 L 255.78854,32.95605 z"
   id="path269"
   style="fill:#ffffff" />

	</g>

	<g
   id="g5908_1_"
   transform="matrix(0.872921,0,0,0.872921,50.12536,143.2144)">
		
			<path
   id="path5906_1_"
   cx="296.35416"
   ry="22.939548"
   cy="264.3577"
   type="arc"
   rx="22.939548"
   d="M 186.90065,-141.46002 C 186.90623,-132.77923 179.87279,-125.73852 171.19257,-125.73291 C 162.51235,-125.72736 155.47051,-132.76025 155.46547,-141.44098 C 155.46547,-141.44714 155.46547,-141.45331 155.46547,-141.46002 C 155.46043,-150.14081 162.49333,-157.18152 171.17355,-157.18658 C 179.8549,-157.19213 186.89561,-150.15924 186.90065,-141.47845 C 186.90065,-141.4729 186.90065,-141.46619 186.90065,-141.46002 z"
   style="fill:#ffffff" />

		<g
   id="g5706_1_"
   transform="translate(-289.6157,99.0653)">
			<path
   id="path5708_1_"
   d="M 473.57574,-253.32751 C 477.06115,-249.8421 478.80413,-245.5736 478.80413,-240.52532 C 478.80413,-235.47594 477.09136,-231.25329 473.66582,-227.85741 C 470.03051,-224.28081 465.734,-222.49309 460.77635,-222.49309 C 455.87858,-222.49309 451.65648,-224.26628 448.11122,-227.81261 C 444.56541,-231.35845 442.79277,-235.59563 442.79277,-240.52532 C 442.79277,-245.45391 444.56541,-249.7213 448.11122,-253.32751 C 451.56642,-256.81402 455.7885,-258.557 460.77635,-258.557 C 465.82465,-258.55701 470.09039,-256.81403 473.57574,-253.32751 z M 450.45776,-250.98267 C 447.51104,-248.00629 446.03823,-244.51978 446.03823,-240.52033 C 446.03823,-236.52198 447.49651,-233.06507 450.41247,-230.14966 C 453.32897,-227.23316 456.80096,-225.77545 460.82952,-225.77545 C 464.85808,-225.77545 468.35967,-227.24768 471.33605,-230.19385 C 474.16198,-232.9303 475.57549,-236.37091 475.57549,-240.52033 C 475.57549,-244.63837 474.13903,-248.13379 471.26781,-251.00501 C 468.39714,-253.87568 464.9179,-255.31159 460.82952,-255.31159 C 456.74112,-255.31158 453.28314,-253.86841 450.45776,-250.98267 z M 458.21225,-242.27948 C 457.76196,-243.26117 457.08795,-243.75232 456.18903,-243.75232 C 454.59986,-243.75232 453.80558,-242.68225 453.80558,-240.54321 C 453.80558,-238.40368 454.59986,-237.33471 456.18903,-237.33471 C 457.23841,-237.33471 457.98795,-237.85546 458.43769,-238.89922 L 460.64045,-237.72625 C 459.59052,-235.86077 458.01536,-234.92779 455.91496,-234.92779 C 454.29506,-234.92779 452.99733,-235.42449 452.0229,-236.4168 C 451.0468,-237.41021 450.56016,-238.77953 450.56016,-240.52532 C 450.56016,-242.24035 451.06245,-243.60186 452.06764,-244.61034 C 453.07283,-245.61888 454.32466,-246.12291 455.82545,-246.12291 C 458.04557,-246.12291 459.63526,-245.24803 460.59626,-243.50005 L 458.21225,-242.27948 z M 468.57562,-242.27948 C 468.12475,-243.26117 467.46417,-243.75232 466.5932,-243.75232 C 464.97217,-243.75232 464.16107,-242.68225 464.16107,-240.54321 C 464.16107,-238.40368 464.97217,-237.33471 466.5932,-237.33471 C 467.64429,-237.33471 468.38037,-237.85546 468.80048,-238.89922 L 471.05249,-237.72625 C 470.00421,-235.86077 468.43127,-234.92779 466.33478,-234.92779 C 464.7171,-234.92779 463.42218,-235.42449 462.44831,-236.4168 C 461.47614,-237.41021 460.98896,-238.77953 460.98896,-240.52532 C 460.98896,-242.24035 461.48341,-243.60186 462.47181,-244.61034 C 463.45966,-245.61888 464.71711,-246.12291 466.24531,-246.12291 C 468.4615,-246.12291 470.04896,-245.24803 471.0066,-243.50005 L 468.57562,-242.27948 z" />

		</g>

	</g>

	<g
   id="g275">
		<circle
   cx="255.55124"
   cy="15.31348"
   r="10.80664"
   id="circle277"
   sodipodi:cx="255.55124"
   sodipodi:cy="15.31348"
   sodipodi:rx="10.80664"
   sodipodi:ry="10.80664"
   style="fill:#ffffff" />

		<g
   id="g279">
			<path
   d="M 258.67819,12.18701 C 258.67819,11.77051 258.3403,11.4331 257.92526,11.4331 L 253.15182,11.4331 C 252.73678,11.4331 252.39889,11.7705 252.39889,12.18701 L 252.39889,16.95996 L 253.72994,16.95996 L 253.72994,22.61182 L 257.34713,22.61182 L 257.34713,16.95996 L 258.67818,16.95996 L 258.67818,12.18701 L 258.67819,12.18701 z"
   id="path281" />

			<circle
   cx="255.53854"
   cy="9.1723604"
   r="1.63281"
   id="circle283"
   sodipodi:cx="255.53854"
   sodipodi:cy="9.1723604"
   sodipodi:rx="1.63281"
   sodipodi:ry="1.63281" />

		</g>

		<path
   clip-rule="evenodd"
   d="M 255.5239,3.40723 C 252.29148,3.40723 249.55515,4.53516 247.31589,6.79102 C 245.01804,9.12452 243.8696,11.88672 243.8696,15.07569 C 243.8696,18.26466 245.01804,21.00733 247.31589,23.30225 C 249.61374,25.59668 252.35007,26.74414 255.5239,26.74414 C 258.73679,26.74414 261.52195,25.58789 263.87742,23.27295 C 266.09715,21.07568 267.2075,18.34326 267.2075,15.07568 C 267.2075,11.8081 266.07762,9.04687 263.8198,6.79101 C 261.56003,4.53516 258.79538,3.40723 255.5239,3.40723 z M 255.55319,5.50684 C 258.20163,5.50684 260.45065,6.44092 262.30026,8.30811 C 264.1694,10.15528 265.10397,12.41114 265.10397,15.07569 C 265.10397,17.75928 264.18893,19.98633 262.35885,21.75587 C 260.43014,23.66212 258.16256,24.61476 255.55319,24.61476 C 252.94284,24.61476 250.69381,23.67189 248.80612,21.78517 C 246.91647,19.89845 245.97311,17.66212 245.97311,15.0757 C 245.97311,12.48879 246.92721,10.23341 248.83541,8.30812 C 250.6655,6.44092 252.90475,5.50684 255.55319,5.50684 z"
   id="path285"
   style="fill-rule:evenodd" />

	</g>

</g>
  </g>
</svg>

      </g>
  </g>
</svg>
