<svg
    xmlns="http://www.w3.org/2000/svg" width="600" height="642">
  <script xmlns:xlink="http://www.w3.org/1999/xlink" xlink:href="http://lod-cloud.net/versions/2017-08-22/both.js"/>
  <style>
    circle { 
        stroke: #333;
        stroke-width: 1.5px;
        fill-opacity: 0.8; 
    } 
    .bubble text {
        text-anchor: middle;
        font-size: .5em;
    }
    .circle-active circle { 
        stroke: #e80000;  
        stroke-width: 3px; 
    } 
    .link { 
        stroke: #e0270b;  
        stroke: #555;  
        stroke-opacity: 0.7;  
        stroke-width: 1px;  
        stroke-dasharray:none;
    } 
    .link-activeIncoming {  
        stroke-opacity: 1; 
        stroke-width: 10;  
        stroke: #be1b38; 
    } 
    .link-activeOutgoung {  
        stroke-opacity: 1;  
        stroke-width: 10; 
        stroke: #1AC21D;  
    } 
    .link-activeBoth {  
        stroke-opacity: 1;  
        stroke: #1AC21D;  
        stroke-width: 10;  
        stroke-dasharray:5,10,5;}
  </style>
  <g transform="scale(0.5)">
    <g id="legend">
      <text transform="translate(30,30)" style="font-family:Verdana, Arial;font-size:200%;text-decoration:underline;">Legend</text>
      <rect width="310" height="35" style="fill:#8b2453" transform="translate(30,45)"/>
      <text transform="translate(35,72)" style="font-family:Verdana, Arial;font-size:200%">SIOC</text>
      <rect width="310" height="35" style="fill:#d84d7c" transform="translate(30,85)"/>
      <text transform="translate(35,112)" style="font-family:Verdana, Arial;font-size:200%">Other</text>
    </g>
  </g>
  <g class="links">
    <line class="link" targetId="0" sourceId="1" x1="510.26760231946344" y1="245.4544848891999" x2="314.9539637833853" y2="349.54405822256473"/>
    <line class="link" targetId="2" sourceId="3" x1="316.7293884074011" y1="224.27496510063867" x2="302.92978358679267" y2="295.51480072721284"/>
    <line class="link" targetId="2" sourceId="4" x1="316.7293884074011" y1="224.27496510063867" x2="364.6241164532212" y2="323.54771784117594"/>
    <line class="link" targetId="2" sourceId="5" x1="316.7293884074011" y1="224.27496510063867" x2="267.8406148507201" y2="196.95918637412086"/>
    <line class="link" targetId="6" sourceId="3" x1="362.2893383644994" y1="111.68048967096075" x2="302.92978358679267" y2="295.51480072721284"/>
    <line class="link" targetId="7" sourceId="3" x1="338.7604698530698" y1="171.54806244518153" x2="302.92978358679267" y2="295.51480072721284"/>
    <line class="link" targetId="8" sourceId="3" x1="415.17864043066896" y1="139.32167580664978" x2="302.92978358679267" y2="295.51480072721284"/>
    <line class="link" targetId="9" sourceId="10" x1="374.4127093333107" y1="215.6465250893781" x2="247.62461758139318" y2="304.9454760896666"/>
    <line class="link" targetId="9" sourceId="3" x1="374.4127093333107" y1="215.6465250893781" x2="302.92978358679267" y2="295.51480072721284"/>
    <line class="link" targetId="11" sourceId="3" x1="430.92422341191565" y1="221.00840262034615" x2="302.92978358679267" y2="295.51480072721284"/>
    <line class="link" targetId="11" sourceId="4" x1="430.92422341191565" y1="221.00840262034615" x2="364.6241164532212" y2="323.54771784117594"/>
    <line class="link" targetId="12" sourceId="3" x1="351.71392044575316" y1="267.84063554244733" x2="302.92978358679267" y2="295.51480072721284"/>
    <line class="link" targetId="13" sourceId="3" x1="468.13878049531024" y1="172.65412132832745" x2="302.92978358679267" y2="295.51480072721284"/>
    <line class="link" targetId="14" sourceId="3" x1="458.87841595129515" y1="271.16718552761074" x2="302.92978358679267" y2="295.51480072721284"/>
    <line class="link" targetId="1" sourceId="3" x1="314.9539637833853" y1="349.54405822256473" x2="302.92978358679267" y2="295.51480072721284"/>
    <line class="link" targetId="15" sourceId="3" x1="404.7977085843595" y1="285.0927325052778" x2="302.92978358679267" y2="295.51480072721284"/>
    <line class="link" targetId="17" sourceId="10" x1="468.7759250046066" y1="411.1917779148312" x2="247.62461758139318" y2="304.9454760896666"/>
    <line class="link" targetId="17" sourceId="3" x1="468.7759250046066" y1="411.1917779148312" x2="302.92978358679267" y2="295.51480072721284"/>
    <line class="link" targetId="18" sourceId="3" x1="529.5328868945851" y1="332.375717737242" x2="302.92978358679267" y2="295.51480072721284"/>
    <line class="link" targetId="19" sourceId="3" x1="469.37559759602107" y1="349.37486296098814" x2="302.92978358679267" y2="295.51480072721284"/>
    <line class="link" targetId="20" sourceId="3" x1="418.25052417986615" y1="376.4530159034194" x2="302.92978358679267" y2="295.51480072721284"/>
    <line class="link" targetId="22" sourceId="3" x1="423.4396723185486" y1="467.70284243395145" x2="302.92978358679267" y2="295.51480072721284"/>
    <line class="link" targetId="4" sourceId="3" x1="364.6241164532212" y1="323.54771784117594" x2="302.92978358679267" y2="295.51480072721284"/>
    <line class="link" targetId="4" sourceId="2" x1="364.6241164532212" y1="323.54771784117594" x2="316.7293884074011" y2="224.27496510063867"/>
    <line class="link" targetId="4" sourceId="11" x1="364.6241164532212" y1="323.54771784117594" x2="430.92422341191565" y2="221.00840262034615"/>
    <line class="link" targetId="24" sourceId="3" x1="265.0157483233074" y1="496.0961949756652" x2="302.92978358679267" y2="295.51480072721284"/>
    <line class="link" targetId="25" sourceId="3" x1="383.8868861542743" y1="422.25212011685494" x2="302.92978358679267" y2="295.51480072721284"/>
    <line class="link" targetId="3" sourceId="24" x1="302.92978358679267" y1="295.51480072721284" x2="265.0157483233074" y2="496.0961949756652"/>
    <line class="link" targetId="3" sourceId="1" x1="302.92978358679267" y1="295.51480072721284" x2="314.9539637833853" y2="349.54405822256473"/>
    <line class="link" targetId="26" sourceId="3" x1="340.04343211725603" y1="459.57787912316746" x2="302.92978358679267" y2="295.51480072721284"/>
    <line class="link" targetId="26" sourceId="27" x1="340.04343211725603" y1="459.57787912316746" x2="194.40305000962897" y2="307.13330827165197"/>
    <line class="link" targetId="26" sourceId="21" x1="340.04343211725603" y1="459.57787912316746" x2="320.5409529212261" y2="515.3018211865444"/>
    <line class="link" targetId="28" sourceId="3" x1="329.5889754666227" y1="403.86468107069845" x2="302.92978358679267" y2="295.51480072721284"/>
    <line class="link" targetId="28" sourceId="4" x1="329.5889754666227" y1="403.86468107069845" x2="364.6241164532212" y2="323.54771784117594"/>
    <line class="link" targetId="29" sourceId="10" x1="281.59494516167047" y1="441.20072483521903" x2="247.62461758139318" y2="304.9454760896666"/>
    <line class="link" targetId="29" sourceId="3" x1="281.59494516167047" y1="441.20072483521903" x2="302.92978358679267" y2="295.51480072721284"/>
    <line class="link" targetId="30" sourceId="3" x1="214.34372673124477" y1="460.18351246319855" x2="302.92978358679267" y2="295.51480072721284"/>
    <line class="link" targetId="31" sourceId="10" x1="271.99851349380197" y1="385.27877020763776" x2="247.62461758139318" y2="304.9454760896666"/>
    <line class="link" targetId="31" sourceId="3" x1="271.99851349380197" y1="385.27877020763776" x2="302.92978358679267" y2="295.51480072721284"/>
    <line class="link" targetId="32" sourceId="3" x1="191.08004969217467" y1="407.7471868632754" x2="302.92978358679267" y2="295.51480072721284"/>
    <line class="link" targetId="33" sourceId="3" x1="224.0757834816614" y1="355.85315059516074" x2="302.92978358679267" y2="295.51480072721284"/>
    <line class="link" targetId="34" sourceId="23" x1="126.90670561047341" y1="395.65685930763846" x2="129.71504614093536" y2="467.73084647195094"/>
    <line class="link" targetId="34" sourceId="3" x1="126.90670561047341" y1="395.65685930763846" x2="302.92978358679267" y2="295.51480072721284"/>
    <line class="link" targetId="34" sourceId="27" x1="126.90670561047341" y1="395.65685930763846" x2="194.40305000962897" y2="307.13330827165197"/>
    <line class="link" targetId="34" sourceId="35" x1="126.90670561047341" y1="395.65685930763846" x2="83.60074503601061" y2="431.38777164902484"/>
    <line class="link" targetId="34" sourceId="36" x1="126.90670561047341" y1="395.65685930763846" x2="95.16467034080242" y2="266.30668344806816"/>
    <line class="link" targetId="34" sourceId="0" x1="126.90670561047341" y1="395.65685930763846" x2="510.26760231946344" y2="245.4544848891999"/>
    <line class="link" targetId="34" sourceId="16" x1="126.90670561047341" y1="395.65685930763846" x2="38.62141738799471" y2="389.38393270481333"/>
    <line class="link" targetId="34" sourceId="21" x1="126.90670561047341" y1="395.65685930763846" x2="320.5409529212261" y2="515.3018211865444"/>
    <line class="link" targetId="37" sourceId="3" x1="167.3274016766894" y1="356.5746599752924" x2="302.92978358679267" y2="295.51480072721284"/>
    <line class="link" targetId="38" sourceId="3" x1="136.51702813209363" y1="307.00065536152147" x2="302.92978358679267" y2="295.51480072721284"/>
    <line class="link" targetId="39" sourceId="3" x1="83.19248969754636" y1="326.5801154219807" x2="302.92978358679267" y2="295.51480072721284"/>
    <line class="link" targetId="10" sourceId="3" x1="247.62461758139318" y1="304.9454760896666" x2="302.92978358679267" y2="295.51480072721284"/>
    <line class="link" targetId="36" sourceId="3" x1="95.16467034080242" y1="266.30668344806816" x2="302.92978358679267" y2="295.51480072721284"/>
    <line class="link" targetId="27" sourceId="3" x1="194.40305000962897" y1="307.13330827165197" x2="302.92978358679267" y2="295.51480072721284"/>
    <line class="link" targetId="40" sourceId="3" x1="123.2770301710359" y1="214.0590612627273" x2="302.92978358679267" y2="295.51480072721284"/>
    <line class="link" targetId="41" sourceId="10" x1="212.82500769978293" y1="253.09726174415252" x2="247.62461758139318" y2="304.9454760896666"/>
    <line class="link" targetId="41" sourceId="3" x1="212.82500769978293" y1="253.09726174415252" x2="302.92978358679267" y2="295.51480072721284"/>
    <line class="link" targetId="42" sourceId="3" x1="155.90249447348387" y1="163.65122066903396" x2="302.92978358679267" y2="295.51480072721284"/>
    <line class="link" targetId="43" sourceId="3" x1="209.95572216158706" y1="189.0426195027356" x2="302.92978358679267" y2="295.51480072721284"/>
    <line class="link" targetId="44" sourceId="3" x1="195.62986888586647" y1="121.50433181507657" x2="302.92978358679267" y2="295.51480072721284"/>
    <line class="link" targetId="45" sourceId="10" x1="268.0436833920991" y1="252.492661085088" x2="247.62461758139318" y2="304.9454760896666"/>
    <line class="link" targetId="45" sourceId="3" x1="268.0436833920991" y1="252.492661085088" x2="302.92978358679267" y2="295.51480072721284"/>
    <line class="link" targetId="45" sourceId="12" x1="268.0436833920991" y1="252.492661085088" x2="351.71392044575316" y2="267.84063554244733"/>
    <line class="link" targetId="45" sourceId="7" x1="268.0436833920991" y1="252.492661085088" x2="338.7604698530698" y2="171.54806244518153"/>
    <line class="link" targetId="46" sourceId="3" x1="247.16493034838385" y1="145.22788173371111" x2="302.92978358679267" y2="295.51480072721284"/>
    <line class="link" targetId="5" sourceId="3" x1="267.8406148507201" y1="196.95918637412086" x2="302.92978358679267" y2="295.51480072721284"/>
    <line class="link" targetId="5" sourceId="4" x1="267.8406148507201" y1="196.95918637412086" x2="364.6241164532212" y2="323.54771784117594"/>
    <line class="link" targetId="5" sourceId="2" x1="267.8406148507201" y1="196.95918637412086" x2="316.7293884074011" y2="224.27496510063867"/>
    <line class="link" targetId="47" sourceId="3" x1="302.35849263269864" y1="128.43706768426608" x2="302.92978358679267" y2="295.51480072721284"/>
    <line class="link" targetId="47" sourceId="48" x1="302.35849263269864" y1="128.43706768426608" x2="299.70129588607426" y2="53.578275584773394"/>
    <line class="link" targetId="47" sourceId="33" x1="302.35849263269864" y1="128.43706768426608" x2="224.0757834816614" y2="355.85315059516074"/>
    <line class="link" targetId="47" sourceId="21" x1="302.35849263269864" y1="128.43706768426608" x2="320.5409529212261" y2="515.3018211865444"/>
  </g>
  <g class="nodes">
    <g id="0"
        onmouseover="mo(this)" onmouseout="mleave(this)">
      <circle class="node" r="19.7" cx="510.26760231946344" cy="245.4544848891999" fill="#d84d7c"><title>semanticweb-org</title></circle>
      <a class="bubble" href="https://lod-cloud.net/dataset/semanticweb-org">
          <text x="510.26760231946344" y="245.4544848891999">semant...</text>
      </a>
    </g>
    <g id="1"
        onmouseover="mo(this)" onmouseout="mleave(this)">
      <circle class="node" r="19.3" cx="314.9539637833853" cy="349.54405822256473" fill="#d84d7c"><title>revyu</title></circle>
      <a class="bubble" href="https://lod-cloud.net/dataset/revyu">
          <text x="314.9539637833853" y="349.54405822256473">Revyu....</text>
      </a>
    </g>
    <g id="2"
        onmouseover="mo(this)" onmouseout="mleave(this)">
      <circle class="node" r="21.5" cx="316.7293884074011" cy="224.27496510063867" fill="#8b2453"><title>ineverycrea</title></circle>
      <a class="bubble" href="https://lod-cloud.net/dataset/ineverycrea">
          <text x="316.7293884074011" y="224.27496510063867">Inever...</text>
      </a>
    </g>
    <g id="3"
        onmouseover="mo(this)" onmouseout="mleave(this)">
      <circle class="node" r="25.0" cx="302.92978358679267" cy="295.51480072721284" fill="#d84d7c"><title>dbpedia</title></circle>
      <a class="bubble" href="https://lod-cloud.net/dataset/dbpedia">
          <text x="302.92978358679267" y="295.51480072721284">DBpedia</text>
      </a>
    </g>
    <g id="4"
        onmouseover="mo(this)" onmouseout="mleave(this)">
      <circle class="node" r="21.5" cx="364.6241164532212" cy="323.54771784117594" fill="#8b2453"><title>didactalia</title></circle>
      <a class="bubble" href="https://lod-cloud.net/dataset/didactalia">
          <text x="364.6241164532212" y="323.54771784117594">Didact...</text>
      </a>
    </g>
    <g id="5"
        onmouseover="mo(this)" onmouseout="mleave(this)">
      <circle class="node" r="19.2" cx="267.8406148507201" cy="196.95918637412086" fill="#8b2453"><title>ineverycrea-argentina</title></circle>
      <a class="bubble" href="https://lod-cloud.net/dataset/ineverycrea-argentina">
          <text x="267.8406148507201" y="196.95918637412086">Inever...</text>
      </a>
    </g>
    <g id="6"
        onmouseover="mo(this)" onmouseout="mleave(this)">
      <circle class="node" r="18.9" cx="362.2893383644994" cy="111.68048967096075" fill="#8b2453"><title>artenuevosmedios-gnoss</title></circle>
      <a class="bubble" href="https://lod-cloud.net/dataset/artenuevosmedios-gnoss">
          <text x="362.2893383644994" y="111.68048967096075">Entorn...</text>
      </a>
    </g>
    <g id="7"
        onmouseover="mo(this)" onmouseout="mleave(this)">
      <circle class="node" r="19.9" cx="338.7604698530698" cy="171.54806244518153" fill="#8b2453"><title>museosespania-gnoss</title></circle>
      <a class="bubble" href="https://lod-cloud.net/dataset/museosespania-gnoss">
          <text x="338.7604698530698" y="171.54806244518153">Museos...</text>
      </a>
    </g>
    <g id="8"
        onmouseover="mo(this)" onmouseout="mleave(this)">
      <circle class="node" r="21.6" cx="415.17864043066896" cy="139.32167580664978" fill="#d84d7c"><title>lotico</title></circle>
      <a class="bubble" href="https://lod-cloud.net/dataset/lotico">
          <text x="415.17864043066896" y="139.32167580664978">Lotico</text>
      </a>
    </g>
    <g id="9"
        onmouseover="mo(this)" onmouseout="mleave(this)">
      <circle class="node" r="20.4" cx="374.4127093333107" cy="215.6465250893781" fill="#8b2453"><title>athelia-rfid</title></circle>
      <a class="bubble" href="https://lod-cloud.net/dataset/athelia-rfid">
          <text x="374.4127093333107" y="215.6465250893781">Atheli...</text>
      </a>
    </g>
    <g id="10"
        onmouseover="mo(this)" onmouseout="mleave(this)">
      <circle class="node" r="23.3" cx="247.62461758139318" cy="304.9454760896666" fill="#8b2453"><title>dblp-deusto-gnoss</title></circle>
      <a class="bubble" href="https://lod-cloud.net/dataset/dblp-deusto-gnoss">
          <text x="247.62461758139318" y="304.9454760896666">DBLP R...</text>
      </a>
    </g>
    <g id="11"
        onmouseover="mo(this)" onmouseout="mleave(this)">
      <circle class="node" r="20.0" cx="430.92422341191565" cy="221.00840262034615" fill="#8b2453"><title>interactivemaps-gnoss</title></circle>
      <a class="bubble" href="https://lod-cloud.net/dataset/interactivemaps-gnoss">
          <text x="430.92422341191565" y="221.00840262034615">Intera...</text>
      </a>
    </g>
    <g id="12"
        onmouseover="mo(this)" onmouseout="mleave(this)">
      <circle class="node" r="20.6" cx="351.71392044575316" cy="267.84063554244733" fill="#8b2453"><title>miguiadeviajes-gnoss</title></circle>
      <a class="bubble" href="https://lod-cloud.net/dataset/miguiadeviajes-gnoss">
          <text x="351.71392044575316" y="267.84063554244733">Mi Guí...</text>
      </a>
    </g>
    <g id="13"
        onmouseover="mo(this)" onmouseout="mleave(this)">
      <circle class="node" r="18.6" cx="468.13878049531024" cy="172.65412132832745" fill="#d84d7c"><title>the-living-lod-cloud</title></circle>
      <a class="bubble" href="https://lod-cloud.net/dataset/the-living-lod-cloud">
          <text x="468.13878049531024" y="172.65412132832745">The Li...</text>
      </a>
    </g>
    <g id="14"
        onmouseover="mo(this)" onmouseout="mleave(this)">
      <circle class="node" r="21.7" cx="458.87841595129515" cy="271.16718552761074" fill="#d84d7c"><title>yovisto</title></circle>
      <a class="bubble" href="https://lod-cloud.net/dataset/yovisto">
          <text x="458.87841595129515" y="271.16718552761074">Yovist...</text>
      </a>
    </g>
    <g id="15"
        onmouseover="mo(this)" onmouseout="mleave(this)">
      <circle class="node" r="18.8" cx="404.7977085843595" cy="285.0927325052778" fill="#8b2453"><title>garnicaplywood</title></circle>
      <a class="bubble" href="https://lod-cloud.net/dataset/garnicaplywood">
          <text x="404.7977085843595" y="285.0927325052778">Garnic...</text>
      </a>
    </g>
    <g id="16"
        onmouseover="mo(this)" onmouseout="mleave(this)">
      <circle class="node" r="15.0" cx="38.62141738799471" cy="389.38393270481333" fill="#d84d7c"><title>typepad</title></circle>
      <a class="bubble" href="https://lod-cloud.net/dataset/typepad">
          <text x="38.62141738799471" y="389.38393270481333">typepad</text>
      </a>
    </g>
    <g id="17"
        onmouseover="mo(this)" onmouseout="mleave(this)">
      <circle class="node" r="19.6" cx="468.7759250046066" cy="411.1917779148312" fill="#8b2453"><title>prospects-and-trends-gnoss</title></circle>
      <a class="bubble" href="https://lod-cloud.net/dataset/prospects-and-trends-gnoss">
          <text x="468.7759250046066" y="411.1917779148312">Prospe...</text>
      </a>
    </g>
    <g id="18"
        onmouseover="mo(this)" onmouseout="mleave(this)">
      <circle class="node" r="22.0" cx="529.5328868945851" cy="332.375717737242" fill="#d84d7c"><title>elviajero</title></circle>
      <a class="bubble" href="https://lod-cloud.net/dataset/elviajero">
          <text x="529.5328868945851" y="332.375717737242">El Via...</text>
      </a>
    </g>
    <g id="19"
        onmouseover="mo(this)" onmouseout="mleave(this)">
      <circle class="node" r="21.7" cx="469.37559759602107" cy="349.37486296098814" fill="#d84d7c"><title>twarql</title></circle>
      <a class="bubble" href="https://lod-cloud.net/dataset/twarql">
          <text x="469.37559759602107" y="349.37486296098814">Twarql</text>
      </a>
    </g>
    <g id="20"
        onmouseover="mo(this)" onmouseout="mleave(this)">
      <circle class="node" r="18.0" cx="418.25052417986615" cy="376.4530159034194" fill="#d84d7c"><title>klappstuhlclub</title></circle>
      <a class="bubble" href="https://lod-cloud.net/dataset/klappstuhlclub">
          <text x="418.25052417986615" y="376.4530159034194">Klapps...</text>
      </a>
    </g>
    <g id="21"
        onmouseover="mo(this)" onmouseout="mleave(this)">
      <circle class="node" r="15.0" cx="320.5409529212261" cy="515.3018211865444" fill="#d84d7c"><title>wordpress</title></circle>
      <a class="bubble" href="https://lod-cloud.net/dataset/wordpress">
          <text x="320.5409529212261" y="515.3018211865444">wordpress</text>
      </a>
    </g>
    <g id="22"
        onmouseover="mo(this)" onmouseout="mleave(this)">
      <circle class="node" r="18.8" cx="423.4396723185486" cy="467.70284243395145" fill="#8b2453"><title>red-uno-internacional-santillana</title></circle>
      <a class="bubble" href="https://lod-cloud.net/dataset/red-uno-internacional-santillana">
          <text x="423.4396723185486" y="467.70284243395145">Red Un...</text>
      </a>
    </g>
    <g id="23"
        onmouseover="mo(this)" onmouseout="mleave(this)">
      <circle class="node" r="15.0" cx="129.71504614093536" cy="467.73084647195094" fill="#d84d7c"><title>apache</title></circle>
      <a class="bubble" href="https://lod-cloud.net/dataset/apache">
          <text x="129.71504614093536" y="467.73084647195094">apache</text>
      </a>
    </g>
    <g id="24"
        onmouseover="mo(this)" onmouseout="mleave(this)">
      <circle class="node" r="22.7" cx="265.0157483233074" cy="496.0961949756652" fill="#d84d7c"><title>flickr-wrappr</title></circle>
      <a class="bubble" href="https://lod-cloud.net/dataset/flickr-wrappr">
          <text x="265.0157483233074" y="496.0961949756652">flickr...</text>
      </a>
    </g>
    <g id="25"
        onmouseover="mo(this)" onmouseout="mleave(this)">
      <circle class="node" r="20.3" cx="383.8868861542743" cy="422.25212011685494" fill="#d84d7c"><title>john-goodwins-family-tree</title></circle>
      <a class="bubble" href="https://lod-cloud.net/dataset/john-goodwins-family-tree">
          <text x="383.8868861542743" y="422.25212011685494">John G...</text>
      </a>
    </g>
    <g id="26"
        onmouseover="mo(this)" onmouseout="mleave(this)">
      <circle class="node" r="15.0" cx="340.04343211725603" cy="459.57787912316746" fill="#d84d7c"><title>myopenlink-dataspaces</title></circle>
      <a class="bubble" href="https://lod-cloud.net/dataset/myopenlink-dataspaces">
          <text x="340.04343211725603" y="459.57787912316746">myopen...</text>
      </a>
    </g>
    <g id="27"
        onmouseover="mo(this)" onmouseout="mleave(this)">
      <circle class="node" r="15.0" cx="194.40305000962897" cy="307.13330827165197" fill="#d84d7c"><title>openlinksw-dataspaces</title></circle>
      <a class="bubble" href="https://lod-cloud.net/dataset/openlinksw-dataspaces">
          <text x="194.40305000962897" y="307.13330827165197">openli...</text>
      </a>
    </g>
    <g id="28"
        onmouseover="mo(this)" onmouseout="mleave(this)">
      <circle class="node" r="21.0" cx="329.5889754666227" cy="403.86468107069845" fill="#8b2453"><title>biblioteca-escolar-digital-cita</title></circle>
      <a class="bubble" href="https://lod-cloud.net/dataset/biblioteca-escolar-digital-cita">
          <text x="329.5889754666227" y="403.86468107069845">Biblio...</text>
      </a>
    </g>
    <g id="29"
        onmouseover="mo(this)" onmouseout="mleave(this)">
      <circle class="node" r="19.8" cx="281.59494516167047" cy="441.20072483521903" fill="#8b2453"><title>arthroscopy</title></circle>
      <a class="bubble" href="https://lod-cloud.net/dataset/arthroscopy">
          <text x="281.59494516167047" y="441.20072483521903">Arthro...</text>
      </a>
    </g>
    <g id="30"
        onmouseover="mo(this)" onmouseout="mleave(this)">
      <circle class="node" r="21.5" cx="214.34372673124477" cy="460.18351246319855" fill="#d84d7c"><title>my-family-lineage</title></circle>
      <a class="bubble" href="https://lod-cloud.net/dataset/my-family-lineage">
          <text x="214.34372673124477" y="460.18351246319855">My Fam...</text>
      </a>
    </g>
    <g id="31"
        onmouseover="mo(this)" onmouseout="mleave(this)">
      <circle class="node" r="19.7" cx="271.99851349380197" cy="385.27877020763776" fill="#8b2453"><title>deustotech</title></circle>
      <a class="bubble" href="https://lod-cloud.net/dataset/deustotech">
          <text x="271.99851349380197" y="385.27877020763776">Deusto...</text>
      </a>
    </g>
    <g id="32"
        onmouseover="mo(this)" onmouseout="mleave(this)">
      <circle class="node" r="19.9" cx="191.08004969217467" cy="407.7471868632754" fill="#8b2453"><title>proyectoapadrina</title></circle>
      <a class="bubble" href="https://lod-cloud.net/dataset/proyectoapadrina">
          <text x="191.08004969217467" y="407.7471868632754">Proyec...</text>
      </a>
    </g>
    <g id="33"
        onmouseover="mo(this)" onmouseout="mleave(this)">
      <circle class="node" r="20.8" cx="224.0757834816614" cy="355.85315059516074" fill="#d84d7c"><title>rdfohloh</title></circle>
      <a class="bubble" href="https://lod-cloud.net/dataset/rdfohloh">
          <text x="224.0757834816614" y="355.85315059516074">RDFohloh</text>
      </a>
    </g>
    <g id="34"
        onmouseover="mo(this)" onmouseout="mleave(this)">
      <circle class="node" r="15.0" cx="126.90670561047341" cy="395.65685930763846" fill="#d84d7c"><title>semanlink</title></circle>
      <a class="bubble" href="https://lod-cloud.net/dataset/semanlink">
          <text x="126.90670561047341" y="395.65685930763846">semanlink</text>
      </a>
    </g>
    <g id="35"
        onmouseover="mo(this)" onmouseout="mleave(this)">
      <circle class="node" r="18.9" cx="83.60074503601061" cy="431.38777164902484" fill="#d84d7c"><title>prefix-cc</title></circle>
      <a class="bubble" href="https://lod-cloud.net/dataset/prefix-cc">
          <text x="83.60074503601061" y="431.38777164902484">prefix.cc</text>
      </a>
    </g>
    <g id="36"
        onmouseover="mo(this)" onmouseout="mleave(this)">
      <circle class="node" r="20.8" cx="95.16467034080242" cy="266.30668344806816" fill="#d84d7c"><title>productdb</title></circle>
      <a class="bubble" href="https://lod-cloud.net/dataset/productdb">
          <text x="95.16467034080242" y="266.30668344806816">ProductDB</text>
      </a>
    </g>
    <g id="37"
        onmouseover="mo(this)" onmouseout="mleave(this)">
      <circle class="node" r="19.9" cx="167.3274016766894" cy="356.5746599752924" fill="#8b2453"><title>aegp-spanish-textile-and-clothing-association</title></circle>
      <a class="bubble" href="https://lod-cloud.net/dataset/aegp-spanish-textile-and-clothing-association">
          <text x="167.3274016766894" y="356.5746599752924">AEGP, ...</text>
      </a>
    </g>
    <g id="38"
        onmouseover="mo(this)" onmouseout="mleave(this)">
      <circle class="node" r="20.8" cx="136.51702813209363" cy="307.00065536152147" fill="#d84d7c"><title>my-experiment</title></circle>
      <a class="bubble" href="https://lod-cloud.net/dataset/my-experiment">
          <text x="136.51702813209363" y="307.00065536152147">myExpe...</text>
      </a>
    </g>
    <g id="39"
        onmouseover="mo(this)" onmouseout="mleave(this)">
      <circle class="node" r="17.6" cx="83.19248969754636" cy="326.5801154219807" fill="#d84d7c"><title>universidad-de-cuenca-linkeddata</title></circle>
      <a class="bubble" href="https://lod-cloud.net/dataset/universidad-de-cuenca-linkeddata">
          <text x="83.19248969754636" y="326.5801154219807">Univer...</text>
      </a>
    </g>
    <g id="40"
        onmouseover="mo(this)" onmouseout="mleave(this)">
      <circle class="node" r="19.2" cx="123.2770301710359" cy="214.0590612627273" fill="#8b2453"><title>green-competitiveness-gnoss</title></circle>
      <a class="bubble" href="https://lod-cloud.net/dataset/green-competitiveness-gnoss">
          <text x="123.2770301710359" y="214.0590612627273">Green ...</text>
      </a>
    </g>
    <g id="41"
        onmouseover="mo(this)" onmouseout="mleave(this)">
      <circle class="node" r="20.2" cx="212.82500769978293" cy="253.09726174415252" fill="#8b2453"><title>open-data-risp</title></circle>
      <a class="bubble" href="https://lod-cloud.net/dataset/open-data-risp">
          <text x="212.82500769978293" y="253.09726174415252">Open D...</text>
      </a>
    </g>
    <g id="42"
        onmouseover="mo(this)" onmouseout="mleave(this)">
      <circle class="node" r="19.3" cx="155.90249447348387" cy="163.65122066903396" fill="#d84d7c"><title>utpl-lod</title></circle>
      <a class="bubble" href="https://lod-cloud.net/dataset/utpl-lod">
          <text x="155.90249447348387" y="163.65122066903396">Univer...</text>
      </a>
    </g>
    <g id="43"
        onmouseover="mo(this)" onmouseout="mleave(this)">
      <circle class="node" r="20.0" cx="209.95572216158706" cy="189.0426195027356" fill="#d84d7c"><title>ichoose</title></circle>
      <a class="bubble" href="https://lod-cloud.net/dataset/ichoose">
          <text x="209.95572216158706" y="189.0426195027356">ichoose</text>
      </a>
    </g>
    <g id="44"
        onmouseover="mo(this)" onmouseout="mleave(this)">
      <circle class="node" r="19.3" cx="195.62986888586647" cy="121.50433181507657" fill="#8b2453"><title>deustoentrepreneurship</title></circle>
      <a class="bubble" href="https://lod-cloud.net/dataset/deustoentrepreneurship">
          <text x="195.62986888586647" y="121.50433181507657">Deusto...</text>
      </a>
    </g>
    <g id="45"
        onmouseover="mo(this)" onmouseout="mleave(this)">
      <circle class="node" r="21.7" cx="268.0436833920991" cy="252.492661085088" fill="#8b2453"><title>gnoss-com-a-social-and-semantic-platform</title></circle>
      <a class="bubble" href="https://lod-cloud.net/dataset/gnoss-com-a-social-and-semantic-platform">
          <text x="268.0436833920991" y="252.492661085088">GNOSS....</text>
      </a>
    </g>
    <g id="46"
        onmouseover="mo(this)" onmouseout="mleave(this)">
      <circle class="node" r="18.7" cx="247.16493034838385" cy="145.22788173371111" fill="#8b2453"><title>ce4r</title></circle>
      <a class="bubble" href="https://lod-cloud.net/dataset/ce4r">
          <text x="247.16493034838385" y="145.22788173371111">CE4R K...</text>
      </a>
    </g>
    <g id="47"
        onmouseover="mo(this)" onmouseout="mleave(this)">
      <circle class="node" r="15.0" cx="302.35849263269864" cy="128.43706768426608" fill="#d84d7c"><title>berlios</title></circle>
      <a class="bubble" href="https://lod-cloud.net/dataset/berlios">
          <text x="302.35849263269864" y="128.43706768426608">berlios</text>
      </a>
    </g>
    <g id="48"
        onmouseover="mo(this)" onmouseout="mleave(this)">
      <circle class="node" r="23.6" cx="299.70129588607426" cy="53.578275584773394" fill="#d84d7c"><title>linkedmarkmail</title></circle>
      <a class="bubble" href="https://lod-cloud.net/dataset/linkedmarkmail">
          <text x="299.70129588607426" y="53.578275584773394">Linked...</text>
      </a>
    </g>
    <g transform="translate(20,617) scale(0.8678881388621021)">
      <text style="font-family: Verdana, Arial;">The User Generated Linked Open Data Cloud from lod-cloud.net</text>
    </g>
      <g transform="translate(480, 600)">
<svg
   xmlns:dc="http://purl.org/dc/elements/1.1/"
   xmlns:cc="http://web.resource.org/cc/"
   xmlns:rdf="http://www.w3.org/1999/02/22-rdf-syntax-ns#"
   xmlns:svg="http://www.w3.org/2000/svg"
   xmlns="http://www.w3.org/2000/svg"
   xmlns:sodipodi="http://sodipodi.sourceforge.net/DTD/sodipodi-0.dtd"
   xmlns:inkscape="http://www.inkscape.org/namespaces/inkscape"
   width="120"
   height="42"
   id="svg2759"
   sodipodi:version="0.32"
   inkscape:version="0.45+devel"
   version="1.0"
   sodipodi:docname="by.svg"
   inkscape:output_extension="org.inkscape.output.svg.inkscape">
  <defs
     id="defs2761" />
  <sodipodi:namedview
     id="base"
     pagecolor="#ffffff"
     bordercolor="#8b8b8b"
     borderopacity="1"
     gridtolerance="10000"
     guidetolerance="10"
     objecttolerance="10"
     inkscape:pageopacity="0.0"
     inkscape:pageshadow="2"
     inkscape:zoom="1"
     inkscape:cx="179"
     inkscape:cy="89.569904"
     inkscape:document-units="px"
     inkscape:current-layer="layer1"
     width="120px"
     height="42px"
     inkscape:showpageshadow="false"
     inkscape:window-width="1198"
     inkscape:window-height="624"
     inkscape:window-x="396"
     inkscape:window-y="242" />
  <metadata
     id="metadata2764">
    <rdf:RDF>
      <cc:Work
         rdf:about="">
        <dc:format>image/svg+xml</dc:format>
        <dc:type
           rdf:resource="http://purl.org/dc/dcmitype/StillImage" />
      </cc:Work>
    </rdf:RDF>
  </metadata>
  <g
     inkscape:label="Layer 1"
     inkscape:groupmode="layer"
     id="layer1">
    <g
       transform="matrix(0.9937728,0,0,0.9936696,-177.69267,6.25128e-7)"
       id="g260"
       inkscape:export-filename="/mnt/hgfs/Bov/Documents/Work/2007/cc/identity/srr buttons/big/by.png"
       inkscape:export-xdpi="300.23013"
       inkscape:export-ydpi="300.23013">
	<path
   id="path3817_1_"
   nodetypes="ccccccc"
   d="M 181.96579,0.51074 L 296.02975,0.71338 C 297.6235,0.71338 299.04733,0.47705 299.04733,3.89404 L 298.90768,41.46093 L 179.08737,41.46093 L 179.08737,3.75439 C 179.08737,2.06934 179.25046,0.51074 181.96579,0.51074 z"
   style="fill:#aab2ab" />

	<path
   d="M 297.29636,0 L 181.06736,0 C 179.82078,0 178.80613,1.01416 178.80613,2.26074 L 178.80613,41.75732 C 178.80613,42.03906 179.03513,42.26757 179.31687,42.26757 L 299.04734,42.26757 C 299.32908,42.26757 299.55808,42.03905 299.55808,41.75732 L 299.55808,2.26074 C 299.55807,1.01416 298.54343,0 297.29636,0 z M 181.06735,1.02148 L 297.29635,1.02148 C 297.98043,1.02148 298.53658,1.57714 298.53658,2.26074 C 298.53658,2.26074 298.53658,18.20898 298.53658,29.71045 L 215.19234,29.71045 C 212.14742,35.21631 206.28121,38.95459 199.54879,38.95459 C 192.81344,38.95459 186.94869,35.21973 183.90524,29.71045 L 179.8276,29.71045 C 179.8276,18.20899 179.8276,2.26074 179.8276,2.26074 C 179.82761,1.57715 180.38376,1.02148 181.06735,1.02148 z"
   id="path263" />

	<g
   enable-background="new    "
   id="g265">
		<path
   d="M 253.07761,32.95605 C 253.39499,32.95605 253.68503,32.98437 253.94773,33.04003 C 254.20945,33.09569 254.43308,33.18749 254.62058,33.31542 C 254.8071,33.44237 254.95261,33.6123 255.05515,33.82323 C 255.15769,34.03514 255.20945,34.29589 255.20945,34.60741 C 255.20945,34.94335 255.13328,35.22264 254.97996,35.44628 C 254.82762,35.67089 254.60105,35.85351 254.30223,35.99706 C 254.71434,36.11522 255.02196,36.32226 255.22508,36.61815 C 255.4282,36.91404 255.52977,37.27049 255.52977,37.68749 C 255.52977,38.02343 255.46434,38.31444 255.33348,38.56054 C 255.20262,38.80566 255.02586,39.00683 254.80516,39.1621 C 254.58348,39.31835 254.33055,39.43358 254.04735,39.5078 C 253.76317,39.583 253.47215,39.6201 253.17235,39.6201 L 249.936,39.6201 L 249.936,32.95604 L 253.07761,32.95604 L 253.07761,32.95605 z M 252.89011,35.65137 C 253.15183,35.65137 253.36667,35.58887 253.53562,35.46485 C 253.70359,35.34083 253.78757,35.13965 253.78757,34.86036 C 253.78757,34.70509 253.75925,34.57716 253.70359,34.47852 C 253.64695,34.37891 253.57273,34.30176 253.47898,34.24512 C 253.38523,34.18946 253.27781,34.15039 253.15671,34.12891 C 253.03561,34.10743 252.90866,34.09668 252.77878,34.09668 L 251.40476,34.09668 L 251.40476,35.65137 L 252.89011,35.65137 z M 252.97604,38.47949 C 253.11959,38.47949 253.25631,38.46582 253.38717,38.4375 C 253.51803,38.40918 253.63326,38.3623 253.73385,38.29785 C 253.83346,38.23242 253.91256,38.14355 253.97213,38.03125 C 254.0317,37.91992 254.061,37.77637 254.061,37.60254 C 254.061,37.26074 253.96432,37.0166 253.77096,36.87012 C 253.5776,36.72461 253.32174,36.65137 253.00436,36.65137 L 251.40475,36.65137 L 251.40475,38.47949 L 252.97604,38.47949 z"
   id="path267"
   style="fill:#ffffff" />

		<path
   d="M 255.78854,32.95605 L 257.43209,32.95605 L 258.99264,35.58789 L 260.54342,32.95605 L 262.17721,32.95605 L 259.70358,37.0625 L 259.70358,39.62012 L 258.23483,39.62012 L 258.23483,37.02539 L 255.78854,32.95605 z"
   id="path269"
   style="fill:#ffffff" />

	</g>

	<g
   id="g5908_1_"
   transform="matrix(0.872921,0,0,0.872921,50.12536,143.2144)">
		
			<path
   id="path5906_1_"
   cx="296.35416"
   ry="22.939548"
   cy="264.3577"
   type="arc"
   rx="22.939548"
   d="M 186.90065,-141.46002 C 186.90623,-132.77923 179.87279,-125.73852 171.19257,-125.73291 C 162.51235,-125.72736 155.47051,-132.76025 155.46547,-141.44098 C 155.46547,-141.44714 155.46547,-141.45331 155.46547,-141.46002 C 155.46043,-150.14081 162.49333,-157.18152 171.17355,-157.18658 C 179.8549,-157.19213 186.89561,-150.15924 186.90065,-141.47845 C 186.90065,-141.4729 186.90065,-141.46619 186.90065,-141.46002 z"
   style="fill:#ffffff" />

		<g
   id="g5706_1_"
   transform="translate(-289.6157,99.0653)">
			<path
   id="path5708_1_"
   d="M 473.57574,-253.32751 C 477.06115,-249.8421 478.80413,-245.5736 478.80413,-240.52532 C 478.80413,-235.47594 477.09136,-231.25329 473.66582,-227.85741 C 470.03051,-224.28081 465.734,-222.49309 460.77635,-222.49309 C 455.87858,-222.49309 451.65648,-224.26628 448.11122,-227.81261 C 444.56541,-231.35845 442.79277,-235.59563 442.79277,-240.52532 C 442.79277,-245.45391 444.56541,-249.7213 448.11122,-253.32751 C 451.56642,-256.81402 455.7885,-258.557 460.77635,-258.557 C 465.82465,-258.55701 470.09039,-256.81403 473.57574,-253.32751 z M 450.45776,-250.98267 C 447.51104,-248.00629 446.03823,-244.51978 446.03823,-240.52033 C 446.03823,-236.52198 447.49651,-233.06507 450.41247,-230.14966 C 453.32897,-227.23316 456.80096,-225.77545 460.82952,-225.77545 C 464.85808,-225.77545 468.35967,-227.24768 471.33605,-230.19385 C 474.16198,-232.9303 475.57549,-236.37091 475.57549,-240.52033 C 475.57549,-244.63837 474.13903,-248.13379 471.26781,-251.00501 C 468.39714,-253.87568 464.9179,-255.31159 460.82952,-255.31159 C 456.74112,-255.31158 453.28314,-253.86841 450.45776,-250.98267 z M 458.21225,-242.27948 C 457.76196,-243.26117 457.08795,-243.75232 456.18903,-243.75232 C 454.59986,-243.75232 453.80558,-242.68225 453.80558,-240.54321 C 453.80558,-238.40368 454.59986,-237.33471 456.18903,-237.33471 C 457.23841,-237.33471 457.98795,-237.85546 458.43769,-238.89922 L 460.64045,-237.72625 C 459.59052,-235.86077 458.01536,-234.92779 455.91496,-234.92779 C 454.29506,-234.92779 452.99733,-235.42449 452.0229,-236.4168 C 451.0468,-237.41021 450.56016,-238.77953 450.56016,-240.52532 C 450.56016,-242.24035 451.06245,-243.60186 452.06764,-244.61034 C 453.07283,-245.61888 454.32466,-246.12291 455.82545,-246.12291 C 458.04557,-246.12291 459.63526,-245.24803 460.59626,-243.50005 L 458.21225,-242.27948 z M 468.57562,-242.27948 C 468.12475,-243.26117 467.46417,-243.75232 466.5932,-243.75232 C 464.97217,-243.75232 464.16107,-242.68225 464.16107,-240.54321 C 464.16107,-238.40368 464.97217,-237.33471 466.5932,-237.33471 C 467.64429,-237.33471 468.38037,-237.85546 468.80048,-238.89922 L 471.05249,-237.72625 C 470.00421,-235.86077 468.43127,-234.92779 466.33478,-234.92779 C 464.7171,-234.92779 463.42218,-235.42449 462.44831,-236.4168 C 461.47614,-237.41021 460.98896,-238.77953 460.98896,-240.52532 C 460.98896,-242.24035 461.48341,-243.60186 462.47181,-244.61034 C 463.45966,-245.61888 464.71711,-246.12291 466.24531,-246.12291 C 468.4615,-246.12291 470.04896,-245.24803 471.0066,-243.50005 L 468.57562,-242.27948 z" />

		</g>

	</g>

	<g
   id="g275">
		<circle
   cx="255.55124"
   cy="15.31348"
   r="10.80664"
   id="circle277"
   sodipodi:cx="255.55124"
   sodipodi:cy="15.31348"
   sodipodi:rx="10.80664"
   sodipodi:ry="10.80664"
   style="fill:#ffffff" />

		<g
   id="g279">
			<path
   d="M 258.67819,12.18701 C 258.67819,11.77051 258.3403,11.4331 257.92526,11.4331 L 253.15182,11.4331 C 252.73678,11.4331 252.39889,11.7705 252.39889,12.18701 L 252.39889,16.95996 L 253.72994,16.95996 L 253.72994,22.61182 L 257.34713,22.61182 L 257.34713,16.95996 L 258.67818,16.95996 L 258.67818,12.18701 L 258.67819,12.18701 z"
   id="path281" />

			<circle
   cx="255.53854"
   cy="9.1723604"
   r="1.63281"
   id="circle283"
   sodipodi:cx="255.53854"
   sodipodi:cy="9.1723604"
   sodipodi:rx="1.63281"
   sodipodi:ry="1.63281" />

		</g>

		<path
   clip-rule="evenodd"
   d="M 255.5239,3.40723 C 252.29148,3.40723 249.55515,4.53516 247.31589,6.79102 C 245.01804,9.12452 243.8696,11.88672 243.8696,15.07569 C 243.8696,18.26466 245.01804,21.00733 247.31589,23.30225 C 249.61374,25.59668 252.35007,26.74414 255.5239,26.74414 C 258.73679,26.74414 261.52195,25.58789 263.87742,23.27295 C 266.09715,21.07568 267.2075,18.34326 267.2075,15.07568 C 267.2075,11.8081 266.07762,9.04687 263.8198,6.79101 C 261.56003,4.53516 258.79538,3.40723 255.5239,3.40723 z M 255.55319,5.50684 C 258.20163,5.50684 260.45065,6.44092 262.30026,8.30811 C 264.1694,10.15528 265.10397,12.41114 265.10397,15.07569 C 265.10397,17.75928 264.18893,19.98633 262.35885,21.75587 C 260.43014,23.66212 258.16256,24.61476 255.55319,24.61476 C 252.94284,24.61476 250.69381,23.67189 248.80612,21.78517 C 246.91647,19.89845 245.97311,17.66212 245.97311,15.0757 C 245.97311,12.48879 246.92721,10.23341 248.83541,8.30812 C 250.6655,6.44092 252.90475,5.50684 255.55319,5.50684 z"
   id="path285"
   style="fill-rule:evenodd" />

	</g>

</g>
  </g>
</svg>

      </g>
  </g>
</svg>
